<svg width="214" height="197" viewBox="0 0 214 197" fill="none" xmlns="http://www.w3.org/2000/svg">
<path d="M143.777 196.721C140.036 196.721 136.319 195.904 133.363 194.249L75.6383 161.917C70.5032 159.041 64.2225 155.524 61.6793 154.1L11.0204 125.721C4.79926 122.235 -0.0417632 113.916 0.000271667 106.776L0.329544 51.4588C0.371579 44.3958 5.09701 35.9401 11.087 32.2086L58.0014 2.98087C64.058 -0.789228 73.67 -1.01017 79.8911 2.47234L202.237 71.0004C208.458 74.4827 213.296 82.805 213.257 89.9417L212.931 145.262C212.889 152.325 208.164 160.781 202.174 164.513L155.259 193.74C152.079 195.722 147.917 196.721 143.781 196.721H143.777ZM69.4875 6.84565C66.5976 6.84565 63.6795 7.50146 61.6093 8.78854L14.695 38.0165C10.7087 40.4994 7.18822 46.8017 7.1602 51.5011L6.83095 106.818C6.80292 111.447 10.3198 117.493 14.3552 119.752L65.0175 148.128C67.5608 149.551 73.8414 153.069 78.9769 155.945L136.701 188.276C140.736 190.538 147.721 190.374 151.648 187.929L198.562 158.701C202.549 156.218 206.069 149.916 206.097 145.217L206.423 89.8997C206.447 85.2706 202.934 79.2243 198.899 76.9657L76.5562 8.44136C74.6472 7.37169 72.0797 6.84565 69.4875 6.84565Z" fill="#051118"/>
<path d="M112.927 146.132C111.743 145.164 110.777 143.333 110.777 141.394C110.777 137.946 113.681 135.042 117.12 135.042C119.057 135.042 120.455 135.796 121.53 136.764C126.263 141.502 131.64 143.978 138.632 143.978C146.051 143.978 151.641 139.454 151.641 132.566V132.353C151.641 124.921 144.867 120.723 134.33 120.723H131.64C128.522 120.723 125.941 118.138 125.941 115.017C125.941 113.295 126.694 111.678 128.739 109.634L146.373 90.7939H119.057C115.831 90.7939 113.253 88.2093 113.253 85.0843C113.253 81.9594 115.835 79.2696 119.057 79.2696H157.558C161.32 79.2696 164.119 81.5316 164.119 85.0843C164.119 88.2057 162.613 90.0365 160.353 92.2984L142.607 110.711C154.009 112.11 164.76 117.924 164.76 131.813V132.026C164.76 145.918 154.115 155.927 138.414 155.927C127.338 155.927 119.054 152.052 112.927 146.132Z" fill="#051118"/>
<path d="M80.5465 39.4293L106.895 101.445C107.323 102.413 107.649 103.384 107.649 104.57C107.649 108.122 104.745 111.03 100.983 111.03C97.5429 111.03 95.2834 109.094 94.2079 106.295L72.4864 51.9214L50.4392 106.723C49.5776 108.985 47.213 111.03 44.0955 111.03C40.4419 111.03 37.538 108.231 37.538 104.678C37.538 103.71 37.8602 102.634 38.1825 101.876L64.6365 39.4293C66.0342 36.0906 68.5105 34.046 72.2728 34.046H73.0258C76.683 34.046 79.1559 36.0906 80.5537 39.4293H80.5465Z" fill="#051118"/>
<path d="M74.5773 90.7902H95.5354V79.2696H74.5773C71.3511 79.2696 68.7697 81.8545 68.7697 85.0843C68.7697 88.3145 71.3511 90.7939 74.5773 90.7939V90.7902Z" fill="#051118"/>
</svg>
