<svg width="275" height="177" viewBox="0 0 275 177" fill="none" xmlns="http://www.w3.org/2000/svg">
<path d="M49.09 117V130.077L95.9711 138.795V142.896L86.7379 139.82H6V154.185H86.7379L95.9711 151.104V155.21L49.09 163.928V177L100.078 167.52V126.486L49.09 117Z" fill="#051118"/>
<path d="M1.296 65L14.544 14.6H31.104L44.352 65H34.56L31.824 53.912H13.824L11.088 65H1.296ZM16.056 45.128H29.592L23.472 20.576H22.176L16.056 45.128ZM48.9448 47.288V46.136C48.9448 42.392 49.6888 39.2 51.1768 36.56C52.6648 33.872 54.6328 31.832 57.0808 30.44C59.5768 29 62.2888 28.28 65.2168 28.28C68.4808 28.28 70.9528 28.856 72.6328 30.008C74.3128 31.16 75.5368 32.36 76.3048 33.608H77.6008V29.288H86.5288V71.336C86.5288 73.784 85.8088 75.728 84.3688 77.168C82.9288 78.656 81.0088 79.4 78.6088 79.4H54.7048V71.48H75.4408C76.7848 71.48 77.4568 70.76 77.4568 69.32V60.032H76.1608C75.6808 60.8 75.0088 61.592 74.1448 62.408C73.2808 63.176 72.1288 63.824 70.6888 64.352C69.2488 64.88 67.4248 65.144 65.2168 65.144C62.2888 65.144 59.5768 64.448 57.0808 63.056C54.6328 61.616 52.6648 59.576 51.1768 56.936C49.6888 54.248 48.9448 51.032 48.9448 47.288ZM67.8088 57.224C70.5928 57.224 72.9208 56.336 74.7928 54.56C76.6648 52.784 77.6008 50.288 77.6008 47.072V46.352C77.6008 43.088 76.6648 40.592 74.7928 38.864C72.9688 37.088 70.6408 36.2 67.8088 36.2C65.0248 36.2 62.6968 37.088 60.8248 38.864C58.9528 40.592 58.0168 43.088 58.0168 46.352V47.072C58.0168 50.288 58.9528 52.784 60.8248 54.56C62.6968 56.336 65.0248 57.224 67.8088 57.224ZM112.859 66.008C109.307 66.008 106.163 65.264 103.427 63.776C100.739 62.24 98.6269 60.104 97.0909 57.368C95.6029 54.584 94.8589 51.32 94.8589 47.576V46.712C94.8589 42.968 95.6029 39.728 97.0909 36.992C98.5789 34.208 100.667 32.072 103.355 30.584C106.043 29.048 109.163 28.28 112.715 28.28C116.219 28.28 119.267 29.072 121.859 30.656C124.451 32.192 126.467 34.352 127.907 37.136C129.347 39.872 130.067 43.064 130.067 46.712V49.808H104.075C104.171 52.256 105.083 54.248 106.811 55.784C108.539 57.32 110.651 58.088 113.147 58.088C115.691 58.088 117.563 57.536 118.763 56.432C119.963 55.328 120.875 54.104 121.499 52.76L128.915 56.648C128.243 57.896 127.259 59.264 125.963 60.752C124.715 62.192 123.035 63.44 120.923 64.496C118.811 65.504 116.123 66.008 112.859 66.008ZM104.147 43.04H120.851C120.659 40.976 119.819 39.32 118.331 38.072C116.891 36.824 114.995 36.2 112.643 36.2C110.195 36.2 108.251 36.824 106.811 38.072C105.371 39.32 104.483 40.976 104.147 43.04ZM138.142 65V29.288H147.07V33.968H148.366C148.942 32.72 150.022 31.544 151.606 30.44C153.19 29.288 155.59 28.712 158.806 28.712C161.59 28.712 164.014 29.36 166.078 30.656C168.19 31.904 169.822 33.656 170.974 35.912C172.126 38.12 172.702 40.712 172.702 43.688V65H163.63V44.408C163.63 41.72 162.958 39.704 161.614 38.36C160.318 37.016 158.446 36.344 155.998 36.344C153.214 36.344 151.054 37.28 149.518 39.152C147.982 40.976 147.214 43.544 147.214 46.856V65H138.142ZM196.909 66.008C194.077 66.008 191.413 65.312 188.917 63.92C186.469 62.48 184.501 60.392 183.013 57.656C181.525 54.92 180.781 51.608 180.781 47.72V46.568C180.781 42.68 181.525 39.368 183.013 36.632C184.501 33.896 186.469 31.832 188.917 30.44C191.365 29 194.029 28.28 196.909 28.28C199.069 28.28 200.869 28.544 202.309 29.072C203.797 29.552 204.997 30.176 205.909 30.944C206.821 31.712 207.517 32.528 207.997 33.392H209.293V14.6H218.365V65H209.437V60.68H208.141C207.325 62.024 206.053 63.248 204.325 64.352C202.645 65.456 200.173 66.008 196.909 66.008ZM199.645 58.088C202.429 58.088 204.757 57.2 206.629 55.424C208.501 53.6 209.437 50.96 209.437 47.504V46.784C209.437 43.328 208.501 40.712 206.629 38.936C204.805 37.112 202.477 36.2 199.645 36.2C196.861 36.2 194.533 37.112 192.661 38.936C190.789 40.712 189.853 43.328 189.853 46.784V47.504C189.853 50.96 190.789 53.6 192.661 55.424C194.533 57.2 196.861 58.088 199.645 58.088ZM239.511 66.008C236.967 66.008 234.687 65.576 232.671 64.712C230.655 63.8 229.047 62.504 227.847 60.824C226.695 59.096 226.119 57.008 226.119 54.56C226.119 52.112 226.695 50.072 227.847 48.44C229.047 46.76 230.679 45.512 232.743 44.696C234.855 43.832 237.255 43.4 239.943 43.4H249.735V41.384C249.735 39.704 249.207 38.336 248.151 37.28C247.095 36.176 245.415 35.624 243.111 35.624C240.855 35.624 239.175 36.152 238.071 37.208C236.967 38.216 236.247 39.536 235.911 41.168L227.559 38.36C228.135 36.536 229.047 34.88 230.295 33.392C231.591 31.856 233.295 30.632 235.407 29.72C237.567 28.76 240.183 28.28 243.255 28.28C247.959 28.28 251.679 29.456 254.415 31.808C257.151 34.16 258.519 37.568 258.519 42.032V55.352C258.519 56.792 259.191 57.512 260.535 57.512H263.415V65H257.367C255.591 65 254.127 64.568 252.975 63.704C251.823 62.84 251.247 61.688 251.247 60.248V60.176H249.879C249.687 60.752 249.255 61.52 248.583 62.48C247.911 63.392 246.855 64.208 245.415 64.928C243.975 65.648 242.007 66.008 239.511 66.008ZM241.095 58.664C243.639 58.664 245.703 57.968 247.287 56.576C248.919 55.136 249.735 53.24 249.735 50.888V50.168H240.591C238.911 50.168 237.591 50.528 236.631 51.248C235.671 51.968 235.191 52.976 235.191 54.272C235.191 55.568 235.695 56.624 236.703 57.44C237.711 58.256 239.175 58.664 241.095 58.664Z" fill="#051118"/>
</svg>
