<svg width="590" height="106" viewBox="0 0 590 106" fill="none" xmlns="http://www.w3.org/2000/svg">
<mask id="mask0_372_16" style="mask-type:alpha" maskUnits="userSpaceOnUse" x="0" y="0" width="590" height="106">
<rect width="590" height="106" fill="#D9D9D9"/>
</mask>
<g mask="url(#mask0_372_16)">
<path d="M44.552 76.204C37.0987 76.204 31.1933 74.14 26.836 70.012C22.4787 65.8267 20.3 59.864 20.3 52.124V37.676C20.3 29.936 22.4787 24.002 26.836 19.874C31.1933 15.6887 37.0987 13.596 44.552 13.596C51.948 13.596 57.6527 15.6313 61.666 19.702C65.7367 23.7153 67.772 29.248 67.772 36.3V36.816H56.592V35.956C56.592 32.4013 55.5887 29.4773 53.582 27.184C51.6327 24.8907 48.6227 23.744 44.552 23.744C40.5387 23.744 37.3853 24.9767 35.092 27.442C32.7987 29.9073 31.652 33.2613 31.652 37.504V52.296C31.652 56.4813 32.7987 59.8353 35.092 62.358C37.3853 64.8233 40.5387 66.056 44.552 66.056C48.6227 66.056 51.6327 64.9093 53.582 62.616C55.5887 60.2653 56.592 57.3413 56.592 53.844V52.296H67.772V53.5C67.772 60.552 65.7367 66.1133 61.666 70.184C57.6527 74.1973 51.948 76.204 44.552 76.204ZM97.6617 76.204C93.419 76.204 89.6064 75.344 86.2237 73.624C82.841 71.904 80.175 69.41 78.2257 66.142C76.2764 62.874 75.3017 58.9467 75.3017 54.36V52.984C75.3017 48.3973 76.2764 44.47 78.2257 41.202C80.175 37.934 82.841 35.44 86.2237 33.72C89.6064 32 93.419 31.14 97.6617 31.14C101.904 31.14 105.717 32 109.1 33.72C112.482 35.44 115.148 37.934 117.098 41.202C119.047 44.47 120.022 48.3973 120.022 52.984V54.36C120.022 58.9467 119.047 62.874 117.098 66.142C115.148 69.41 112.482 71.904 109.1 73.624C105.717 75.344 101.904 76.204 97.6617 76.204ZM97.6617 66.572C100.987 66.572 103.739 65.5113 105.918 63.39C108.096 61.2113 109.186 58.1153 109.186 54.102V53.242C109.186 49.2287 108.096 46.1613 105.918 44.04C103.796 41.8613 101.044 40.772 97.6617 40.772C94.3364 40.772 91.5844 41.8613 89.4057 44.04C87.227 46.1613 86.1377 49.2287 86.1377 53.242V54.102C86.1377 58.1153 87.227 61.2113 89.4057 63.39C91.5844 65.5113 94.3364 66.572 97.6617 66.572ZM130.024 75V32.344H140.688V37.934H142.236C142.924 36.4433 144.214 35.0387 146.106 33.72C147.998 32.344 150.865 31.656 154.706 31.656C158.031 31.656 160.927 32.43 163.392 33.978C165.915 35.4687 167.864 37.5613 169.24 40.256C170.616 42.8933 171.304 45.9893 171.304 49.544V75H160.468V50.404C160.468 47.1933 159.665 44.7853 158.06 43.18C156.512 41.5747 154.276 40.772 151.352 40.772C148.027 40.772 145.447 41.89 143.612 44.126C141.777 46.3047 140.86 49.372 140.86 53.328V75H130.024ZM198.182 75C195.373 75 193.08 74.14 191.302 72.42C189.582 70.6427 188.722 68.292 188.722 65.368V41.288H178.058V32.344H188.722V19.1H199.558V32.344H211.254V41.288H199.558V63.476C199.558 65.196 200.361 66.056 201.966 66.056H210.222V75H198.182ZM234.307 76.204C231.268 76.204 228.545 75.688 226.137 74.656C223.729 73.5667 221.808 72.0187 220.375 70.012C218.999 67.948 218.311 65.454 218.311 62.53C218.311 59.606 218.999 57.1693 220.375 55.22C221.808 53.2133 223.758 51.7227 226.223 50.748C228.746 49.716 231.612 49.2 234.823 49.2H246.519V46.792C246.519 44.7853 245.888 43.1513 244.627 41.89C243.366 40.5713 241.359 39.912 238.607 39.912C235.912 39.912 233.906 40.5427 232.587 41.804C231.268 43.008 230.408 44.5847 230.007 46.534L220.031 43.18C220.719 41.0013 221.808 39.0233 223.299 37.246C224.847 35.4113 226.882 33.9493 229.405 32.86C231.985 31.7133 235.11 31.14 238.779 31.14C244.398 31.14 248.841 32.5447 252.109 35.354C255.377 38.1633 257.011 42.234 257.011 47.566V63.476C257.011 65.196 257.814 66.056 259.419 66.056H262.859V75H255.635C253.514 75 251.765 74.484 250.389 73.452C249.013 72.42 248.325 71.044 248.325 69.324V69.238H246.691C246.462 69.926 245.946 70.8433 245.143 71.99C244.34 73.0793 243.079 74.054 241.359 74.914C239.639 75.774 237.288 76.204 234.307 76.204ZM236.199 67.432C239.238 67.432 241.703 66.6007 243.595 64.938C245.544 63.218 246.519 60.9533 246.519 58.144V57.284H235.597C233.59 57.284 232.014 57.714 230.867 58.574C229.72 59.434 229.147 60.638 229.147 62.186C229.147 63.734 229.749 64.9953 230.953 65.97C232.157 66.9447 233.906 67.432 236.199 67.432ZM289.98 76.204C285.852 76.204 282.097 75.344 278.714 73.624C275.389 71.904 272.751 69.41 270.802 66.142C268.853 62.874 267.878 58.918 267.878 54.274V53.07C267.878 48.426 268.853 44.47 270.802 41.202C272.751 37.934 275.389 35.44 278.714 33.72C282.097 32 285.852 31.14 289.98 31.14C294.051 31.14 297.548 31.8567 300.472 33.29C303.396 34.7233 305.747 36.7013 307.524 39.224C309.359 41.6893 310.563 44.4987 311.136 47.652L300.644 49.888C300.415 48.168 299.899 46.62 299.096 45.244C298.293 43.868 297.147 42.7787 295.656 41.976C294.223 41.1733 292.417 40.772 290.238 40.772C288.059 40.772 286.081 41.2593 284.304 42.234C282.584 43.1513 281.208 44.556 280.176 46.448C279.201 48.2827 278.714 50.5473 278.714 53.242V54.102C278.714 56.7967 279.201 59.09 280.176 60.982C281.208 62.8167 282.584 64.2213 284.304 65.196C286.081 66.1133 288.059 66.572 290.238 66.572C293.506 66.572 295.971 65.7407 297.634 64.078C299.354 62.358 300.443 60.122 300.902 57.37L311.394 59.864C310.649 62.9027 309.359 65.6833 307.524 68.206C305.747 70.6713 303.396 72.6207 300.472 74.054C297.548 75.4873 294.051 76.204 289.98 76.204ZM335.245 75C332.435 75 330.142 74.14 328.365 72.42C326.645 70.6427 325.785 68.292 325.785 65.368V41.288H315.121V32.344H325.785V19.1H336.621V32.344H348.317V41.288H336.621V63.476C336.621 65.196 337.423 66.056 339.029 66.056H347.285V75H335.245ZM371.369 76.204C368.331 76.204 365.607 75.688 363.199 74.656C360.791 73.5667 358.871 72.0187 357.437 70.012C356.061 67.948 355.373 65.454 355.373 62.53C355.373 59.606 356.061 57.1693 357.437 55.22C358.871 53.2133 360.82 51.7227 363.285 50.748C365.808 49.716 368.675 49.2 371.885 49.2H383.581V46.792C383.581 44.7853 382.951 43.1513 381.689 41.89C380.428 40.5713 378.421 39.912 375.669 39.912C372.975 39.912 370.968 40.5427 369.649 41.804C368.331 43.008 367.471 44.5847 367.069 46.534L357.093 43.18C357.781 41.0013 358.871 39.0233 360.361 37.246C361.909 35.4113 363.945 33.9493 366.467 32.86C369.047 31.7133 372.172 31.14 375.841 31.14C381.46 31.14 385.903 32.5447 389.171 35.354C392.439 38.1633 394.073 42.234 394.073 47.566V63.476C394.073 65.196 394.876 66.056 396.481 66.056H399.921V75H392.697C390.576 75 388.827 74.484 387.451 73.452C386.075 72.42 385.387 71.044 385.387 69.324V69.238H383.753C383.524 69.926 383.008 70.8433 382.205 71.99C381.403 73.0793 380.141 74.054 378.421 74.914C376.701 75.774 374.351 76.204 371.369 76.204ZM373.261 67.432C376.3 67.432 378.765 66.6007 380.657 64.938C382.607 63.218 383.581 60.9533 383.581 58.144V57.284H372.659C370.653 57.284 369.076 57.714 367.929 58.574C366.783 59.434 366.209 60.638 366.209 62.186C366.209 63.734 366.811 64.9953 368.015 65.97C369.219 66.9447 370.968 67.432 373.261 67.432ZM407.844 75V32.344H418.508V37.934H420.056C420.744 36.4433 422.034 35.0387 423.926 33.72C425.818 32.344 428.685 31.656 432.526 31.656C435.852 31.656 438.747 32.43 441.212 33.978C443.735 35.4687 445.684 37.5613 447.06 40.256C448.436 42.8933 449.124 45.9893 449.124 49.544V75H438.288V50.404C438.288 47.1933 437.486 44.7853 435.88 43.18C434.332 41.5747 432.096 40.772 429.172 40.772C425.847 40.772 423.267 41.89 421.432 44.126C419.598 46.3047 418.68 49.372 418.68 53.328V75H407.844ZM481.134 76.204C476.892 76.204 473.079 75.344 469.696 73.624C466.314 71.904 463.648 69.41 461.698 66.142C459.749 62.874 458.774 58.9467 458.774 54.36V52.984C458.774 48.3973 459.749 44.47 461.698 41.202C463.648 37.934 466.314 35.44 469.696 33.72C473.079 32 476.892 31.14 481.134 31.14C485.377 31.14 489.19 32 492.572 33.72C495.955 35.44 498.621 37.934 500.57 41.202C502.52 44.47 503.494 48.3973 503.494 52.984V54.36C503.494 58.9467 502.52 62.874 500.57 66.142C498.621 69.41 495.955 71.904 492.572 73.624C489.19 75.344 485.377 76.204 481.134 76.204ZM481.134 66.572C484.46 66.572 487.212 65.5113 489.39 63.39C491.569 61.2113 492.658 58.1153 492.658 54.102V53.242C492.658 49.2287 491.569 46.1613 489.39 44.04C487.269 41.8613 484.517 40.772 481.134 40.772C477.809 40.772 475.057 41.8613 472.878 44.04C470.7 46.1613 469.61 49.2287 469.61 53.242V54.102C469.61 58.1153 470.7 61.2113 472.878 63.39C475.057 65.5113 477.809 66.572 481.134 66.572ZM531.213 76.204C525.651 76.204 521.093 75 517.539 72.592C513.984 70.184 511.834 66.744 511.089 62.272L521.065 59.692C521.466 61.6987 522.125 63.2753 523.043 64.422C524.017 65.5687 525.193 66.4 526.569 66.916C528.002 67.3747 529.55 67.604 531.213 67.604C533.735 67.604 535.599 67.174 536.803 66.314C538.007 65.3967 538.609 64.2787 538.609 62.96C538.609 61.6413 538.035 60.638 536.889 59.95C535.742 59.2047 533.907 58.6027 531.385 58.144L528.977 57.714C525.995 57.1407 523.272 56.3667 520.807 55.392C518.341 54.36 516.363 52.9553 514.873 51.178C513.382 49.4007 512.637 47.1073 512.637 44.298C512.637 40.0553 514.185 36.816 517.281 34.58C520.377 32.2867 524.447 31.14 529.493 31.14C534.251 31.14 538.207 32.2007 541.361 34.322C544.514 36.4433 546.578 39.224 547.553 42.664L537.491 45.76C537.032 43.5813 536.086 42.0333 534.653 41.116C533.277 40.1987 531.557 39.74 529.493 39.74C527.429 39.74 525.852 40.1127 524.763 40.858C523.673 41.546 523.129 42.5207 523.129 43.782C523.129 45.158 523.702 46.19 524.849 46.878C525.995 47.5087 527.543 47.996 529.493 48.34L531.901 48.77C535.111 49.3433 538.007 50.1173 540.587 51.092C543.224 52.0093 545.288 53.3567 546.779 55.134C548.327 56.854 549.101 59.2047 549.101 62.186C549.101 66.658 547.467 70.1267 544.199 72.592C540.988 75 536.659 76.204 531.213 76.204Z" fill="#051118"/>
</g>
</svg>
