<svg width="573" height="95" viewBox="0 0 573 95" fill="none" xmlns="http://www.w3.org/2000/svg">
<path d="M29.568 84.344C24.96 84.344 20.768 83.32 16.992 81.272C13.28 79.16 10.304 76.12 8.064 72.152C5.888 68.12 4.8 63.224 4.8 57.464V41.336C4.8 32.696 7.232 26.072 12.096 21.464C16.96 16.792 23.552 14.456 31.872 14.456C40.128 14.456 46.496 16.664 50.976 21.08C55.52 25.432 57.792 31.352 57.792 38.84V39.224H45.312V38.456C45.312 36.088 44.8 33.944 43.776 32.024C42.816 30.104 41.344 28.6 39.36 27.512C37.376 26.36 34.88 25.784 31.872 25.784C27.392 25.784 23.872 27.16 21.312 29.912C18.752 32.664 17.472 36.408 17.472 41.144V57.656C17.472 62.328 18.752 66.104 21.312 68.984C23.872 71.8 27.456 73.208 32.064 73.208C36.672 73.208 40.032 71.992 42.144 69.56C44.256 67.128 45.312 64.056 45.312 60.344V59.384H29.376V48.632H57.792V83H46.08V76.568H44.352C43.904 77.656 43.168 78.808 42.144 80.024C41.184 81.24 39.712 82.264 37.728 83.096C35.744 83.928 33.024 84.344 29.568 84.344ZM91.9785 84.344C87.2425 84.344 83.0505 83.352 79.4025 81.368C75.8185 79.32 73.0025 76.472 70.9545 72.824C68.9705 69.112 67.9785 64.76 67.9785 59.768V58.616C67.9785 53.624 68.9705 49.304 70.9545 45.656C72.9385 41.944 75.7225 39.096 79.3065 37.112C82.8905 35.064 87.0505 34.04 91.7865 34.04C96.4585 34.04 100.523 35.096 103.979 37.208C107.435 39.256 110.123 42.136 112.042 45.848C113.963 49.496 114.923 53.752 114.923 58.616V62.744H80.2665C80.3945 66.008 81.6105 68.664 83.9145 70.712C86.2185 72.76 89.0345 73.784 92.3625 73.784C95.7545 73.784 98.2505 73.048 99.8505 71.576C101.451 70.104 102.667 68.472 103.499 66.68L113.387 71.864C112.491 73.528 111.179 75.352 109.451 77.336C107.787 79.256 105.547 80.92 102.731 82.328C99.9145 83.672 96.3305 84.344 91.9785 84.344ZM80.3625 53.72H102.635C102.379 50.968 101.259 48.76 99.2745 47.096C97.3545 45.432 94.8265 44.6 91.6905 44.6C88.4265 44.6 85.8345 45.432 83.9145 47.096C81.9945 48.76 80.8105 50.968 80.3625 53.72ZM142.335 83C139.199 83 136.639 82.04 134.655 80.12C132.735 78.136 131.775 75.512 131.775 72.248V45.368H119.871V35.384H131.775V20.6H143.871V35.384H156.927V45.368H143.871V70.136C143.871 72.056 144.767 73.016 146.559 73.016H155.775V83H142.335ZM192.251 83V35.384H204.347V83H192.251ZM198.299 29.816C196.123 29.816 194.267 29.112 192.731 27.704C191.259 26.296 190.523 24.44 190.523 22.136C190.523 19.832 191.259 17.976 192.731 16.568C194.267 15.16 196.123 14.456 198.299 14.456C200.539 14.456 202.395 15.16 203.867 16.568C205.339 17.976 206.075 19.832 206.075 22.136C206.075 24.44 205.339 26.296 203.867 27.704C202.395 29.112 200.539 29.816 198.299 29.816ZM217.751 83V35.384H229.655V41.624H231.383C232.151 39.96 233.591 38.392 235.703 36.92C237.815 35.384 241.015 34.616 245.303 34.616C249.015 34.616 252.247 35.48 254.999 37.208C257.815 38.872 259.991 41.208 261.527 44.216C263.063 47.16 263.831 50.616 263.831 54.584V83H251.735V55.544C251.735 51.96 250.839 49.272 249.047 47.48C247.319 45.688 244.823 44.792 241.559 44.792C237.847 44.792 234.967 46.04 232.919 48.536C230.871 50.968 229.847 54.392 229.847 58.808V83H217.751ZM319.523 83C316.387 83 313.827 82.04 311.843 80.12C309.923 78.136 308.963 75.512 308.963 72.248V45.368H297.059V35.384H308.963V20.6H321.059V35.384H334.115V45.368H321.059V70.136C321.059 72.056 321.955 73.016 323.747 73.016H332.963V83H319.523ZM366.032 84.344C361.296 84.344 357.04 83.384 353.264 81.464C349.488 79.544 346.512 76.76 344.336 73.112C342.16 69.464 341.072 65.08 341.072 59.96V58.424C341.072 53.304 342.16 48.92 344.336 45.272C346.512 41.624 349.488 38.84 353.264 36.92C357.04 35 361.296 34.04 366.032 34.04C370.768 34.04 375.024 35 378.8 36.92C382.576 38.84 385.552 41.624 387.728 45.272C389.904 48.92 390.992 53.304 390.992 58.424V59.96C390.992 65.08 389.904 69.464 387.728 73.112C385.552 76.76 382.576 79.544 378.8 81.464C375.024 83.384 370.768 84.344 366.032 84.344ZM366.032 73.592C369.744 73.592 372.816 72.408 375.248 70.04C377.68 67.608 378.896 64.152 378.896 59.672V58.712C378.896 54.232 377.68 50.808 375.248 48.44C372.88 46.008 369.808 44.792 366.032 44.792C362.32 44.792 359.248 46.008 356.816 48.44C354.384 50.808 353.168 54.232 353.168 58.712V59.672C353.168 64.152 354.384 67.608 356.816 70.04C359.248 72.408 362.32 73.592 366.032 73.592ZM420.302 83.768C416.59 83.768 413.326 82.936 410.51 81.272C407.758 79.544 405.614 77.176 404.078 74.168C402.542 71.16 401.773 67.704 401.773 63.8V35.384H413.87V62.84C413.87 66.424 414.734 69.112 416.462 70.904C418.254 72.696 420.782 73.592 424.046 73.592C427.758 73.592 430.638 72.376 432.686 69.944C434.734 67.448 435.758 63.992 435.758 59.576V35.384H447.854V83H435.95V76.76H434.222C433.454 78.36 432.014 79.928 429.902 81.464C427.79 83 424.59 83.768 420.302 83.768ZM483.682 84.344C479.074 84.344 474.882 83.384 471.106 81.464C467.394 79.544 464.45 76.76 462.274 73.112C460.098 69.464 459.01 65.048 459.01 59.864V58.52C459.01 53.336 460.098 48.92 462.274 45.272C464.45 41.624 467.394 38.84 471.106 36.92C474.882 35 479.074 34.04 483.682 34.04C488.226 34.04 492.13 34.84 495.394 36.44C498.658 38.04 501.282 40.248 503.266 43.064C505.314 45.816 506.658 48.952 507.298 52.472L495.586 54.968C495.33 53.048 494.754 51.32 493.858 49.784C492.962 48.248 491.682 47.032 490.018 46.136C488.418 45.24 486.402 44.792 483.97 44.792C481.538 44.792 479.33 45.336 477.346 46.424C475.426 47.448 473.89 49.016 472.738 51.128C471.65 53.176 471.106 55.704 471.106 58.712V59.672C471.106 62.68 471.65 65.24 472.738 67.352C473.89 69.4 475.426 70.968 477.346 72.056C479.33 73.08 481.538 73.592 483.97 73.592C487.618 73.592 490.37 72.664 492.226 70.808C494.146 68.888 495.362 66.392 495.874 63.32L507.586 66.104C506.754 69.496 505.314 72.6 503.266 75.416C501.282 78.168 498.658 80.344 495.394 81.944C492.13 83.544 488.226 84.344 483.682 84.344ZM517.564 83V15.8H529.66V41.24H531.388C531.9 40.216 532.7 39.192 533.788 38.168C534.876 37.144 536.316 36.312 538.108 35.672C539.964 34.968 542.3 34.616 545.116 34.616C548.828 34.616 552.06 35.48 554.812 37.208C557.628 38.872 559.804 41.208 561.34 44.216C562.876 47.16 563.644 50.616 563.644 54.584V83H551.548V55.544C551.548 51.96 550.652 49.272 548.86 47.48C547.132 45.688 544.636 44.792 541.372 44.792C537.66 44.792 534.78 46.04 532.732 48.536C530.684 50.968 529.66 54.392 529.66 58.808V83H517.564Z" fill="#051118"/>
</svg>
