<svg width="417" height="239" viewBox="0 0 417 239" fill="none" xmlns="http://www.w3.org/2000/svg">
<path d="M29.8268 84.344C25.2188 84.344 21.0268 83.32 17.2508 81.272C13.5388 79.16 10.5628 76.12 8.32279 72.152C6.14679 68.12 5.05879 63.224 5.05879 57.464V41.336C5.05879 32.696 7.49079 26.072 12.3548 21.464C17.2188 16.792 23.8108 14.456 32.1308 14.456C40.3868 14.456 46.7548 16.664 51.2348 21.08C55.7788 25.432 58.0508 31.352 58.0508 38.84V39.224H45.5708V38.456C45.5708 36.088 45.0588 33.944 44.0348 32.024C43.0748 30.104 41.6028 28.6 39.6188 27.512C37.6348 26.36 35.1388 25.784 32.1308 25.784C27.6508 25.784 24.1308 27.16 21.5708 29.912C19.0108 32.664 17.7308 36.408 17.7308 41.144V57.656C17.7308 62.328 19.0108 66.104 21.5708 68.984C24.1308 71.8 27.7148 73.208 32.3228 73.208C36.9308 73.208 40.2908 71.992 42.4028 69.56C44.5148 67.128 45.5708 64.056 45.5708 60.344V59.384H29.6348V48.632H58.0508V83H46.3388V76.568H44.6108C44.1628 77.656 43.4268 78.808 42.4028 80.024C41.4428 81.24 39.9708 82.264 37.9868 83.096C36.0028 83.928 33.2828 84.344 29.8268 84.344ZM92.2373 84.344C87.5013 84.344 83.3093 83.352 79.6613 81.368C76.0773 79.32 73.2613 76.472 71.2133 72.824C69.2293 69.112 68.2373 64.76 68.2373 59.768V58.616C68.2373 53.624 69.2293 49.304 71.2133 45.656C73.1973 41.944 75.9813 39.096 79.5653 37.112C83.1493 35.064 87.3093 34.04 92.0453 34.04C96.7173 34.04 100.781 35.096 104.237 37.208C107.693 39.256 110.381 42.136 112.301 45.848C114.221 49.496 115.181 53.752 115.181 58.616V62.744H80.5253C80.6533 66.008 81.8693 68.664 84.1733 70.712C86.4773 72.76 89.2933 73.784 92.6213 73.784C96.0133 73.784 98.5093 73.048 100.109 71.576C101.709 70.104 102.925 68.472 103.757 66.68L113.645 71.864C112.749 73.528 111.437 75.352 109.709 77.336C108.045 79.256 105.805 80.92 102.989 82.328C100.173 83.672 96.5893 84.344 92.2373 84.344ZM80.6213 53.72H102.893C102.637 50.968 101.517 48.76 99.5333 47.096C97.6133 45.432 95.0853 44.6 91.9493 44.6C88.6853 44.6 86.0933 45.432 84.1733 47.096C82.2533 48.76 81.0693 50.968 80.6213 53.72ZM142.594 83C139.458 83 136.898 82.04 134.914 80.12C132.994 78.136 132.034 75.512 132.034 72.248V45.368H120.13V35.384H132.034V20.6H144.13V35.384H157.186V45.368H144.13V70.136C144.13 72.056 145.026 73.016 146.818 73.016H156.034V83H142.594ZM6.97879 183V135.384H19.0748V183H6.97879ZM13.0268 129.816C10.8508 129.816 8.99479 129.112 7.45879 127.704C5.98679 126.296 5.25079 124.44 5.25079 122.136C5.25079 119.832 5.98679 117.976 7.45879 116.568C8.99479 115.16 10.8508 114.456 13.0268 114.456C15.2668 114.456 17.1228 115.16 18.5948 116.568C20.0668 117.976 20.8028 119.832 20.8028 122.136C20.8028 124.44 20.0668 126.296 18.5948 127.704C17.1228 129.112 15.2668 129.816 13.0268 129.816ZM32.4788 183V135.384H44.3828V141.624H46.1108C46.8788 139.96 48.3188 138.392 50.4308 136.92C52.5428 135.384 55.7428 134.616 60.0308 134.616C63.7428 134.616 66.9748 135.48 69.7268 137.208C72.5428 138.872 74.7188 141.208 76.2548 144.216C77.7908 147.16 78.5588 150.616 78.5588 154.584V183H66.4628V155.544C66.4628 151.96 65.5668 149.272 63.7748 147.48C62.0468 145.688 59.5508 144.792 56.2868 144.792C52.5748 144.792 49.6948 146.04 47.6468 148.536C45.5988 150.968 44.5748 154.392 44.5748 158.808V183H32.4788ZM134.25 183C131.114 183 128.554 182.04 126.57 180.12C124.65 178.136 123.69 175.512 123.69 172.248V145.368H111.786V135.384H123.69V120.6H135.786V135.384H148.842V145.368H135.786V170.136C135.786 172.056 136.682 173.016 138.474 173.016H147.69V183H134.25ZM180.76 184.344C176.024 184.344 171.768 183.384 167.992 181.464C164.216 179.544 161.24 176.76 159.064 173.112C156.888 169.464 155.8 165.08 155.8 159.96V158.424C155.8 153.304 156.888 148.92 159.064 145.272C161.24 141.624 164.216 138.84 167.992 136.92C171.768 135 176.024 134.04 180.76 134.04C185.496 134.04 189.752 135 193.528 136.92C197.304 138.84 200.28 141.624 202.456 145.272C204.632 148.92 205.72 153.304 205.72 158.424V159.96C205.72 165.08 204.632 169.464 202.456 173.112C200.28 176.76 197.304 179.544 193.528 181.464C189.752 183.384 185.496 184.344 180.76 184.344ZM180.76 173.592C184.472 173.592 187.544 172.408 189.976 170.04C192.408 167.608 193.624 164.152 193.624 159.672V158.712C193.624 154.232 192.408 150.808 189.976 148.44C187.608 146.008 184.536 144.792 180.76 144.792C177.048 144.792 173.976 146.008 171.544 148.44C169.112 150.808 167.896 154.232 167.896 158.712V159.672C167.896 164.152 169.112 167.608 171.544 170.04C173.976 172.408 177.048 173.592 180.76 173.592ZM235.029 183.768C231.317 183.768 228.053 182.936 225.237 181.272C222.485 179.544 220.341 177.176 218.805 174.168C217.269 171.16 216.501 167.704 216.501 163.8V135.384H228.597V162.84C228.597 166.424 229.461 169.112 231.189 170.904C232.981 172.696 235.509 173.592 238.773 173.592C242.485 173.592 245.365 172.376 247.413 169.944C249.461 167.448 250.485 163.992 250.485 159.576V135.384H262.581V183H250.677V176.76H248.949C248.181 178.36 246.741 179.928 244.629 181.464C242.517 183 239.317 183.768 235.029 183.768ZM298.409 184.344C293.801 184.344 289.609 183.384 285.833 181.464C282.121 179.544 279.177 176.76 277.001 173.112C274.825 169.464 273.737 165.048 273.737 159.864V158.52C273.737 153.336 274.825 148.92 277.001 145.272C279.177 141.624 282.121 138.84 285.833 136.92C289.609 135 293.801 134.04 298.409 134.04C302.953 134.04 306.857 134.84 310.121 136.44C313.385 138.04 316.009 140.248 317.993 143.064C320.041 145.816 321.385 148.952 322.025 152.472L310.313 154.968C310.057 153.048 309.481 151.32 308.585 149.784C307.689 148.248 306.409 147.032 304.745 146.136C303.145 145.24 301.129 144.792 298.697 144.792C296.265 144.792 294.057 145.336 292.073 146.424C290.153 147.448 288.617 149.016 287.465 151.128C286.377 153.176 285.833 155.704 285.833 158.712V159.672C285.833 162.68 286.377 165.24 287.465 167.352C288.617 169.4 290.153 170.968 292.073 172.056C294.057 173.08 296.265 173.592 298.697 173.592C302.345 173.592 305.097 172.664 306.953 170.808C308.873 168.888 310.089 166.392 310.601 163.32L322.313 166.104C321.481 169.496 320.041 172.6 317.993 175.416C316.009 178.168 313.385 180.344 310.121 181.944C306.857 183.544 302.953 184.344 298.409 184.344ZM332.291 183V115.8H344.387V141.24H346.115C346.627 140.216 347.427 139.192 348.515 138.168C349.603 137.144 351.043 136.312 352.835 135.672C354.691 134.968 357.027 134.616 359.843 134.616C363.555 134.616 366.787 135.48 369.539 137.208C372.355 138.872 374.531 141.208 376.067 144.216C377.603 147.16 378.371 150.616 378.371 154.584V183H366.275V155.544C366.275 151.96 365.379 149.272 363.587 147.48C361.859 145.688 359.363 144.792 356.099 144.792C352.387 144.792 349.507 146.04 347.459 148.536C345.411 150.968 344.387 154.392 344.387 158.808V183H332.291Z" fill="#051118"/>
</svg>
