<svg width="483" height="248" viewBox="0 0 483 248" fill="none" xmlns="http://www.w3.org/2000/svg">
<path d="M49.09 188V201.077L95.9711 209.795V213.896L86.7379 210.82H6V225.185H86.7379L95.9711 222.104V226.21L49.09 234.928V248L100.078 238.52V197.486L49.09 188Z" fill="#051118"/>
<path d="M4.752 65V14.6H22.392L31.104 58.52H32.4L41.112 14.6H58.752V65H49.536V21.584H48.24L39.6 65H23.904L15.264 21.584H13.968V65H4.752ZM79.6202 66.008C77.0762 66.008 74.7962 65.576 72.7802 64.712C70.7642 63.8 69.1562 62.504 67.9562 60.824C66.8042 59.096 66.2282 57.008 66.2282 54.56C66.2282 52.112 66.8042 50.072 67.9562 48.44C69.1562 46.76 70.7882 45.512 72.8522 44.696C74.9642 43.832 77.3642 43.4 80.0522 43.4H89.8442V41.384C89.8442 39.704 89.3162 38.336 88.2602 37.28C87.2042 36.176 85.5242 35.624 83.2202 35.624C80.9642 35.624 79.2842 36.152 78.1802 37.208C77.0762 38.216 76.3562 39.536 76.0202 41.168L67.6682 38.36C68.2442 36.536 69.1562 34.88 70.4042 33.392C71.7002 31.856 73.4042 30.632 75.5162 29.72C77.6762 28.76 80.2922 28.28 83.3642 28.28C88.0682 28.28 91.7882 29.456 94.5242 31.808C97.2602 34.16 98.6282 37.568 98.6282 42.032V55.352C98.6282 56.792 99.3002 57.512 100.644 57.512H103.524V65H97.4762C95.7002 65 94.2362 64.568 93.0842 63.704C91.9322 62.84 91.3562 61.688 91.3562 60.248V60.176H89.9882C89.7962 60.752 89.3642 61.52 88.6922 62.48C88.0202 63.392 86.9642 64.208 85.5242 64.928C84.0842 65.648 82.1162 66.008 79.6202 66.008ZM81.2042 58.664C83.7482 58.664 85.8122 57.968 87.3962 56.576C89.0282 55.136 89.8442 53.24 89.8442 50.888V50.168H80.7002C79.0202 50.168 77.7002 50.528 76.7402 51.248C75.7802 51.968 75.3002 52.976 75.3002 54.272C75.3002 55.568 75.8042 56.624 76.8122 57.44C77.8202 58.256 79.2842 58.664 81.2042 58.664ZM110.157 65V29.288H119.229V65H110.157ZM114.693 25.112C113.061 25.112 111.669 24.584 110.517 23.528C109.413 22.472 108.861 21.08 108.861 19.352C108.861 17.624 109.413 16.232 110.517 15.176C111.669 14.12 113.061 13.592 114.693 13.592C116.373 13.592 117.765 14.12 118.869 15.176C119.973 16.232 120.525 17.624 120.525 19.352C120.525 21.08 119.973 22.472 118.869 23.528C117.765 24.584 116.373 25.112 114.693 25.112ZM129.282 65V29.288H138.21V33.968H139.506C140.082 32.72 141.162 31.544 142.746 30.44C144.33 29.288 146.73 28.712 149.946 28.712C152.73 28.712 155.154 29.36 157.218 30.656C159.33 31.904 160.962 33.656 162.114 35.912C163.266 38.12 163.842 40.712 163.842 43.688V65H154.77V44.408C154.77 41.72 154.098 39.704 152.754 38.36C151.458 37.016 149.586 36.344 147.138 36.344C144.354 36.344 142.194 37.28 140.658 39.152C139.122 40.976 138.354 43.544 138.354 46.856V65H129.282ZM16.416 145V103.24H1.728V94.6H40.608V103.24H25.92V145H16.416ZM47.3681 145V94.6H56.4401V113.68H57.7361C58.1201 112.912 58.7201 112.144 59.5361 111.376C60.3521 110.608 61.4321 109.984 62.7761 109.504C64.1681 108.976 65.9201 108.712 68.0321 108.712C70.8161 108.712 73.2401 109.36 75.3041 110.656C77.4161 111.904 79.0481 113.656 80.2001 115.912C81.3521 118.12 81.9281 120.712 81.9281 123.688V145H72.8561V124.408C72.8561 121.72 72.1841 119.704 70.8401 118.36C69.5441 117.016 67.6721 116.344 65.2241 116.344C62.4401 116.344 60.2801 117.28 58.7441 119.152C57.2081 120.976 56.4401 123.544 56.4401 126.856V145H47.3681ZM108.007 146.008C104.455 146.008 101.311 145.264 98.5753 143.776C95.8873 142.24 93.7753 140.104 92.2393 137.368C90.7513 134.584 90.0073 131.32 90.0073 127.576V126.712C90.0073 122.968 90.7513 119.728 92.2393 116.992C93.7273 114.208 95.8153 112.072 98.5033 110.584C101.191 109.048 104.311 108.28 107.863 108.28C111.367 108.28 114.415 109.072 117.007 110.656C119.599 112.192 121.615 114.352 123.055 117.136C124.495 119.872 125.215 123.064 125.215 126.712V129.808H99.2233C99.3193 132.256 100.231 134.248 101.959 135.784C103.687 137.32 105.799 138.088 108.295 138.088C110.839 138.088 112.711 137.536 113.911 136.432C115.111 135.328 116.023 134.104 116.647 132.76L124.063 136.648C123.391 137.896 122.407 139.264 121.111 140.752C119.863 142.192 118.183 143.44 116.071 144.496C113.959 145.504 111.271 146.008 108.007 146.008ZM99.2953 123.04H115.999C115.807 120.976 114.967 119.32 113.479 118.072C112.039 116.824 110.143 116.2 107.791 116.2C105.343 116.2 103.399 116.824 101.959 118.072C100.519 119.32 99.6313 120.976 99.2953 123.04ZM133.29 145V109.288H142.218V113.176H143.514C144.138 111.976 145.17 110.944 146.61 110.08C148.05 109.168 149.946 108.712 152.298 108.712C154.842 108.712 156.882 109.216 158.418 110.224C159.954 111.184 161.13 112.456 161.946 114.04H163.242C164.058 112.504 165.21 111.232 166.698 110.224C168.186 109.216 170.298 108.712 173.034 108.712C175.242 108.712 177.234 109.192 179.01 110.152C180.834 111.064 182.274 112.48 183.33 114.4C184.434 116.272 184.986 118.648 184.986 121.528V145H175.914V122.176C175.914 120.208 175.41 118.744 174.402 117.784C173.394 116.776 171.978 116.272 170.154 116.272C168.09 116.272 166.482 116.944 165.33 118.288C164.226 119.584 163.674 121.456 163.674 123.904V145H154.602V122.176C154.602 120.208 154.098 118.744 153.09 117.784C152.082 116.776 150.666 116.272 148.842 116.272C146.778 116.272 145.17 116.944 144.018 118.288C142.914 119.584 142.362 121.456 142.362 123.904V145H133.29ZM211.015 146.008C207.463 146.008 204.319 145.264 201.583 143.776C198.895 142.24 196.783 140.104 195.247 137.368C193.759 134.584 193.015 131.32 193.015 127.576V126.712C193.015 122.968 193.759 119.728 195.247 116.992C196.735 114.208 198.823 112.072 201.511 110.584C204.199 109.048 207.319 108.28 210.871 108.28C214.375 108.28 217.423 109.072 220.015 110.656C222.607 112.192 224.623 114.352 226.063 117.136C227.503 119.872 228.223 123.064 228.223 126.712V129.808H202.231C202.327 132.256 203.239 134.248 204.967 135.784C206.695 137.32 208.807 138.088 211.303 138.088C213.847 138.088 215.719 137.536 216.919 136.432C218.119 135.328 219.031 134.104 219.655 132.76L227.071 136.648C226.399 137.896 225.415 139.264 224.119 140.752C222.871 142.192 221.191 143.44 219.079 144.496C216.967 145.504 214.279 146.008 211.015 146.008ZM202.303 123.04H219.007C218.815 120.976 217.975 119.32 216.487 118.072C215.047 116.824 213.151 116.2 210.799 116.2C208.351 116.2 206.407 116.824 204.967 118.072C203.527 119.32 202.639 120.976 202.303 123.04ZM251.13 146.008C246.474 146.008 242.658 145 239.682 142.984C236.706 140.968 234.906 138.088 234.282 134.344L242.634 132.184C242.97 133.864 243.522 135.184 244.29 136.144C245.106 137.104 246.09 137.8 247.242 138.232C248.442 138.616 249.738 138.808 251.13 138.808C253.242 138.808 254.802 138.448 255.81 137.728C256.818 136.96 257.322 136.024 257.322 134.92C257.322 133.816 256.842 132.976 255.882 132.4C254.922 131.776 253.386 131.272 251.274 130.888L249.258 130.528C246.762 130.048 244.482 129.4 242.418 128.584C240.354 127.72 238.698 126.544 237.45 125.056C236.202 123.568 235.578 121.648 235.578 119.296C235.578 115.744 236.874 113.032 239.466 111.16C242.058 109.24 245.466 108.28 249.69 108.28C253.674 108.28 256.986 109.168 259.626 110.944C262.266 112.72 263.994 115.048 264.81 117.928L256.386 120.52C256.002 118.696 255.21 117.4 254.01 116.632C252.858 115.864 251.418 115.48 249.69 115.48C247.962 115.48 246.642 115.792 245.73 116.416C244.818 116.992 244.362 117.808 244.362 118.864C244.362 120.016 244.842 120.88 245.802 121.456C246.762 121.984 248.058 122.392 249.69 122.68L251.706 123.04C254.394 123.52 256.818 124.168 258.978 124.984C261.186 125.752 262.914 126.88 264.162 128.368C265.458 129.808 266.106 131.776 266.106 134.272C266.106 138.016 264.738 140.92 262.002 142.984C259.314 145 255.69 146.008 251.13 146.008Z" fill="#051118"/>
</svg>
