<svg width="338" height="177" viewBox="0 0 338 177" fill="none" xmlns="http://www.w3.org/2000/svg">
<path d="M49.09 117V130.077L95.9711 138.795V142.896L86.7379 139.82H6V154.185H86.7379L95.9711 151.104V155.21L49.09 163.928V177L100.078 167.52V126.486L49.09 117Z" fill="#051118"/>
<path d="M4.752 65V14.6H22.392L31.104 58.52H32.4L41.112 14.6H58.752V65H49.536V21.584H48.24L39.6 65H23.904L15.264 21.584H13.968V65H4.752ZM84.8042 66.008C81.2522 66.008 78.1082 65.264 75.3722 63.776C72.6842 62.24 70.5722 60.104 69.0362 57.368C67.5482 54.584 66.8042 51.32 66.8042 47.576V46.712C66.8042 42.968 67.5482 39.728 69.0362 36.992C70.5242 34.208 72.6122 32.072 75.3002 30.584C77.9882 29.048 81.1082 28.28 84.6602 28.28C88.1642 28.28 91.2122 29.072 93.8042 30.656C96.3962 32.192 98.4122 34.352 99.8522 37.136C101.292 39.872 102.012 43.064 102.012 46.712V49.808H76.0202C76.1162 52.256 77.0282 54.248 78.7562 55.784C80.4842 57.32 82.5962 58.088 85.0922 58.088C87.6362 58.088 89.5082 57.536 90.7082 56.432C91.9082 55.328 92.8202 54.104 93.4442 52.76L100.86 56.648C100.188 57.896 99.2042 59.264 97.9082 60.752C96.6602 62.192 94.9802 63.44 92.8682 64.496C90.7562 65.504 88.0682 66.008 84.8042 66.008ZM76.0922 43.04H92.7962C92.6042 40.976 91.7642 39.32 90.2762 38.072C88.8362 36.824 86.9402 36.2 84.5882 36.2C82.1402 36.2 80.1962 36.824 78.7562 38.072C77.3162 39.32 76.4282 40.976 76.0922 43.04ZM110.087 65V29.288H119.015V33.968H120.311C120.887 32.72 121.967 31.544 123.551 30.44C125.135 29.288 127.535 28.712 130.751 28.712C133.535 28.712 135.959 29.36 138.023 30.656C140.135 31.904 141.767 33.656 142.919 35.912C144.071 38.12 144.647 40.712 144.647 43.688V65H135.575V44.408C135.575 41.72 134.903 39.704 133.559 38.36C132.263 37.016 130.391 36.344 127.943 36.344C125.159 36.344 122.999 37.28 121.463 39.152C119.927 40.976 119.159 43.544 119.159 46.856V65H110.087ZM167.15 65C164.798 65 162.878 64.28 161.39 62.84C159.95 61.352 159.23 59.384 159.23 56.936V36.776H150.302V29.288H159.23V18.2H168.302V29.288H178.094V36.776H168.302V55.352C168.302 56.792 168.974 57.512 170.318 57.512H177.23V65H167.15ZM202.032 66.008C198.48 66.008 195.288 65.288 192.456 63.848C189.624 62.408 187.392 60.32 185.76 57.584C184.128 54.848 183.312 51.56 183.312 47.72V46.568C183.312 42.728 184.128 39.44 185.76 36.704C187.392 33.968 189.624 31.88 192.456 30.44C195.288 29 198.48 28.28 202.032 28.28C205.584 28.28 208.776 29 211.608 30.44C214.44 31.88 216.672 33.968 218.304 36.704C219.936 39.44 220.752 42.728 220.752 46.568V47.72C220.752 51.56 219.936 54.848 218.304 57.584C216.672 60.32 214.44 62.408 211.608 63.848C208.776 65.288 205.584 66.008 202.032 66.008ZM202.032 57.944C204.816 57.944 207.12 57.056 208.944 55.28C210.768 53.456 211.68 50.864 211.68 47.504V46.784C211.68 43.424 210.768 40.856 208.944 39.08C207.168 37.256 204.864 36.344 202.032 36.344C199.248 36.344 196.944 37.256 195.12 39.08C193.296 40.856 192.384 43.424 192.384 46.784V47.504C192.384 50.864 193.296 53.456 195.12 55.28C196.944 57.056 199.248 57.944 202.032 57.944ZM229.126 65V29.288H238.054V33.32H239.35C239.878 31.88 240.742 30.824 241.942 30.152C243.19 29.48 244.63 29.144 246.262 29.144H250.582V37.208H246.118C243.814 37.208 241.918 37.832 240.43 39.08C238.942 40.28 238.198 42.152 238.198 44.696V65H229.126ZM271.661 66.008C267.005 66.008 263.189 65 260.213 62.984C257.237 60.968 255.437 58.088 254.813 54.344L263.165 52.184C263.501 53.864 264.053 55.184 264.821 56.144C265.637 57.104 266.621 57.8 267.773 58.232C268.973 58.616 270.269 58.808 271.661 58.808C273.773 58.808 275.333 58.448 276.341 57.728C277.349 56.96 277.853 56.024 277.853 54.92C277.853 53.816 277.373 52.976 276.413 52.4C275.453 51.776 273.917 51.272 271.805 50.888L269.789 50.528C267.293 50.048 265.013 49.4 262.949 48.584C260.885 47.72 259.229 46.544 257.981 45.056C256.733 43.568 256.109 41.648 256.109 39.296C256.109 35.744 257.405 33.032 259.997 31.16C262.589 29.24 265.997 28.28 270.221 28.28C274.205 28.28 277.517 29.168 280.157 30.944C282.797 32.72 284.525 35.048 285.341 37.928L276.917 40.52C276.533 38.696 275.741 37.4 274.541 36.632C273.389 35.864 271.949 35.48 270.221 35.48C268.493 35.48 267.173 35.792 266.261 36.416C265.349 36.992 264.893 37.808 264.893 38.864C264.893 40.016 265.373 40.88 266.333 41.456C267.293 41.984 268.589 42.392 270.221 42.68L272.237 43.04C274.925 43.52 277.349 44.168 279.509 44.984C281.717 45.752 283.445 46.88 284.693 48.368C285.989 49.808 286.637 51.776 286.637 54.272C286.637 58.016 285.269 60.92 282.533 62.984C279.845 65 276.221 66.008 271.661 66.008Z" fill="#051118"/>
</svg>
