<svg width="402" height="177" viewBox="0 0 402 177" fill="none" xmlns="http://www.w3.org/2000/svg">
<path d="M49.09 117V130.077L95.9711 138.795V142.896L86.7379 139.82H6V154.185H86.7379L95.9711 151.104V155.21L49.09 163.928V177L100.078 167.52V126.486L49.09 117Z" fill="#051118"/>
<path d="M22.248 66.008C18.36 66.008 14.928 65.312 11.952 63.92C8.976 62.528 6.648 60.536 4.968 57.944C3.288 55.352 2.448 52.232 2.448 48.584V46.568H11.808V48.584C11.808 51.608 12.744 53.888 14.616 55.424C16.488 56.912 19.032 57.656 22.248 57.656C25.512 57.656 27.936 57.008 29.52 55.712C31.152 54.416 31.968 52.76 31.968 50.744C31.968 49.352 31.56 48.224 30.744 47.36C29.976 46.496 28.824 45.8 27.288 45.272C25.8 44.696 23.976 44.168 21.816 43.688L20.16 43.328C16.704 42.56 13.728 41.6 11.232 40.448C8.784 39.248 6.888 37.688 5.544 35.768C4.248 33.848 3.6 31.352 3.6 28.28C3.6 25.208 4.32 22.592 5.76 20.432C7.248 18.224 9.312 16.544 11.952 15.392C14.64 14.192 17.784 13.592 21.384 13.592C24.984 13.592 28.176 14.216 30.96 15.464C33.792 16.664 36 18.488 37.584 20.936C39.216 23.336 40.032 26.36 40.032 30.008V32.168H30.672V30.008C30.672 28.088 30.288 26.552 29.52 25.4C28.8 24.2 27.744 23.336 26.352 22.808C24.96 22.232 23.304 21.944 21.384 21.944C18.504 21.944 16.368 22.496 14.976 23.6C13.632 24.656 12.96 26.12 12.96 27.992C12.96 29.24 13.272 30.296 13.896 31.16C14.568 32.024 15.552 32.744 16.848 33.32C18.144 33.896 19.8 34.4 21.816 34.832L23.472 35.192C27.072 35.96 30.192 36.944 32.832 38.144C35.52 39.344 37.608 40.928 39.096 42.896C40.584 44.864 41.328 47.384 41.328 50.456C41.328 53.528 40.536 56.24 38.952 58.592C37.416 60.896 35.208 62.72 32.328 64.064C29.496 65.36 26.136 66.008 22.248 66.008ZM62.3121 65.576C59.5281 65.576 57.0801 64.952 54.9681 63.704C52.9041 62.408 51.2961 60.632 50.1441 58.376C48.9921 56.12 48.4161 53.528 48.4161 50.6V29.288H57.4881V49.88C57.4881 52.568 58.1361 54.584 59.4321 55.928C60.7761 57.272 62.6721 57.944 65.1201 57.944C67.9041 57.944 70.0641 57.032 71.6001 55.208C73.1361 53.336 73.9041 50.744 73.9041 47.432V29.288H82.9761V65H74.0481V60.32H72.7521C72.1761 61.52 71.0961 62.696 69.5121 63.848C67.9281 65 65.5281 65.576 62.3121 65.576ZM93.0713 79.4V29.288H101.999V33.608H103.295C104.111 32.216 105.383 30.992 107.111 29.936C108.839 28.832 111.311 28.28 114.527 28.28C117.407 28.28 120.071 29 122.519 30.44C124.967 31.832 126.935 33.896 128.423 36.632C129.911 39.368 130.655 42.68 130.655 46.568V47.72C130.655 51.608 129.911 54.92 128.423 57.656C126.935 60.392 124.967 62.48 122.519 63.92C120.071 65.312 117.407 66.008 114.527 66.008C112.367 66.008 110.543 65.744 109.055 65.216C107.615 64.736 106.439 64.112 105.527 63.344C104.663 62.528 103.967 61.712 103.439 60.896H102.143V79.4H93.0713ZM111.791 58.088C114.623 58.088 116.951 57.2 118.775 55.424C120.647 53.6 121.583 50.96 121.583 47.504V46.784C121.583 43.328 120.647 40.712 118.775 38.936C116.903 37.112 114.575 36.2 111.791 36.2C109.007 36.2 106.679 37.112 104.807 38.936C102.935 40.712 101.999 43.328 101.999 46.784V47.504C101.999 50.96 102.935 53.6 104.807 55.424C106.679 57.2 109.007 58.088 111.791 58.088ZM138.985 79.4V29.288H147.913V33.608H149.209C150.025 32.216 151.297 30.992 153.025 29.936C154.753 28.832 157.225 28.28 160.441 28.28C163.321 28.28 165.985 29 168.433 30.44C170.881 31.832 172.849 33.896 174.337 36.632C175.825 39.368 176.569 42.68 176.569 46.568V47.72C176.569 51.608 175.825 54.92 174.337 57.656C172.849 60.392 170.881 62.48 168.433 63.92C165.985 65.312 163.321 66.008 160.441 66.008C158.281 66.008 156.457 65.744 154.969 65.216C153.529 64.736 152.353 64.112 151.441 63.344C150.577 62.528 149.881 61.712 149.353 60.896H148.057V79.4H138.985ZM157.705 58.088C160.537 58.088 162.865 57.2 164.689 55.424C166.561 53.6 167.497 50.96 167.497 47.504V46.784C167.497 43.328 166.561 40.712 164.689 38.936C162.817 37.112 160.489 36.2 157.705 36.2C154.921 36.2 152.593 37.112 150.721 38.936C148.849 40.712 147.913 43.328 147.913 46.784V47.504C147.913 50.96 148.849 53.6 150.721 55.424C152.593 57.2 154.921 58.088 157.705 58.088ZM201.891 66.008C198.339 66.008 195.147 65.288 192.315 63.848C189.483 62.408 187.251 60.32 185.619 57.584C183.987 54.848 183.171 51.56 183.171 47.72V46.568C183.171 42.728 183.987 39.44 185.619 36.704C187.251 33.968 189.483 31.88 192.315 30.44C195.147 29 198.339 28.28 201.891 28.28C205.443 28.28 208.635 29 211.467 30.44C214.299 31.88 216.531 33.968 218.163 36.704C219.795 39.44 220.611 42.728 220.611 46.568V47.72C220.611 51.56 219.795 54.848 218.163 57.584C216.531 60.32 214.299 62.408 211.467 63.848C208.635 65.288 205.443 66.008 201.891 66.008ZM201.891 57.944C204.675 57.944 206.979 57.056 208.803 55.28C210.627 53.456 211.539 50.864 211.539 47.504V46.784C211.539 43.424 210.627 40.856 208.803 39.08C207.027 37.256 204.723 36.344 201.891 36.344C199.107 36.344 196.803 37.256 194.979 39.08C193.155 40.856 192.243 43.424 192.243 46.784V47.504C192.243 50.864 193.155 53.456 194.979 55.28C196.803 57.056 199.107 57.944 201.891 57.944ZM228.985 65V29.288H237.913V33.32H239.209C239.737 31.88 240.601 30.824 241.801 30.152C243.049 29.48 244.489 29.144 246.121 29.144H250.441V37.208H245.977C243.673 37.208 241.777 37.832 240.289 39.08C238.801 40.28 238.057 42.152 238.057 44.696V65H228.985ZM271.212 65C268.86 65 266.94 64.28 265.452 62.84C264.012 61.352 263.292 59.384 263.292 56.936V36.776H254.364V29.288H263.292V18.2H272.364V29.288H282.156V36.776H272.364V55.352C272.364 56.792 273.036 57.512 274.38 57.512H281.292V65H271.212ZM305.375 66.008C301.823 66.008 298.679 65.264 295.943 63.776C293.255 62.24 291.143 60.104 289.607 57.368C288.119 54.584 287.375 51.32 287.375 47.576V46.712C287.375 42.968 288.119 39.728 289.607 36.992C291.095 34.208 293.183 32.072 295.871 30.584C298.559 29.048 301.679 28.28 305.23 28.28C308.735 28.28 311.783 29.072 314.375 30.656C316.967 32.192 318.983 34.352 320.422 37.136C321.863 39.872 322.583 43.064 322.583 46.712V49.808H296.591C296.687 52.256 297.599 54.248 299.327 55.784C301.055 57.32 303.167 58.088 305.663 58.088C308.207 58.088 310.079 57.536 311.279 56.432C312.479 55.328 313.391 54.104 314.015 52.76L321.431 56.648C320.759 57.896 319.775 59.264 318.479 60.752C317.231 62.192 315.551 63.44 313.439 64.496C311.327 65.504 308.639 66.008 305.375 66.008ZM296.663 43.04H313.367C313.175 40.976 312.335 39.32 310.847 38.072C309.407 36.824 307.511 36.2 305.159 36.2C302.711 36.2 300.767 36.824 299.327 38.072C297.887 39.32 296.999 40.976 296.663 43.04ZM330.657 65V29.288H339.585V33.32H340.881C341.409 31.88 342.273 30.824 343.473 30.152C344.721 29.48 346.161 29.144 347.793 29.144H352.113V37.208H347.649C345.345 37.208 343.449 37.832 341.961 39.08C340.473 40.28 339.729 42.152 339.729 44.696V65H330.657ZM373.192 66.008C368.536 66.008 364.72 65 361.744 62.984C358.768 60.968 356.968 58.088 356.344 54.344L364.696 52.184C365.032 53.864 365.584 55.184 366.352 56.144C367.168 57.104 368.152 57.8 369.304 58.232C370.504 58.616 371.8 58.808 373.192 58.808C375.304 58.808 376.864 58.448 377.872 57.728C378.88 56.96 379.384 56.024 379.384 54.92C379.384 53.816 378.904 52.976 377.944 52.4C376.984 51.776 375.448 51.272 373.336 50.888L371.32 50.528C368.824 50.048 366.544 49.4 364.48 48.584C362.416 47.72 360.76 46.544 359.512 45.056C358.264 43.568 357.64 41.648 357.64 39.296C357.64 35.744 358.936 33.032 361.528 31.16C364.12 29.24 367.528 28.28 371.752 28.28C375.736 28.28 379.048 29.168 381.688 30.944C384.328 32.72 386.056 35.048 386.872 37.928L378.448 40.52C378.064 38.696 377.272 37.4 376.072 36.632C374.92 35.864 373.48 35.48 371.752 35.48C370.024 35.48 368.704 35.792 367.792 36.416C366.88 36.992 366.424 37.808 366.424 38.864C366.424 40.016 366.904 40.88 367.864 41.456C368.824 41.984 370.12 42.392 371.752 42.68L373.768 43.04C376.456 43.52 378.88 44.168 381.04 44.984C383.248 45.752 384.976 46.88 386.224 48.368C387.52 49.808 388.168 51.776 388.168 54.272C388.168 58.016 386.8 60.92 384.064 62.984C381.376 65 377.752 66.008 373.192 66.008Z" fill="#051118"/>
</svg>
