<svg width="227" height="254" viewBox="0 0 227 254" fill="none" xmlns="http://www.w3.org/2000/svg">
<path d="M46.4285 194V207.077L94.7659 215.795V219.896L85.2459 216.82H2V231.185H85.2459L94.7659 228.104V232.21L46.4285 240.928V254L99 244.52V203.486L46.4285 194Z" fill="#051118"/>
<path d="M8.784 65L2.16 14.6H11.592L16.488 58.376H17.784L24.12 14.6H40.536L46.872 58.376H48.168L53.064 14.6H62.496L55.872 65H39.456L32.976 20.216H31.68L25.2 65H8.784ZM69.7275 65V14.6H78.7995V33.68H80.0955C80.4795 32.912 81.0795 32.144 81.8955 31.376C82.7115 30.608 83.7915 29.984 85.1355 29.504C86.5275 28.976 88.2795 28.712 90.3915 28.712C93.1755 28.712 95.5995 29.36 97.6635 30.656C99.7755 31.904 101.408 33.656 102.56 35.912C103.712 38.12 104.288 40.712 104.288 43.688V65H95.2155V44.408C95.2155 41.72 94.5435 39.704 93.1995 38.36C91.9035 37.016 90.0315 36.344 87.5835 36.344C84.7995 36.344 82.6395 37.28 81.1035 39.152C79.5675 40.976 78.7995 43.544 78.7995 46.856V65H69.7275ZM117.42 79.4V71.48H136.86C138.204 71.48 138.876 70.76 138.876 69.32V60.32H137.58C137.196 61.136 136.596 61.952 135.78 62.768C134.964 63.584 133.86 64.256 132.468 64.784C131.076 65.312 129.3 65.576 127.14 65.576C124.356 65.576 121.908 64.952 119.796 63.704C117.732 62.408 116.124 60.632 114.972 58.376C113.82 56.12 113.244 53.528 113.244 50.6V29.288H122.316V49.88C122.316 52.568 122.964 54.584 124.26 55.928C125.604 57.272 127.5 57.944 129.948 57.944C132.732 57.944 134.892 57.032 136.428 55.208C137.964 53.336 138.732 50.744 138.732 47.432V29.288H147.804V71.336C147.804 73.784 147.084 75.728 145.644 77.168C144.204 78.656 142.284 79.4 139.884 79.4H117.42ZM3.744 145V134.2L23.328 117.928V116.776H4.464V109.288H33.264V120.088L13.68 136.36V137.512H33.84V145H3.744ZM42.3056 145V94.6H51.3776V122.464H52.6736L64.4816 109.288H76.2896L59.8016 126.568L76.8656 145H65.2016L52.6736 130.816H51.3776V145H42.3056ZM101.81 146.008C95.5703 146.008 90.6263 144.28 86.9783 140.824C83.3303 137.32 81.5063 132.328 81.5063 125.848V113.752C81.5063 107.272 83.3303 102.304 86.9783 98.848C90.6263 95.344 95.5703 93.592 101.81 93.592C108.002 93.592 112.778 95.296 116.138 98.704C119.546 102.064 121.25 106.696 121.25 112.6V113.032H111.89V112.312C111.89 109.336 111.05 106.888 109.37 104.968C107.738 103.048 105.218 102.088 101.81 102.088C98.4503 102.088 95.8103 103.12 93.8903 105.184C91.9703 107.248 91.0103 110.056 91.0103 113.608V125.992C91.0103 129.496 91.9703 132.304 93.8903 134.416C95.8103 136.48 98.4503 137.512 101.81 137.512C105.218 137.512 107.738 136.552 109.37 134.632C111.05 132.664 111.89 130.216 111.89 127.288V125.992H121.25V127C121.25 132.904 119.546 137.56 116.138 140.968C112.778 144.328 108.002 146.008 101.81 146.008ZM129.282 145V109.288H138.354V145H129.282ZM133.818 105.112C132.186 105.112 130.794 104.584 129.642 103.528C128.538 102.472 127.986 101.08 127.986 99.352C127.986 97.624 128.538 96.232 129.642 95.176C130.794 94.12 132.186 93.592 133.818 93.592C135.498 93.592 136.89 94.12 137.994 95.176C139.098 96.232 139.65 97.624 139.65 99.352C139.65 101.08 139.098 102.472 137.994 103.528C136.89 104.584 135.498 105.112 133.818 105.112ZM162.087 145C159.735 145 157.815 144.28 156.327 142.84C154.887 141.352 154.167 139.384 154.167 136.936V116.776H145.239V109.288H154.167V98.2H163.239V109.288H173.031V116.776H163.239V135.352C163.239 136.792 163.911 137.512 165.255 137.512H172.167V145H162.087ZM185.131 159.4V151.48H204.571C205.915 151.48 206.587 150.76 206.587 149.32V140.32H205.291C204.907 141.136 204.307 141.952 203.491 142.768C202.675 143.584 201.571 144.256 200.179 144.784C198.787 145.312 197.011 145.576 194.851 145.576C192.067 145.576 189.619 144.952 187.507 143.704C185.443 142.408 183.835 140.632 182.683 138.376C181.531 136.12 180.955 133.528 180.955 130.6V109.288H190.027V129.88C190.027 132.568 190.675 134.584 191.971 135.928C193.315 137.272 195.211 137.944 197.659 137.944C200.443 137.944 202.603 137.032 204.139 135.208C205.675 133.336 206.443 130.744 206.443 127.432V109.288H215.515V151.336C215.515 153.784 214.795 155.728 213.355 157.168C211.915 158.656 209.995 159.4 207.595 159.4H185.131Z" fill="#051118"/>
</svg>
