<svg width="263" height="66" viewBox="0 0 263 66" fill="none" xmlns="http://www.w3.org/2000/svg">
<path d="M0.296 51L13.544 0.599997H30.104L43.352 51H33.56L30.824 39.912H12.824L10.088 51H0.296ZM15.056 31.128H28.592L22.472 6.576H21.176L15.056 31.128ZM47.9448 33.288V32.136C47.9448 28.392 48.6888 25.2 50.1768 22.56C51.6648 19.872 53.6328 17.832 56.0808 16.44C58.5768 15 61.2888 14.28 64.2168 14.28C67.4808 14.28 69.9528 14.856 71.6328 16.008C73.3128 17.16 74.5368 18.36 75.3048 19.608H76.6008V15.288H85.5288V57.336C85.5288 59.784 84.8088 61.728 83.3688 63.168C81.9288 64.656 80.0088 65.4 77.6088 65.4H53.7048V57.48H74.4408C75.7848 57.48 76.4568 56.76 76.4568 55.32V46.032H75.1608C74.6808 46.8 74.0088 47.592 73.1448 48.408C72.2808 49.176 71.1288 49.824 69.6888 50.352C68.2488 50.88 66.4248 51.144 64.2168 51.144C61.2888 51.144 58.5768 50.448 56.0808 49.056C53.6328 47.616 51.6648 45.576 50.1768 42.936C48.6888 40.248 47.9448 37.032 47.9448 33.288ZM66.8088 43.224C69.5928 43.224 71.9208 42.336 73.7928 40.56C75.6648 38.784 76.6008 36.288 76.6008 33.072V32.352C76.6008 29.088 75.6648 26.592 73.7928 24.864C71.9688 23.088 69.6408 22.2 66.8088 22.2C64.0248 22.2 61.6968 23.088 59.8248 24.864C57.9528 26.592 57.0168 29.088 57.0168 32.352V33.072C57.0168 36.288 57.9528 38.784 59.8248 40.56C61.6968 42.336 64.0248 43.224 66.8088 43.224ZM111.859 52.008C108.307 52.008 105.163 51.264 102.427 49.776C99.7389 48.24 97.6269 46.104 96.0909 43.368C94.6029 40.584 93.8589 37.32 93.8589 33.576V32.712C93.8589 28.968 94.6029 25.728 96.0909 22.992C97.5789 20.208 99.6669 18.072 102.355 16.584C105.043 15.048 108.163 14.28 111.715 14.28C115.219 14.28 118.267 15.072 120.859 16.656C123.451 18.192 125.467 20.352 126.907 23.136C128.347 25.872 129.067 29.064 129.067 32.712V35.808H103.075C103.171 38.256 104.083 40.248 105.811 41.784C107.539 43.32 109.651 44.088 112.147 44.088C114.691 44.088 116.563 43.536 117.763 42.432C118.963 41.328 119.875 40.104 120.499 38.76L127.915 42.648C127.243 43.896 126.259 45.264 124.963 46.752C123.715 48.192 122.035 49.44 119.923 50.496C117.811 51.504 115.123 52.008 111.859 52.008ZM103.147 29.04H119.851C119.659 26.976 118.819 25.32 117.331 24.072C115.891 22.824 113.995 22.2 111.643 22.2C109.195 22.2 107.251 22.824 105.811 24.072C104.371 25.32 103.483 26.976 103.147 29.04ZM137.142 51V15.288H146.07V19.968H147.366C147.942 18.72 149.022 17.544 150.606 16.44C152.19 15.288 154.59 14.712 157.806 14.712C160.59 14.712 163.014 15.36 165.078 16.656C167.19 17.904 168.822 19.656 169.974 21.912C171.126 24.12 171.702 26.712 171.702 29.688V51H162.63V30.408C162.63 27.72 161.958 25.704 160.614 24.36C159.318 23.016 157.446 22.344 154.998 22.344C152.214 22.344 150.054 23.28 148.518 25.152C146.982 26.976 146.214 29.544 146.214 32.856V51H137.142ZM195.909 52.008C193.077 52.008 190.413 51.312 187.917 49.92C185.469 48.48 183.501 46.392 182.013 43.656C180.525 40.92 179.781 37.608 179.781 33.72V32.568C179.781 28.68 180.525 25.368 182.013 22.632C183.501 19.896 185.469 17.832 187.917 16.44C190.365 15 193.029 14.28 195.909 14.28C198.069 14.28 199.869 14.544 201.309 15.072C202.797 15.552 203.997 16.176 204.909 16.944C205.821 17.712 206.517 18.528 206.997 19.392H208.293V0.599997H217.365V51H208.437V46.68H207.141C206.325 48.024 205.053 49.248 203.325 50.352C201.645 51.456 199.173 52.008 195.909 52.008ZM198.645 44.088C201.429 44.088 203.757 43.2 205.629 41.424C207.501 39.6 208.437 36.96 208.437 33.504V32.784C208.437 29.328 207.501 26.712 205.629 24.936C203.805 23.112 201.477 22.2 198.645 22.2C195.861 22.2 193.533 23.112 191.661 24.936C189.789 26.712 188.853 29.328 188.853 32.784V33.504C188.853 36.96 189.789 39.6 191.661 41.424C193.533 43.2 195.861 44.088 198.645 44.088ZM238.511 52.008C235.967 52.008 233.687 51.576 231.671 50.712C229.655 49.8 228.047 48.504 226.847 46.824C225.695 45.096 225.119 43.008 225.119 40.56C225.119 38.112 225.695 36.072 226.847 34.44C228.047 32.76 229.679 31.512 231.743 30.696C233.855 29.832 236.255 29.4 238.943 29.4H248.735V27.384C248.735 25.704 248.207 24.336 247.151 23.28C246.095 22.176 244.415 21.624 242.111 21.624C239.855 21.624 238.175 22.152 237.071 23.208C235.967 24.216 235.247 25.536 234.911 27.168L226.559 24.36C227.135 22.536 228.047 20.88 229.295 19.392C230.591 17.856 232.295 16.632 234.407 15.72C236.567 14.76 239.183 14.28 242.255 14.28C246.959 14.28 250.679 15.456 253.415 17.808C256.151 20.16 257.519 23.568 257.519 28.032V41.352C257.519 42.792 258.191 43.512 259.535 43.512H262.415V51H256.367C254.591 51 253.127 50.568 251.975 49.704C250.823 48.84 250.247 47.688 250.247 46.248V46.176H248.879C248.687 46.752 248.255 47.52 247.583 48.48C246.911 49.392 245.855 50.208 244.415 50.928C242.975 51.648 241.007 52.008 238.511 52.008ZM240.095 44.664C242.639 44.664 244.703 43.968 246.287 42.576C247.919 41.136 248.735 39.24 248.735 36.888V36.168H239.591C237.911 36.168 236.591 36.528 235.631 37.248C234.671 37.968 234.191 38.976 234.191 40.272C234.191 41.568 234.695 42.624 235.703 43.44C236.711 44.256 238.175 44.664 240.095 44.664Z" fill="#051118"/>
</svg>
