<svg width="214" height="198" viewBox="0 0 214 198" fill="none" xmlns="http://www.w3.org/2000/svg">
<path d="M143.777 197.105C140.036 197.105 136.319 196.287 133.363 194.632L75.6383 162.3C70.5032 159.425 64.2225 155.907 61.6793 154.483L11.0204 126.104C4.79926 122.618 -0.0417632 114.299 0.000271667 107.159L0.329544 51.8421C0.371579 44.7791 5.09701 36.3234 11.087 32.5919L58.0014 3.36417C64.058 -0.405927 73.67 -0.626872 79.8911 2.85564L202.237 71.3837C208.458 74.866 213.296 83.1883 213.257 90.325L212.931 145.646C212.889 152.709 208.164 161.164 202.174 164.896L155.259 194.124C152.079 196.105 147.917 197.105 143.781 197.105H143.777ZM69.4875 7.22895C66.5976 7.22895 63.6795 7.88476 61.6093 9.17184L14.695 38.3998C10.7087 40.8827 7.18822 47.185 7.1602 51.8844L6.83095 107.201C6.80292 111.831 10.3198 117.876 14.3552 120.135L65.0175 148.511C67.5608 149.935 73.8414 153.452 78.9769 156.328L136.701 188.659C140.736 190.922 147.721 190.757 151.648 188.313L198.562 159.085C202.549 156.602 206.069 150.299 206.097 145.6L206.423 90.2831C206.447 85.6539 202.934 79.6076 198.899 77.349L76.5562 8.82466C74.6472 7.75499 72.0797 7.22895 69.4875 7.22895Z" fill="#051118"/>
<path d="M112.927 146.515C111.743 145.547 110.777 143.716 110.777 141.777C110.777 138.33 113.681 135.426 117.12 135.426C119.057 135.426 120.455 136.18 121.53 137.148C126.263 141.886 131.64 144.362 138.632 144.362C146.051 144.362 151.641 139.837 151.641 132.95V132.736C151.641 125.304 144.867 121.106 134.33 121.106H131.64C128.522 121.106 125.941 118.522 125.941 115.4C125.941 113.678 126.694 112.062 128.739 110.017L146.373 91.1772H119.057C115.831 91.1772 113.253 88.5926 113.253 85.4676C113.253 82.3427 115.835 79.6529 119.057 79.6529H157.558C161.32 79.6529 164.119 81.9149 164.119 85.4676C164.119 88.589 162.613 90.4198 160.353 92.6817L142.607 111.094C154.009 112.493 164.76 118.308 164.76 132.196V132.41C164.76 146.301 154.115 156.31 138.414 156.31C127.338 156.31 119.054 152.435 112.927 146.515Z" fill="#051118"/>
<path d="M80.5465 39.8126L106.895 101.828C107.323 102.796 107.649 103.767 107.649 104.953C107.649 108.505 104.745 111.413 100.983 111.413C97.5429 111.413 95.2834 109.477 94.2079 106.678L72.4864 52.3047L50.4392 107.106C49.5776 109.368 47.213 111.413 44.0955 111.413C40.4419 111.413 37.538 108.614 37.538 105.061C37.538 104.094 37.8602 103.017 38.1825 102.259L64.6365 39.8126C66.0342 36.4739 68.5105 34.4293 72.2728 34.4293H73.0258C76.683 34.4293 79.1559 36.4739 80.5537 39.8126H80.5465Z" fill="#051118"/>
<path d="M74.5773 91.1735H95.5354V79.6529H74.5773C71.3511 79.6529 68.7697 82.2378 68.7697 85.4676C68.7697 88.6978 71.3511 91.1772 74.5773 91.1772V91.1735Z" fill="#051118"/>
</svg>
