<svg width="507" height="177" viewBox="0 0 507 177" fill="none" xmlns="http://www.w3.org/2000/svg">
<path d="M49.09 117V130.077L95.9711 138.795V142.896L86.7379 139.82H6V154.185H86.7379L95.9711 151.104V155.21L49.09 163.928V177L100.078 167.52V126.486L49.09 117Z" fill="#051118"/>
<path d="M23.904 66.008C17.664 66.008 12.72 64.28 9.072 60.824C5.424 57.32 3.6 52.328 3.6 45.848V33.752C3.6 27.272 5.424 22.304 9.072 18.848C12.72 15.344 17.664 13.592 23.904 13.592C30.096 13.592 34.872 15.296 38.232 18.704C41.64 22.064 43.344 26.696 43.344 32.6V33.032H33.984V32.312C33.984 29.336 33.144 26.888 31.464 24.968C29.832 23.048 27.312 22.088 23.904 22.088C20.544 22.088 17.904 23.12 15.984 25.184C14.064 27.248 13.104 30.056 13.104 33.608V45.992C13.104 49.496 14.064 52.304 15.984 54.416C17.904 56.48 20.544 57.512 23.904 57.512C27.312 57.512 29.832 56.552 31.464 54.632C33.144 52.664 33.984 50.216 33.984 47.288V45.992H43.344V47C43.344 52.904 41.64 57.56 38.232 60.968C34.872 64.328 30.096 66.008 23.904 66.008ZM68.3679 66.008C64.8159 66.008 61.6239 65.288 58.7919 63.848C55.9599 62.408 53.7279 60.32 52.0959 57.584C50.4639 54.848 49.6479 51.56 49.6479 47.72V46.568C49.6479 42.728 50.4639 39.44 52.0959 36.704C53.7279 33.968 55.9599 31.88 58.7919 30.44C61.6239 29 64.8159 28.28 68.3679 28.28C71.9199 28.28 75.1119 29 77.9439 30.44C80.7759 31.88 83.0079 33.968 84.6399 36.704C86.2719 39.44 87.0879 42.728 87.0879 46.568V47.72C87.0879 51.56 86.2719 54.848 84.6399 57.584C83.0079 60.32 80.7759 62.408 77.9439 63.848C75.1119 65.288 71.9199 66.008 68.3679 66.008ZM68.3679 57.944C71.1519 57.944 73.4559 57.056 75.2799 55.28C77.1039 53.456 78.0159 50.864 78.0159 47.504V46.784C78.0159 43.424 77.1039 40.856 75.2799 39.08C73.5039 37.256 71.1999 36.344 68.3679 36.344C65.5839 36.344 63.2799 37.256 61.4559 39.08C59.6319 40.856 58.7199 43.424 58.7199 46.784V47.504C58.7199 50.864 59.6319 53.456 61.4559 55.28C63.2799 57.056 65.5839 57.944 68.3679 57.944ZM95.4619 65V14.6H104.534V65H95.4619ZM125.675 66.008C123.131 66.008 120.851 65.576 118.835 64.712C116.819 63.8 115.211 62.504 114.011 60.824C112.859 59.096 112.283 57.008 112.283 54.56C112.283 52.112 112.859 50.072 114.011 48.44C115.211 46.76 116.843 45.512 118.907 44.696C121.019 43.832 123.419 43.4 126.107 43.4H135.899V41.384C135.899 39.704 135.371 38.336 134.315 37.28C133.259 36.176 131.579 35.624 129.275 35.624C127.019 35.624 125.339 36.152 124.235 37.208C123.131 38.216 122.411 39.536 122.075 41.168L113.723 38.36C114.299 36.536 115.211 34.88 116.459 33.392C117.755 31.856 119.459 30.632 121.571 29.72C123.731 28.76 126.347 28.28 129.419 28.28C134.123 28.28 137.843 29.456 140.579 31.808C143.315 34.16 144.683 37.568 144.683 42.032V55.352C144.683 56.792 145.355 57.512 146.699 57.512H149.579V65H143.531C141.755 65 140.291 64.568 139.139 63.704C137.987 62.84 137.411 61.688 137.411 60.248V60.176H136.043C135.851 60.752 135.419 61.52 134.747 62.48C134.075 63.392 133.019 64.208 131.579 64.928C130.139 65.648 128.171 66.008 125.675 66.008ZM127.259 58.664C129.803 58.664 131.867 57.968 133.451 56.576C135.083 55.136 135.899 53.24 135.899 50.888V50.168H126.755C125.075 50.168 123.755 50.528 122.795 51.248C121.835 51.968 121.355 52.976 121.355 54.272C121.355 55.568 121.859 56.624 122.867 57.44C123.875 58.256 125.339 58.664 127.259 58.664ZM177.668 66.008C174.452 66.008 171.98 65.456 170.252 64.352C168.524 63.248 167.252 62.024 166.436 60.68H165.14V65H156.212V14.6H165.284V33.392H166.58C167.108 32.528 167.804 31.712 168.668 30.944C169.58 30.176 170.756 29.552 172.196 29.072C173.684 28.544 175.508 28.28 177.668 28.28C180.548 28.28 183.212 29 185.66 30.44C188.108 31.832 190.076 33.896 191.564 36.632C193.052 39.368 193.796 42.68 193.796 46.568V47.72C193.796 51.608 193.052 54.92 191.564 57.656C190.076 60.392 188.108 62.48 185.66 63.92C183.212 65.312 180.548 66.008 177.668 66.008ZM174.932 58.088C177.716 58.088 180.044 57.2 181.916 55.424C183.788 53.6 184.724 50.96 184.724 47.504V46.784C184.724 43.328 183.788 40.712 181.916 38.936C180.092 37.112 177.764 36.2 174.932 36.2C172.148 36.2 169.82 37.112 167.948 38.936C166.076 40.712 165.14 43.328 165.14 46.784V47.504C165.14 50.96 166.076 53.6 167.948 55.424C169.82 57.2 172.148 58.088 174.932 58.088ZM219.118 66.008C215.566 66.008 212.374 65.288 209.542 63.848C206.71 62.408 204.478 60.32 202.846 57.584C201.214 54.848 200.398 51.56 200.398 47.72V46.568C200.398 42.728 201.214 39.44 202.846 36.704C204.478 33.968 206.71 31.88 209.542 30.44C212.374 29 215.566 28.28 219.118 28.28C222.67 28.28 225.862 29 228.694 30.44C231.526 31.88 233.758 33.968 235.39 36.704C237.022 39.44 237.838 42.728 237.838 46.568V47.72C237.838 51.56 237.022 54.848 235.39 57.584C233.758 60.32 231.526 62.408 228.694 63.848C225.862 65.288 222.67 66.008 219.118 66.008ZM219.118 57.944C221.902 57.944 224.206 57.056 226.03 55.28C227.854 53.456 228.766 50.864 228.766 47.504V46.784C228.766 43.424 227.854 40.856 226.03 39.08C224.254 37.256 221.95 36.344 219.118 36.344C216.334 36.344 214.03 37.256 212.206 39.08C210.382 40.856 209.47 43.424 209.47 46.784V47.504C209.47 50.864 210.382 53.456 212.206 55.28C214.03 57.056 216.334 57.944 219.118 57.944ZM246.212 65V29.288H255.14V33.32H256.436C256.964 31.88 257.828 30.824 259.028 30.152C260.276 29.48 261.716 29.144 263.348 29.144H267.668V37.208H263.204C260.9 37.208 259.004 37.832 257.516 39.08C256.028 40.28 255.284 42.152 255.284 44.696V65H246.212ZM285.003 66.008C282.459 66.008 280.179 65.576 278.163 64.712C276.147 63.8 274.539 62.504 273.339 60.824C272.187 59.096 271.611 57.008 271.611 54.56C271.611 52.112 272.187 50.072 273.339 48.44C274.539 46.76 276.171 45.512 278.235 44.696C280.347 43.832 282.747 43.4 285.435 43.4H295.227V41.384C295.227 39.704 294.699 38.336 293.643 37.28C292.587 36.176 290.907 35.624 288.603 35.624C286.347 35.624 284.667 36.152 283.563 37.208C282.459 38.216 281.739 39.536 281.403 41.168L273.051 38.36C273.627 36.536 274.539 34.88 275.787 33.392C277.083 31.856 278.787 30.632 280.899 29.72C283.059 28.76 285.675 28.28 288.747 28.28C293.451 28.28 297.171 29.456 299.907 31.808C302.643 34.16 304.011 37.568 304.011 42.032V55.352C304.011 56.792 304.683 57.512 306.027 57.512H308.907V65H302.859C301.083 65 299.619 64.568 298.467 63.704C297.315 62.84 296.739 61.688 296.739 60.248V60.176H295.371C295.179 60.752 294.747 61.52 294.075 62.48C293.403 63.392 292.347 64.208 290.907 64.928C289.467 65.648 287.499 66.008 285.003 66.008ZM286.587 58.664C289.131 58.664 291.195 57.968 292.779 56.576C294.411 55.136 295.227 53.24 295.227 50.888V50.168H286.083C284.403 50.168 283.083 50.528 282.123 51.248C281.163 51.968 280.683 52.976 280.683 54.272C280.683 55.568 281.187 56.624 282.195 57.44C283.203 58.256 284.667 58.664 286.587 58.664ZM329.237 66.008C326.405 66.008 323.741 65.312 321.245 63.92C318.797 62.48 316.829 60.392 315.341 57.656C313.853 54.92 313.109 51.608 313.109 47.72V46.568C313.109 42.68 313.853 39.368 315.341 36.632C316.829 33.896 318.797 31.832 321.245 30.44C323.693 29 326.357 28.28 329.237 28.28C331.397 28.28 333.197 28.544 334.637 29.072C336.125 29.552 337.325 30.176 338.237 30.944C339.149 31.712 339.845 32.528 340.325 33.392H341.621V14.6H350.693V65H341.765V60.68H340.469C339.653 62.024 338.381 63.248 336.653 64.352C334.973 65.456 332.501 66.008 329.237 66.008ZM331.973 58.088C334.757 58.088 337.085 57.2 338.957 55.424C340.829 53.6 341.765 50.96 341.765 47.504V46.784C341.765 43.328 340.829 40.712 338.957 38.936C337.133 37.112 334.805 36.2 331.973 36.2C329.189 36.2 326.861 37.112 324.989 38.936C323.117 40.712 322.181 43.328 322.181 46.784V47.504C322.181 50.96 323.117 53.6 324.989 55.424C326.861 57.2 329.189 58.088 331.973 58.088ZM377.743 66.008C374.191 66.008 370.999 65.288 368.167 63.848C365.335 62.408 363.103 60.32 361.471 57.584C359.839 54.848 359.023 51.56 359.023 47.72V46.568C359.023 42.728 359.839 39.44 361.471 36.704C363.103 33.968 365.335 31.88 368.167 30.44C370.999 29 374.191 28.28 377.743 28.28C381.295 28.28 384.487 29 387.319 30.44C390.151 31.88 392.383 33.968 394.015 36.704C395.647 39.44 396.463 42.728 396.463 46.568V47.72C396.463 51.56 395.647 54.848 394.015 57.584C392.383 60.32 390.151 62.408 387.319 63.848C384.487 65.288 381.295 66.008 377.743 66.008ZM377.743 57.944C380.527 57.944 382.831 57.056 384.655 55.28C386.479 53.456 387.391 50.864 387.391 47.504V46.784C387.391 43.424 386.479 40.856 384.655 39.08C382.879 37.256 380.575 36.344 377.743 36.344C374.959 36.344 372.655 37.256 370.831 39.08C369.007 40.856 368.095 43.424 368.095 46.784V47.504C368.095 50.864 369.007 53.456 370.831 55.28C372.655 57.056 374.959 57.944 377.743 57.944ZM404.837 65V29.288H413.765V33.32H415.061C415.589 31.88 416.453 30.824 417.653 30.152C418.901 29.48 420.341 29.144 421.973 29.144H426.293V37.208H421.829C419.525 37.208 417.629 37.832 416.141 39.08C414.653 40.28 413.909 42.152 413.909 44.696V65H404.837ZM448.39 66.008C444.838 66.008 441.694 65.264 438.958 63.776C436.27 62.24 434.158 60.104 432.622 57.368C431.134 54.584 430.39 51.32 430.39 47.576V46.712C430.39 42.968 431.134 39.728 432.622 36.992C434.11 34.208 436.198 32.072 438.886 30.584C441.574 29.048 444.694 28.28 448.246 28.28C451.75 28.28 454.798 29.072 457.39 30.656C459.982 32.192 461.998 34.352 463.438 37.136C464.878 39.872 465.598 43.064 465.598 46.712V49.808H439.606C439.702 52.256 440.614 54.248 442.342 55.784C444.07 57.32 446.182 58.088 448.678 58.088C451.222 58.088 453.094 57.536 454.294 56.432C455.494 55.328 456.406 54.104 457.03 52.76L464.446 56.648C463.774 57.896 462.79 59.264 461.494 60.752C460.246 62.192 458.566 63.44 456.454 64.496C454.342 65.504 451.654 66.008 448.39 66.008ZM439.678 43.04H456.382C456.19 40.976 455.35 39.32 453.862 38.072C452.422 36.824 450.526 36.2 448.174 36.2C445.726 36.2 443.782 36.824 442.342 38.072C440.902 39.32 440.014 40.976 439.678 43.04ZM488.505 66.008C483.849 66.008 480.033 65 477.057 62.984C474.081 60.968 472.281 58.088 471.657 54.344L480.009 52.184C480.345 53.864 480.897 55.184 481.665 56.144C482.481 57.104 483.465 57.8 484.617 58.232C485.817 58.616 487.113 58.808 488.505 58.808C490.617 58.808 492.177 58.448 493.185 57.728C494.193 56.96 494.697 56.024 494.697 54.92C494.697 53.816 494.217 52.976 493.257 52.4C492.297 51.776 490.761 51.272 488.649 50.888L486.633 50.528C484.137 50.048 481.857 49.4 479.793 48.584C477.729 47.72 476.073 46.544 474.825 45.056C473.577 43.568 472.953 41.648 472.953 39.296C472.953 35.744 474.249 33.032 476.841 31.16C479.433 29.24 482.841 28.28 487.065 28.28C491.049 28.28 494.361 29.168 497.001 30.944C499.641 32.72 501.369 35.048 502.185 37.928L493.761 40.52C493.377 38.696 492.585 37.4 491.385 36.632C490.233 35.864 488.793 35.48 487.065 35.48C485.337 35.48 484.017 35.792 483.105 36.416C482.193 36.992 481.737 37.808 481.737 38.864C481.737 40.016 482.217 40.88 483.177 41.456C484.137 41.984 485.433 42.392 487.065 42.68L489.081 43.04C491.769 43.52 494.193 44.168 496.353 44.984C498.561 45.752 500.289 46.88 501.537 48.368C502.833 49.808 503.481 51.776 503.481 54.272C503.481 58.016 502.113 60.92 499.377 62.984C496.689 65 493.065 66.008 488.505 66.008Z" fill="#051118"/>
</svg>
