<svg width="548" height="100" viewBox="0 0 548 100" fill="none" xmlns="http://www.w3.org/2000/svg">
<mask id="mask0_367_8" style="mask-type:alpha" maskUnits="userSpaceOnUse" x="0" y="0" width="548" height="100">
<rect width="548" height="100" fill="#D9D9D9"/>
</mask>
<g mask="url(#mask0_367_8)">
<path d="M43.904 76.008C37.664 76.008 32.72 74.28 29.072 70.824C25.424 67.32 23.6 62.328 23.6 55.848V43.752C23.6 37.272 25.424 32.304 29.072 28.848C32.72 25.344 37.664 23.592 43.904 23.592C50.096 23.592 54.872 25.296 58.232 28.704C61.64 32.064 63.344 36.696 63.344 42.6V43.032H53.984V42.312C53.984 39.336 53.144 36.888 51.464 34.968C49.832 33.048 47.312 32.088 43.904 32.088C40.544 32.088 37.904 33.12 35.984 35.184C34.064 37.248 33.104 40.056 33.104 43.608V55.992C33.104 59.496 34.064 62.304 35.984 64.416C37.904 66.48 40.544 67.512 43.904 67.512C47.312 67.512 49.832 66.552 51.464 64.632C53.144 62.664 53.984 60.216 53.984 57.288V55.992H63.344V57C63.344 62.904 61.64 67.56 58.232 70.968C54.872 74.328 50.096 76.008 43.904 76.008ZM88.3679 76.008C84.8159 76.008 81.6239 75.288 78.7919 73.848C75.9599 72.408 73.7279 70.32 72.0959 67.584C70.4639 64.848 69.6479 61.56 69.6479 57.72V56.568C69.6479 52.728 70.4639 49.44 72.0959 46.704C73.7279 43.968 75.9599 41.88 78.7919 40.44C81.6239 39 84.8159 38.28 88.3679 38.28C91.9199 38.28 95.1119 39 97.9439 40.44C100.776 41.88 103.008 43.968 104.64 46.704C106.272 49.44 107.088 52.728 107.088 56.568V57.72C107.088 61.56 106.272 64.848 104.64 67.584C103.008 70.32 100.776 72.408 97.9439 73.848C95.1119 75.288 91.9199 76.008 88.3679 76.008ZM88.3679 67.944C91.1519 67.944 93.4559 67.056 95.2799 65.28C97.1039 63.456 98.0159 60.864 98.0159 57.504V56.784C98.0159 53.424 97.1039 50.856 95.2799 49.08C93.5039 47.256 91.1999 46.344 88.3679 46.344C85.5839 46.344 83.2799 47.256 81.4559 49.08C79.6319 50.856 78.7199 53.424 78.7199 56.784V57.504C78.7199 60.864 79.6319 63.456 81.4559 65.28C83.2799 67.056 85.5839 67.944 88.3679 67.944ZM115.462 75V24.6H124.534V75H115.462ZM145.675 76.008C143.131 76.008 140.851 75.576 138.835 74.712C136.819 73.8 135.211 72.504 134.011 70.824C132.859 69.096 132.283 67.008 132.283 64.56C132.283 62.112 132.859 60.072 134.011 58.44C135.211 56.76 136.843 55.512 138.907 54.696C141.019 53.832 143.419 53.4 146.107 53.4H155.899V51.384C155.899 49.704 155.371 48.336 154.315 47.28C153.259 46.176 151.579 45.624 149.275 45.624C147.019 45.624 145.339 46.152 144.235 47.208C143.131 48.216 142.411 49.536 142.075 51.168L133.723 48.36C134.299 46.536 135.211 44.88 136.459 43.392C137.755 41.856 139.459 40.632 141.571 39.72C143.731 38.76 146.347 38.28 149.419 38.28C154.123 38.28 157.843 39.456 160.579 41.808C163.315 44.16 164.683 47.568 164.683 52.032V65.352C164.683 66.792 165.355 67.512 166.699 67.512H169.579V75H163.531C161.755 75 160.291 74.568 159.139 73.704C157.987 72.84 157.411 71.688 157.411 70.248V70.176H156.043C155.851 70.752 155.419 71.52 154.747 72.48C154.075 73.392 153.019 74.208 151.579 74.928C150.139 75.648 148.171 76.008 145.675 76.008ZM147.259 68.664C149.803 68.664 151.867 67.968 153.451 66.576C155.083 65.136 155.899 63.24 155.899 60.888V60.168H146.755C145.075 60.168 143.755 60.528 142.795 61.248C141.835 61.968 141.355 62.976 141.355 64.272C141.355 65.568 141.859 66.624 142.867 67.44C143.875 68.256 145.339 68.664 147.259 68.664ZM197.668 76.008C194.452 76.008 191.98 75.456 190.252 74.352C188.524 73.248 187.252 72.024 186.436 70.68H185.14V75H176.212V24.6H185.284V43.392H186.58C187.108 42.528 187.804 41.712 188.668 40.944C189.58 40.176 190.756 39.552 192.196 39.072C193.684 38.544 195.508 38.28 197.668 38.28C200.548 38.28 203.212 39 205.66 40.44C208.108 41.832 210.076 43.896 211.564 46.632C213.052 49.368 213.796 52.68 213.796 56.568V57.72C213.796 61.608 213.052 64.92 211.564 67.656C210.076 70.392 208.108 72.48 205.66 73.92C203.212 75.312 200.548 76.008 197.668 76.008ZM194.932 68.088C197.716 68.088 200.044 67.2 201.916 65.424C203.788 63.6 204.724 60.96 204.724 57.504V56.784C204.724 53.328 203.788 50.712 201.916 48.936C200.092 47.112 197.764 46.2 194.932 46.2C192.148 46.2 189.82 47.112 187.948 48.936C186.076 50.712 185.14 53.328 185.14 56.784V57.504C185.14 60.96 186.076 63.6 187.948 65.424C189.82 67.2 192.148 68.088 194.932 68.088ZM239.118 76.008C235.566 76.008 232.374 75.288 229.542 73.848C226.71 72.408 224.478 70.32 222.846 67.584C221.214 64.848 220.398 61.56 220.398 57.72V56.568C220.398 52.728 221.214 49.44 222.846 46.704C224.478 43.968 226.71 41.88 229.542 40.44C232.374 39 235.566 38.28 239.118 38.28C242.67 38.28 245.862 39 248.694 40.44C251.526 41.88 253.758 43.968 255.39 46.704C257.022 49.44 257.838 52.728 257.838 56.568V57.72C257.838 61.56 257.022 64.848 255.39 67.584C253.758 70.32 251.526 72.408 248.694 73.848C245.862 75.288 242.67 76.008 239.118 76.008ZM239.118 67.944C241.902 67.944 244.206 67.056 246.03 65.28C247.854 63.456 248.766 60.864 248.766 57.504V56.784C248.766 53.424 247.854 50.856 246.03 49.08C244.254 47.256 241.95 46.344 239.118 46.344C236.334 46.344 234.03 47.256 232.206 49.08C230.382 50.856 229.47 53.424 229.47 56.784V57.504C229.47 60.864 230.382 63.456 232.206 65.28C234.03 67.056 236.334 67.944 239.118 67.944ZM266.212 75V39.288H275.14V43.32H276.436C276.964 41.88 277.828 40.824 279.028 40.152C280.276 39.48 281.716 39.144 283.348 39.144H287.668V47.208H283.204C280.9 47.208 279.004 47.832 277.516 49.08C276.028 50.28 275.284 52.152 275.284 54.696V75H266.212ZM305.003 76.008C302.459 76.008 300.179 75.576 298.163 74.712C296.147 73.8 294.539 72.504 293.339 70.824C292.187 69.096 291.611 67.008 291.611 64.56C291.611 62.112 292.187 60.072 293.339 58.44C294.539 56.76 296.171 55.512 298.235 54.696C300.347 53.832 302.747 53.4 305.435 53.4H315.227V51.384C315.227 49.704 314.699 48.336 313.643 47.28C312.587 46.176 310.907 45.624 308.603 45.624C306.347 45.624 304.667 46.152 303.563 47.208C302.459 48.216 301.739 49.536 301.403 51.168L293.051 48.36C293.627 46.536 294.539 44.88 295.787 43.392C297.083 41.856 298.787 40.632 300.899 39.72C303.059 38.76 305.675 38.28 308.747 38.28C313.451 38.28 317.171 39.456 319.907 41.808C322.643 44.16 324.011 47.568 324.011 52.032V65.352C324.011 66.792 324.683 67.512 326.027 67.512H328.907V75H322.859C321.083 75 319.619 74.568 318.467 73.704C317.315 72.84 316.739 71.688 316.739 70.248V70.176H315.371C315.179 70.752 314.747 71.52 314.075 72.48C313.403 73.392 312.347 74.208 310.907 74.928C309.467 75.648 307.499 76.008 305.003 76.008ZM306.587 68.664C309.131 68.664 311.195 67.968 312.779 66.576C314.411 65.136 315.227 63.24 315.227 60.888V60.168H306.083C304.403 60.168 303.083 60.528 302.123 61.248C301.163 61.968 300.683 62.976 300.683 64.272C300.683 65.568 301.187 66.624 302.195 67.44C303.203 68.256 304.667 68.664 306.587 68.664ZM349.237 76.008C346.405 76.008 343.741 75.312 341.245 73.92C338.797 72.48 336.829 70.392 335.341 67.656C333.853 64.92 333.109 61.608 333.109 57.72V56.568C333.109 52.68 333.853 49.368 335.341 46.632C336.829 43.896 338.797 41.832 341.245 40.44C343.693 39 346.357 38.28 349.237 38.28C351.397 38.28 353.197 38.544 354.637 39.072C356.125 39.552 357.325 40.176 358.237 40.944C359.149 41.712 359.845 42.528 360.325 43.392H361.621V24.6H370.693V75H361.765V70.68H360.469C359.653 72.024 358.381 73.248 356.653 74.352C354.973 75.456 352.501 76.008 349.237 76.008ZM351.973 68.088C354.757 68.088 357.085 67.2 358.957 65.424C360.829 63.6 361.765 60.96 361.765 57.504V56.784C361.765 53.328 360.829 50.712 358.957 48.936C357.133 47.112 354.805 46.2 351.973 46.2C349.189 46.2 346.861 47.112 344.989 48.936C343.117 50.712 342.181 53.328 342.181 56.784V57.504C342.181 60.96 343.117 63.6 344.989 65.424C346.861 67.2 349.189 68.088 351.973 68.088ZM397.743 76.008C394.191 76.008 390.999 75.288 388.167 73.848C385.335 72.408 383.103 70.32 381.471 67.584C379.839 64.848 379.023 61.56 379.023 57.72V56.568C379.023 52.728 379.839 49.44 381.471 46.704C383.103 43.968 385.335 41.88 388.167 40.44C390.999 39 394.191 38.28 397.743 38.28C401.295 38.28 404.487 39 407.319 40.44C410.151 41.88 412.383 43.968 414.015 46.704C415.647 49.44 416.463 52.728 416.463 56.568V57.72C416.463 61.56 415.647 64.848 414.015 67.584C412.383 70.32 410.151 72.408 407.319 73.848C404.487 75.288 401.295 76.008 397.743 76.008ZM397.743 67.944C400.527 67.944 402.831 67.056 404.655 65.28C406.479 63.456 407.391 60.864 407.391 57.504V56.784C407.391 53.424 406.479 50.856 404.655 49.08C402.879 47.256 400.575 46.344 397.743 46.344C394.959 46.344 392.655 47.256 390.831 49.08C389.007 50.856 388.095 53.424 388.095 56.784V57.504C388.095 60.864 389.007 63.456 390.831 65.28C392.655 67.056 394.959 67.944 397.743 67.944ZM424.837 75V39.288H433.765V43.32H435.061C435.589 41.88 436.453 40.824 437.653 40.152C438.901 39.48 440.341 39.144 441.973 39.144H446.293V47.208H441.829C439.525 47.208 437.629 47.832 436.141 49.08C434.653 50.28 433.909 52.152 433.909 54.696V75H424.837ZM468.39 76.008C464.838 76.008 461.694 75.264 458.958 73.776C456.27 72.24 454.158 70.104 452.622 67.368C451.134 64.584 450.39 61.32 450.39 57.576V56.712C450.39 52.968 451.134 49.728 452.622 46.992C454.11 44.208 456.198 42.072 458.886 40.584C461.574 39.048 464.694 38.28 468.246 38.28C471.75 38.28 474.798 39.072 477.39 40.656C479.982 42.192 481.998 44.352 483.438 47.136C484.878 49.872 485.598 53.064 485.598 56.712V59.808H459.606C459.702 62.256 460.614 64.248 462.342 65.784C464.07 67.32 466.182 68.088 468.678 68.088C471.222 68.088 473.094 67.536 474.294 66.432C475.494 65.328 476.406 64.104 477.03 62.76L484.446 66.648C483.774 67.896 482.79 69.264 481.494 70.752C480.246 72.192 478.566 73.44 476.454 74.496C474.342 75.504 471.654 76.008 468.39 76.008ZM459.678 53.04H476.382C476.19 50.976 475.35 49.32 473.862 48.072C472.422 46.824 470.526 46.2 468.174 46.2C465.726 46.2 463.782 46.824 462.342 48.072C460.902 49.32 460.014 50.976 459.678 53.04ZM508.505 76.008C503.849 76.008 500.033 75 497.057 72.984C494.081 70.968 492.281 68.088 491.657 64.344L500.009 62.184C500.345 63.864 500.897 65.184 501.665 66.144C502.481 67.104 503.465 67.8 504.617 68.232C505.817 68.616 507.113 68.808 508.505 68.808C510.617 68.808 512.177 68.448 513.185 67.728C514.193 66.96 514.697 66.024 514.697 64.92C514.697 63.816 514.217 62.976 513.257 62.4C512.297 61.776 510.761 61.272 508.649 60.888L506.633 60.528C504.137 60.048 501.857 59.4 499.793 58.584C497.729 57.72 496.073 56.544 494.825 55.056C493.577 53.568 492.953 51.648 492.953 49.296C492.953 45.744 494.249 43.032 496.841 41.16C499.433 39.24 502.841 38.28 507.065 38.28C511.049 38.28 514.361 39.168 517.001 40.944C519.641 42.72 521.369 45.048 522.185 47.928L513.761 50.52C513.377 48.696 512.585 47.4 511.385 46.632C510.233 45.864 508.793 45.48 507.065 45.48C505.337 45.48 504.017 45.792 503.105 46.416C502.193 46.992 501.737 47.808 501.737 48.864C501.737 50.016 502.217 50.88 503.177 51.456C504.137 51.984 505.433 52.392 507.065 52.68L509.081 53.04C511.769 53.52 514.193 54.168 516.353 54.984C518.561 55.752 520.289 56.88 521.537 58.368C522.833 59.808 523.481 61.776 523.481 64.272C523.481 68.016 522.113 70.92 519.377 72.984C516.689 75 513.065 76.008 508.505 76.008Z" fill="#051118"/>
</g>
</svg>
