<svg width="192" height="104" viewBox="0 0 192 104" fill="none" xmlns="http://www.w3.org/2000/svg">
<mask id="mask0_343_4" style="mask-type:alpha" maskUnits="userSpaceOnUse" x="0" y="0" width="192" height="96">
<path d="M0 0H192V96H0V0Z" fill="#D9D9D9"/>
</mask>
<g mask="url(#mask0_343_4)">
<path d="M4.752 65V14.6H36.432V23.24H14.256V35.408H34.704V44.048H14.256V65H4.752ZM36.5929 65L49.8409 14.6H66.4009L79.6489 65H69.8569L67.1209 53.912H49.1209L46.3849 65H36.5929ZM51.3529 45.128H64.8889L58.7689 20.576H57.4729L51.3529 45.128ZM104.844 66.008C98.5078 66.008 93.4678 64.28 89.7238 60.824C85.9798 57.32 84.1078 52.328 84.1078 45.848V33.752C84.1078 27.272 85.9798 22.304 89.7238 18.848C93.4678 15.344 98.5078 13.592 104.844 13.592C111.18 13.592 116.22 15.344 119.964 18.848C123.708 22.304 125.58 27.272 125.58 33.752V45.848C125.58 52.328 123.708 57.32 119.964 60.824C116.22 64.28 111.18 66.008 104.844 66.008ZM104.844 57.512C108.396 57.512 111.156 56.48 113.124 54.416C115.092 52.352 116.076 49.592 116.076 46.136V33.464C116.076 30.008 115.092 27.248 113.124 25.184C111.156 23.12 108.396 22.088 104.844 22.088C101.34 22.088 98.5798 23.12 96.5638 25.184C94.5958 27.248 93.6118 30.008 93.6118 33.464V46.136C93.6118 49.592 94.5958 52.352 96.5638 54.416C98.5798 56.48 101.34 57.512 104.844 57.512ZM108.156 77.96C105.804 77.96 103.884 77.216 102.396 75.728C100.956 74.288 100.236 72.344 100.236 69.896V65H109.452V68.456C109.452 69.896 110.124 70.616 111.468 70.616H115.716V77.96H108.156ZM149.036 66.008C144.38 66.008 140.564 65 137.588 62.984C134.612 60.968 132.812 58.088 132.188 54.344L140.54 52.184C140.876 53.864 141.428 55.184 142.196 56.144C143.012 57.104 143.996 57.8 145.148 58.232C146.348 58.616 147.644 58.808 149.036 58.808C151.148 58.808 152.708 58.448 153.716 57.728C154.724 56.96 155.228 56.024 155.228 54.92C155.228 53.816 154.748 52.976 153.788 52.4C152.828 51.776 151.292 51.272 149.18 50.888L147.164 50.528C144.668 50.048 142.388 49.4 140.324 48.584C138.26 47.72 136.604 46.544 135.356 45.056C134.108 43.568 133.484 41.648 133.484 39.296C133.484 35.744 134.78 33.032 137.372 31.16C139.964 29.24 143.372 28.28 147.596 28.28C151.58 28.28 154.892 29.168 157.532 30.944C160.172 32.72 161.9 35.048 162.716 37.928L154.292 40.52C153.908 38.696 153.116 37.4 151.916 36.632C150.764 35.864 149.324 35.48 147.596 35.48C145.868 35.48 144.548 35.792 143.636 36.416C142.724 36.992 142.268 37.808 142.268 38.864C142.268 40.016 142.748 40.88 143.708 41.456C144.668 41.984 145.964 42.392 147.596 42.68L149.612 43.04C152.3 43.52 154.724 44.168 156.884 44.984C159.092 45.752 160.82 46.88 162.068 48.368C163.364 49.808 164.012 51.776 164.012 54.272C164.012 58.016 162.644 60.92 159.908 62.984C157.22 65 153.596 66.008 149.036 66.008Z" fill="#051118"/>
</g>
</svg>
