<svg width="442" height="171" viewBox="0 0 442 171" fill="none" xmlns="http://www.w3.org/2000/svg">
<mask id="mask0_373_18" style="mask-type:alpha" maskUnits="userSpaceOnUse" x="0" y="0" width="442" height="171">
<rect width="442" height="171" fill="#D9D9D9"/>
</mask>
<g mask="url(#mask0_373_18)">
<path d="M32.1084 65V14.6H52.8444C56.0124 14.6 58.7964 15.248 61.1964 16.544C63.6444 17.792 65.5404 19.568 66.8844 21.872C68.2764 24.176 68.9724 26.912 68.9724 30.08V31.088C68.9724 34.208 68.2524 36.944 66.8124 39.296C65.4204 41.6 63.5004 43.4 61.0524 44.696C58.6524 45.944 55.9164 46.568 52.8444 46.568H41.6124V65H32.1084ZM41.6124 37.928H51.9084C54.1644 37.928 55.9884 37.304 57.3804 36.056C58.7724 34.808 59.4684 33.104 59.4684 30.944V30.224C59.4684 28.064 58.7724 26.36 57.3804 25.112C55.9884 23.864 54.1644 23.24 51.9084 23.24H41.6124V37.928ZM75.8495 65V29.288H84.7775V33.32H86.0735C86.6015 31.88 87.4655 30.824 88.6655 30.152C89.9135 29.48 91.3535 29.144 92.9855 29.144H97.3055V37.208H92.8415C90.5375 37.208 88.6415 37.832 87.1535 39.08C85.6655 40.28 84.9215 42.152 84.9215 44.696V65H75.8495ZM119.403 66.008C115.851 66.008 112.707 65.264 109.971 63.776C107.283 62.24 105.171 60.104 103.635 57.368C102.147 54.584 101.403 51.32 101.403 47.576V46.712C101.403 42.968 102.147 39.728 103.635 36.992C105.123 34.208 107.211 32.072 109.899 30.584C112.587 29.048 115.707 28.28 119.259 28.28C122.763 28.28 125.811 29.072 128.403 30.656C130.995 32.192 133.011 34.352 134.451 37.136C135.891 39.872 136.611 43.064 136.611 46.712V49.808H110.619C110.715 52.256 111.627 54.248 113.355 55.784C115.083 57.32 117.195 58.088 119.691 58.088C122.235 58.088 124.107 57.536 125.307 56.432C126.507 55.328 127.419 54.104 128.043 52.76L135.459 56.648C134.787 57.896 133.803 59.264 132.507 60.752C131.259 62.192 129.579 63.44 127.467 64.496C125.355 65.504 122.667 66.008 119.403 66.008ZM110.691 43.04H127.395C127.203 40.976 126.363 39.32 124.875 38.072C123.435 36.824 121.539 36.2 119.187 36.2C116.739 36.2 114.795 36.824 113.355 38.072C111.915 39.32 111.027 40.976 110.691 43.04ZM142.957 47.288V46.136C142.957 42.392 143.701 39.2 145.189 36.56C146.677 33.872 148.645 31.832 151.093 30.44C153.589 29 156.301 28.28 159.229 28.28C162.493 28.28 164.965 28.856 166.645 30.008C168.325 31.16 169.549 32.36 170.317 33.608H171.613V29.288H180.541V71.336C180.541 73.784 179.821 75.728 178.381 77.168C176.941 78.656 175.021 79.4 172.621 79.4H148.717V71.48H169.453C170.797 71.48 171.469 70.76 171.469 69.32V60.032H170.173C169.693 60.8 169.021 61.592 168.157 62.408C167.293 63.176 166.141 63.824 164.701 64.352C163.261 64.88 161.437 65.144 159.229 65.144C156.301 65.144 153.589 64.448 151.093 63.056C148.645 61.616 146.677 59.576 145.189 56.936C143.701 54.248 142.957 51.032 142.957 47.288ZM161.821 57.224C164.605 57.224 166.933 56.336 168.805 54.56C170.677 52.784 171.613 50.288 171.613 47.072V46.352C171.613 43.088 170.677 40.592 168.805 38.864C166.981 37.088 164.653 36.2 161.821 36.2C159.037 36.2 156.709 37.088 154.837 38.864C152.965 40.592 152.029 43.088 152.029 46.352V47.072C152.029 50.288 152.965 52.784 154.837 54.56C156.709 56.336 159.037 57.224 161.821 57.224ZM204.207 65.576C201.423 65.576 198.975 64.952 196.863 63.704C194.799 62.408 193.191 60.632 192.039 58.376C190.887 56.12 190.311 53.528 190.311 50.6V29.288H199.383V49.88C199.383 52.568 200.031 54.584 201.327 55.928C202.671 57.272 204.567 57.944 207.015 57.944C209.799 57.944 211.959 57.032 213.495 55.208C215.031 53.336 215.799 50.744 215.799 47.432V29.288H224.871V65H215.943V60.32H214.647C214.071 61.52 212.991 62.696 211.407 63.848C209.823 65 207.423 65.576 204.207 65.576ZM234.967 65V29.288H243.895V33.968H245.191C245.767 32.72 246.847 31.544 248.431 30.44C250.015 29.288 252.415 28.712 255.631 28.712C258.415 28.712 260.839 29.36 262.903 30.656C265.015 31.904 266.647 33.656 267.799 35.912C268.951 38.12 269.527 40.712 269.527 43.688V65H260.455V44.408C260.455 41.72 259.783 39.704 258.439 38.36C257.143 37.016 255.271 36.344 252.823 36.344C250.039 36.344 247.879 37.28 246.343 39.152C244.807 40.976 244.039 43.544 244.039 46.856V65H234.967ZM292.029 65C289.677 65 287.757 64.28 286.269 62.84C284.829 61.352 284.109 59.384 284.109 56.936V36.776H275.181V29.288H284.109V18.2H293.181V29.288H302.973V36.776H293.181V55.352C293.181 56.792 293.853 57.512 295.197 57.512H302.109V65H292.029ZM322.273 66.008C319.729 66.008 317.449 65.576 315.433 64.712C313.417 63.8 311.809 62.504 310.609 60.824C309.457 59.096 308.881 57.008 308.881 54.56C308.881 52.112 309.457 50.072 310.609 48.44C311.809 46.76 313.441 45.512 315.505 44.696C317.617 43.832 320.017 43.4 322.705 43.4H332.497V41.384C332.497 39.704 331.969 38.336 330.913 37.28C329.857 36.176 328.177 35.624 325.873 35.624C323.617 35.624 321.937 36.152 320.833 37.208C319.729 38.216 319.009 39.536 318.673 41.168L310.321 38.36C310.897 36.536 311.809 34.88 313.057 33.392C314.353 31.856 316.057 30.632 318.169 29.72C320.329 28.76 322.945 28.28 326.017 28.28C330.721 28.28 334.441 29.456 337.177 31.808C339.913 34.16 341.281 37.568 341.281 42.032V55.352C341.281 56.792 341.953 57.512 343.297 57.512H346.177V65H340.129C338.353 65 336.889 64.568 335.737 63.704C334.585 62.84 334.009 61.688 334.009 60.248V60.176H332.641C332.449 60.752 332.017 61.52 331.345 62.48C330.673 63.392 329.617 64.208 328.177 64.928C326.737 65.648 324.769 66.008 322.273 66.008ZM323.857 58.664C326.401 58.664 328.465 57.968 330.049 56.576C331.681 55.136 332.497 53.24 332.497 50.888V50.168H323.353C321.673 50.168 320.353 50.528 319.393 51.248C318.433 51.968 317.953 52.976 317.953 54.272C317.953 55.568 318.457 56.624 319.465 57.44C320.473 58.256 321.937 58.664 323.857 58.664ZM367.361 66.008C362.705 66.008 358.889 65 355.913 62.984C352.937 60.968 351.137 58.088 350.513 54.344L358.865 52.184C359.201 53.864 359.753 55.184 360.521 56.144C361.337 57.104 362.321 57.8 363.473 58.232C364.673 58.616 365.969 58.808 367.361 58.808C369.473 58.808 371.033 58.448 372.041 57.728C373.049 56.96 373.553 56.024 373.553 54.92C373.553 53.816 373.073 52.976 372.113 52.4C371.153 51.776 369.617 51.272 367.505 50.888L365.489 50.528C362.993 50.048 360.713 49.4 358.649 48.584C356.585 47.72 354.929 46.544 353.681 45.056C352.433 43.568 351.809 41.648 351.809 39.296C351.809 35.744 353.105 33.032 355.697 31.16C358.289 29.24 361.697 28.28 365.921 28.28C369.905 28.28 373.217 29.168 375.857 30.944C378.497 32.72 380.225 35.048 381.041 37.928L372.617 40.52C372.233 38.696 371.441 37.4 370.241 36.632C369.089 35.864 367.649 35.48 365.921 35.48C364.193 35.48 362.873 35.792 361.961 36.416C361.049 36.992 360.593 37.808 360.593 38.864C360.593 40.016 361.073 40.88 362.033 41.456C362.993 41.984 364.289 42.392 365.921 42.68L367.937 43.04C370.625 43.52 373.049 44.168 375.209 44.984C377.417 45.752 379.145 46.88 380.393 48.368C381.689 49.808 382.337 51.776 382.337 54.272C382.337 58.016 380.969 60.92 378.233 62.984C375.545 65 371.921 66.008 367.361 66.008ZM16.2177 145V94.6H47.8977V103.24H25.7217V115.408H46.1697V124.048H25.7217V145H16.2177ZM54.9667 145V109.288H63.8947V113.32H65.1907C65.7187 111.88 66.5827 110.824 67.7827 110.152C69.0307 109.48 70.4707 109.144 72.1027 109.144H76.4227V117.208H71.9587C69.6547 117.208 67.7587 117.832 66.2707 119.08C64.7827 120.28 64.0387 122.152 64.0387 124.696V145H54.9667ZM98.5199 146.008C94.9679 146.008 91.8239 145.264 89.0879 143.776C86.3999 142.24 84.2879 140.104 82.7519 137.368C81.2639 134.584 80.5199 131.32 80.5199 127.576V126.712C80.5199 122.968 81.2639 119.728 82.7519 116.992C84.2399 114.208 86.3279 112.072 89.0159 110.584C91.7039 109.048 94.8239 108.28 98.3759 108.28C101.88 108.28 104.928 109.072 107.52 110.656C110.112 112.192 112.128 114.352 113.568 117.136C115.008 119.872 115.728 123.064 115.728 126.712V129.808H89.7359C89.8319 132.256 90.7439 134.248 92.4719 135.784C94.1999 137.32 96.3119 138.088 98.8079 138.088C101.352 138.088 103.224 137.536 104.424 136.432C105.624 135.328 106.536 134.104 107.16 132.76L114.576 136.648C113.904 137.896 112.92 139.264 111.624 140.752C110.376 142.192 108.696 143.44 106.584 144.496C104.472 145.504 101.784 146.008 98.5199 146.008ZM89.8079 123.04H106.512C106.32 120.976 105.48 119.32 103.992 118.072C102.552 116.824 100.656 116.2 98.3039 116.2C95.8559 116.2 93.9119 116.824 92.4719 118.072C91.0319 119.32 90.1439 120.976 89.8079 123.04ZM140.579 146.008C137.123 146.008 133.979 145.288 131.147 143.848C128.363 142.408 126.155 140.32 124.523 137.584C122.891 134.848 122.075 131.536 122.075 127.648V126.64C122.075 122.752 122.891 119.44 124.523 116.704C126.155 113.968 128.363 111.88 131.147 110.44C133.979 109 137.123 108.28 140.579 108.28C143.987 108.28 146.915 108.88 149.363 110.08C151.811 111.28 153.779 112.936 155.267 115.048C156.803 117.112 157.811 119.464 158.291 122.104L149.507 123.976C149.315 122.536 148.883 121.24 148.211 120.088C147.539 118.936 146.579 118.024 145.331 117.352C144.131 116.68 142.619 116.344 140.795 116.344C138.971 116.344 137.315 116.752 135.827 117.568C134.387 118.336 133.235 119.512 132.371 121.096C131.555 122.632 131.147 124.528 131.147 126.784V127.504C131.147 129.76 131.555 131.68 132.371 133.264C133.235 134.8 134.387 135.976 135.827 136.792C137.315 137.56 138.971 137.944 140.795 137.944C143.531 137.944 145.595 137.248 146.987 135.856C148.427 134.416 149.339 132.544 149.723 130.24L158.507 132.328C157.883 134.872 156.803 137.2 155.267 139.312C153.779 141.376 151.811 143.008 149.363 144.208C146.915 145.408 143.987 146.008 140.579 146.008ZM179.598 145.576C176.814 145.576 174.366 144.952 172.254 143.704C170.19 142.408 168.582 140.632 167.43 138.376C166.278 136.12 165.702 133.528 165.702 130.6V109.288H174.774V129.88C174.774 132.568 175.422 134.584 176.718 135.928C178.062 137.272 179.958 137.944 182.406 137.944C185.19 137.944 187.35 137.032 188.886 135.208C190.422 133.336 191.19 130.744 191.19 127.432V109.288H200.262V145H191.334V140.32H190.038C189.462 141.52 188.382 142.696 186.798 143.848C185.214 145 182.814 145.576 179.598 145.576ZM226.629 146.008C223.077 146.008 219.933 145.264 217.197 143.776C214.509 142.24 212.397 140.104 210.861 137.368C209.373 134.584 208.629 131.32 208.629 127.576V126.712C208.629 122.968 209.373 119.728 210.861 116.992C212.349 114.208 214.437 112.072 217.125 110.584C219.813 109.048 222.933 108.28 226.485 108.28C229.989 108.28 233.037 109.072 235.629 110.656C238.221 112.192 240.237 114.352 241.677 117.136C243.117 119.872 243.837 123.064 243.837 126.712V129.808H217.845C217.941 132.256 218.853 134.248 220.581 135.784C222.309 137.32 224.421 138.088 226.917 138.088C229.461 138.088 231.333 137.536 232.533 136.432C233.733 135.328 234.645 134.104 235.269 132.76L242.685 136.648C242.013 137.896 241.029 139.264 239.733 140.752C238.485 142.192 236.805 143.44 234.693 144.496C232.581 145.504 229.893 146.008 226.629 146.008ZM217.917 123.04H234.621C234.429 120.976 233.589 119.32 232.101 118.072C230.661 116.824 228.765 116.2 226.413 116.2C223.965 116.2 222.021 116.824 220.581 118.072C219.141 119.32 218.253 120.976 217.917 123.04ZM251.912 145V109.288H260.84V113.968H262.136C262.712 112.72 263.792 111.544 265.376 110.44C266.96 109.288 269.36 108.712 272.576 108.712C275.36 108.712 277.784 109.36 279.848 110.656C281.96 111.904 283.592 113.656 284.744 115.912C285.896 118.12 286.472 120.712 286.472 123.688V145H277.4V124.408C277.4 121.72 276.728 119.704 275.384 118.36C274.088 117.016 272.216 116.344 269.768 116.344C266.984 116.344 264.824 117.28 263.288 119.152C261.752 120.976 260.984 123.544 260.984 126.856V145H251.912ZM308.975 145C306.623 145 304.703 144.28 303.215 142.84C301.775 141.352 301.055 139.384 301.055 136.936V116.776H292.127V109.288H301.055V98.2H310.127V109.288H319.919V116.776H310.127V135.352C310.127 136.792 310.799 137.512 312.143 137.512H319.055V145H308.975ZM343.137 146.008C339.585 146.008 336.441 145.264 333.705 143.776C331.017 142.24 328.905 140.104 327.369 137.368C325.881 134.584 325.137 131.32 325.137 127.576V126.712C325.137 122.968 325.881 119.728 327.369 116.992C328.857 114.208 330.945 112.072 333.633 110.584C336.321 109.048 339.441 108.28 342.993 108.28C346.497 108.28 349.545 109.072 352.137 110.656C354.729 112.192 356.745 114.352 358.185 117.136C359.625 119.872 360.345 123.064 360.345 126.712V129.808H334.353C334.449 132.256 335.361 134.248 337.089 135.784C338.817 137.32 340.929 138.088 343.425 138.088C345.969 138.088 347.841 137.536 349.041 136.432C350.241 135.328 351.153 134.104 351.777 132.76L359.193 136.648C358.521 137.896 357.537 139.264 356.241 140.752C354.993 142.192 353.313 143.44 351.201 144.496C349.089 145.504 346.401 146.008 343.137 146.008ZM334.425 123.04H351.129C350.937 120.976 350.097 119.32 348.609 118.072C347.169 116.824 345.273 116.2 342.921 116.2C340.473 116.2 338.529 116.824 337.089 118.072C335.649 119.32 334.761 120.976 334.425 123.04ZM383.252 146.008C378.596 146.008 374.78 145 371.804 142.984C368.828 140.968 367.028 138.088 366.404 134.344L374.756 132.184C375.092 133.864 375.644 135.184 376.412 136.144C377.228 137.104 378.212 137.8 379.364 138.232C380.564 138.616 381.86 138.808 383.252 138.808C385.364 138.808 386.924 138.448 387.932 137.728C388.94 136.96 389.444 136.024 389.444 134.92C389.444 133.816 388.964 132.976 388.004 132.4C387.044 131.776 385.508 131.272 383.396 130.888L381.38 130.528C378.884 130.048 376.604 129.4 374.54 128.584C372.476 127.72 370.82 126.544 369.572 125.056C368.324 123.568 367.7 121.648 367.7 119.296C367.7 115.744 368.996 113.032 371.588 111.16C374.18 109.24 377.588 108.28 381.812 108.28C385.796 108.28 389.108 109.168 391.748 110.944C394.388 112.72 396.116 115.048 396.932 117.928L388.508 120.52C388.124 118.696 387.332 117.4 386.132 116.632C384.98 115.864 383.54 115.48 381.812 115.48C380.084 115.48 378.764 115.792 377.852 116.416C376.94 116.992 376.484 117.808 376.484 118.864C376.484 120.016 376.964 120.88 377.924 121.456C378.884 121.984 380.18 122.392 381.812 122.68L383.828 123.04C386.516 123.52 388.94 124.168 391.1 124.984C393.308 125.752 395.036 126.88 396.284 128.368C397.58 129.808 398.228 131.776 398.228 134.272C398.228 138.016 396.86 140.92 394.124 142.984C391.436 145 387.812 146.008 383.252 146.008Z" fill="#051118"/>
</g>
</svg>
