<svg width="53" height="50" viewBox="0 0 53 50" fill="none" xmlns="http://www.w3.org/2000/svg">
<path d="M45.6448 40.5528H52.1547V21.3096H44.0938V39.0017C44.0938 39.4123 43.9317 39.8073 43.6388 40.0976C43.3484 40.388 42.9535 40.5528 42.5429 40.5528H16.0405L10.5167 42.3942V39.9381L44.0938 18.6416V0H8.06081V7.0439C8.06081 7.45455 7.89865 7.84951 7.60572 8.13985C7.31541 8.43018 6.92048 8.59497 6.50985 8.59497H0V27.8382H8.06081V10.146C8.06081 9.73538 8.22297 9.34042 8.5159 9.05009C8.80622 8.75975 9.20115 8.59497 9.61177 8.59497H36.1141L41.6379 6.75356V9.20964L8.06081 30.5061V49.1503H44.0938V42.1064C44.0938 41.6958 44.256 41.3008 44.5489 41.0105C44.8392 40.7202 45.2342 40.5554 45.6448 40.5554V40.5528Z" fill="#051118"/>
</svg>
