<svg width="130" height="43" viewBox="0 0 130 43" fill="none" xmlns="http://www.w3.org/2000/svg">
<path d="M0.640753 33.797V28.0005L14.0301 15.7649V15.1223H1.09866V11.1216H19.1815V16.9621L5.74376 29.1976V29.7962H19.547V33.797H0.636353H0.640753Z" fill="#051118"/>
<path d="M24.5223 33.797V1.60158H29.2598V19.9549H29.9951L38.9243 11.1216H45.2293L33.7728 22.116L45.5991 33.8014H39.3426L29.9995 24.3738H29.2642V33.8014H24.5267L24.5223 33.797Z" fill="#051118"/>
<path d="M60.7848 34.444C56.8574 34.444 53.7445 33.3348 51.4418 31.1078C49.1391 28.8851 47.9899 25.6722 47.9899 21.469V13.9252C47.9899 9.72635 49.1391 6.51341 51.4418 4.29076C53.7445 2.06812 56.8574 0.95459 60.7848 0.95459C64.7122 0.95459 67.6314 2.0285 69.736 4.17633C71.8362 6.32415 72.8885 9.25101 72.8885 12.9613V13.2386H67.966V12.8249C67.966 10.6462 67.376 8.8681 66.196 7.49049C65.0161 6.10849 63.2109 5.42189 60.7892 5.42189C58.3676 5.42189 56.4171 6.16571 55.039 7.65334C53.6565 9.14098 52.9696 11.2008 52.9696 13.8415V21.5702C52.9696 24.1758 53.6609 26.2312 55.039 27.732C56.4171 29.2328 58.3368 29.9855 60.7892 29.9855C63.2417 29.9855 65.0161 29.2901 66.196 27.8904C67.376 26.4952 67.966 24.7259 67.966 22.5781V21.7947H72.8885V22.4373C72.8885 26.1475 71.8362 29.0788 69.736 31.2222C67.6358 33.37 64.6506 34.444 60.7848 34.444Z" fill="#051118"/>
<path d="M80.0169 8.04065C79.0966 8.04065 78.3217 7.74137 77.6921 7.1428C77.0625 6.54422 76.7499 5.76959 76.7499 4.81892C76.7499 3.86824 77.0625 3.09361 77.6921 2.49504C78.3217 1.89646 79.0966 1.59718 80.0169 1.59718C80.9371 1.59718 81.7516 1.89646 82.3636 2.49504C82.9756 3.09361 83.2838 3.86824 83.2838 4.81892C83.2838 5.76959 82.9756 6.54422 82.3636 7.1428C81.7516 7.74137 80.9679 8.04065 80.0169 8.04065ZM77.6261 33.797V11.1216H82.3636V33.797H77.6261Z" fill="#051118"/>
<path d="M96.9946 33.797C95.6121 33.797 94.5157 33.3832 93.7056 32.5558C92.891 31.7284 92.486 30.6236 92.486 29.246V15.1267H86.2294V11.126H92.486V3.63057H97.2235V11.126H103.986V15.1267H97.2235V28.4186C97.2235 29.3385 97.6506 29.8006 98.5136 29.8006H103.251V33.8014H96.9946V33.797Z" fill="#051118"/>
<path d="M111.26 43V38.8584H123.914C124.773 38.8584 125.204 38.3963 125.204 37.4764V30.4828H124.469C124.192 31.0946 123.773 31.6887 123.205 32.2521C122.637 32.8199 121.88 33.2864 120.929 33.6561C119.978 34.0258 118.78 34.2063 117.341 34.2063C115.623 34.2063 114.087 33.8234 112.739 33.0575C111.388 32.2917 110.331 31.2046 109.565 29.7918C108.799 28.3834 108.416 26.7109 108.416 24.7787V11.1172H113.153V24.409C113.153 26.372 113.642 27.82 114.624 28.7575C115.606 29.695 116.971 30.1615 118.719 30.1615C120.652 30.1615 122.206 29.5189 123.39 28.2293C124.57 26.9398 125.16 25.0692 125.16 22.6177V11.1172H129.898V38.4403C129.898 39.8223 129.493 40.9226 128.678 41.7501C127.864 42.5775 126.754 42.9912 125.341 42.9912H111.26V43Z" fill="#051118"/>
</svg>
