<svg width="447" height="53" viewBox="0 0 447 53" fill="none" xmlns="http://www.w3.org/2000/svg">
<path d="M0.752 52V1.6H18.392L27.104 45.52H28.4L37.112 1.6H54.752V52H45.536V8.584H44.24L35.6 52H19.904L11.264 8.584H9.968V52H0.752ZM75.6202 53.008C73.0762 53.008 70.7962 52.576 68.7802 51.712C66.7642 50.8 65.1562 49.504 63.9562 47.824C62.8042 46.096 62.2282 44.008 62.2282 41.56C62.2282 39.112 62.8042 37.072 63.9562 35.44C65.1562 33.76 66.7882 32.512 68.8522 31.696C70.9642 30.832 73.3642 30.4 76.0522 30.4H85.8442V28.384C85.8442 26.704 85.3162 25.336 84.2602 24.28C83.2042 23.176 81.5242 22.624 79.2202 22.624C76.9642 22.624 75.2842 23.152 74.1802 24.208C73.0762 25.216 72.3562 26.536 72.0202 28.168L63.6682 25.36C64.2442 23.536 65.1562 21.88 66.4042 20.392C67.7002 18.856 69.4042 17.632 71.5162 16.72C73.6762 15.76 76.2922 15.28 79.3642 15.28C84.0682 15.28 87.7882 16.456 90.5242 18.808C93.2602 21.16 94.6282 24.568 94.6282 29.032V42.352C94.6282 43.792 95.3002 44.512 96.6442 44.512H99.5242V52H93.4762C91.7002 52 90.2362 51.568 89.0842 50.704C87.9322 49.84 87.3562 48.688 87.3562 47.248V47.176H85.9882C85.7962 47.752 85.3642 48.52 84.6922 49.48C84.0202 50.392 82.9642 51.208 81.5242 51.928C80.0842 52.648 78.1162 53.008 75.6202 53.008ZM77.2042 45.664C79.7482 45.664 81.8122 44.968 83.3962 43.576C85.0282 42.136 85.8442 40.24 85.8442 37.888V37.168H76.7002C75.0202 37.168 73.7002 37.528 72.7402 38.248C71.7802 38.968 71.3002 39.976 71.3002 41.272C71.3002 42.568 71.8042 43.624 72.8122 44.44C73.8202 45.256 75.2842 45.664 77.2042 45.664ZM106.157 52V16.288H115.229V52H106.157ZM110.693 12.112C109.061 12.112 107.669 11.584 106.517 10.528C105.413 9.472 104.861 8.08 104.861 6.352C104.861 4.624 105.413 3.232 106.517 2.176C107.669 1.12 109.061 0.591997 110.693 0.591997C112.373 0.591997 113.765 1.12 114.869 2.176C115.973 3.232 116.525 4.624 116.525 6.352C116.525 8.08 115.973 9.472 114.869 10.528C113.765 11.584 112.373 12.112 110.693 12.112ZM125.282 52V16.288H134.21V20.968H135.506C136.082 19.72 137.162 18.544 138.746 17.44C140.33 16.288 142.73 15.712 145.946 15.712C148.73 15.712 151.154 16.36 153.218 17.656C155.33 18.904 156.962 20.656 158.114 22.912C159.266 25.12 159.842 27.712 159.842 30.688V52H150.77V31.408C150.77 28.72 150.098 26.704 148.754 25.36C147.458 24.016 145.586 23.344 143.138 23.344C140.354 23.344 138.194 24.28 136.658 26.152C135.122 27.976 134.354 30.544 134.354 33.856V52H125.282ZM197.127 52V10.24H182.439V1.6H221.319V10.24H206.631V52H197.127ZM228.079 52V1.6H237.151V20.68H238.447C238.831 19.912 239.431 19.144 240.247 18.376C241.063 17.608 242.143 16.984 243.487 16.504C244.879 15.976 246.631 15.712 248.743 15.712C251.527 15.712 253.951 16.36 256.015 17.656C258.127 18.904 259.759 20.656 260.911 22.912C262.063 25.12 262.639 27.712 262.639 30.688V52H253.567V31.408C253.567 28.72 252.895 26.704 251.551 25.36C250.255 24.016 248.383 23.344 245.935 23.344C243.151 23.344 240.991 24.28 239.455 26.152C237.919 27.976 237.151 30.544 237.151 33.856V52H228.079ZM288.718 53.008C285.166 53.008 282.022 52.264 279.286 50.776C276.598 49.24 274.486 47.104 272.95 44.368C271.462 41.584 270.718 38.32 270.718 34.576V33.712C270.718 29.968 271.462 26.728 272.95 23.992C274.438 21.208 276.526 19.072 279.214 17.584C281.902 16.048 285.022 15.28 288.574 15.28C292.078 15.28 295.126 16.072 297.718 17.656C300.31 19.192 302.326 21.352 303.766 24.136C305.206 26.872 305.926 30.064 305.926 33.712V36.808H279.934C280.03 39.256 280.942 41.248 282.67 42.784C284.398 44.32 286.51 45.088 289.006 45.088C291.55 45.088 293.422 44.536 294.622 43.432C295.822 42.328 296.734 41.104 297.358 39.76L304.774 43.648C304.102 44.896 303.118 46.264 301.822 47.752C300.574 49.192 298.894 50.44 296.782 51.496C294.67 52.504 291.982 53.008 288.718 53.008ZM280.006 30.04H296.71C296.518 27.976 295.678 26.32 294.19 25.072C292.75 23.824 290.854 23.2 288.502 23.2C286.054 23.2 284.11 23.824 282.67 25.072C281.23 26.32 280.342 27.976 280.006 30.04ZM314.001 52V16.288H322.929V20.176H324.225C324.849 18.976 325.881 17.944 327.321 17.08C328.761 16.168 330.657 15.712 333.009 15.712C335.553 15.712 337.593 16.216 339.129 17.224C340.665 18.184 341.841 19.456 342.657 21.04H343.953C344.769 19.504 345.921 18.232 347.409 17.224C348.897 16.216 351.009 15.712 353.745 15.712C355.953 15.712 357.945 16.192 359.721 17.152C361.545 18.064 362.985 19.48 364.041 21.4C365.145 23.272 365.697 25.648 365.697 28.528V52H356.625V29.176C356.625 27.208 356.121 25.744 355.113 24.784C354.105 23.776 352.689 23.272 350.865 23.272C348.801 23.272 347.193 23.944 346.041 25.288C344.937 26.584 344.385 28.456 344.385 30.904V52H335.313V29.176C335.313 27.208 334.809 25.744 333.801 24.784C332.793 23.776 331.377 23.272 329.553 23.272C327.489 23.272 325.881 23.944 324.729 25.288C323.625 26.584 323.073 28.456 323.073 30.904V52H314.001ZM391.726 53.008C388.174 53.008 385.03 52.264 382.294 50.776C379.606 49.24 377.494 47.104 375.958 44.368C374.47 41.584 373.726 38.32 373.726 34.576V33.712C373.726 29.968 374.47 26.728 375.958 23.992C377.446 21.208 379.534 19.072 382.222 17.584C384.91 16.048 388.03 15.28 391.582 15.28C395.086 15.28 398.134 16.072 400.726 17.656C403.318 19.192 405.334 21.352 406.774 24.136C408.214 26.872 408.934 30.064 408.934 33.712V36.808H382.942C383.038 39.256 383.95 41.248 385.678 42.784C387.406 44.32 389.518 45.088 392.014 45.088C394.558 45.088 396.43 44.536 397.63 43.432C398.83 42.328 399.742 41.104 400.366 39.76L407.782 43.648C407.11 44.896 406.126 46.264 404.83 47.752C403.582 49.192 401.902 50.44 399.79 51.496C397.678 52.504 394.99 53.008 391.726 53.008ZM383.014 30.04H399.718C399.526 27.976 398.686 26.32 397.198 25.072C395.758 23.824 393.862 23.2 391.51 23.2C389.062 23.2 387.118 23.824 385.678 25.072C384.238 26.32 383.35 27.976 383.014 30.04ZM431.841 53.008C427.185 53.008 423.369 52 420.393 49.984C417.417 47.968 415.617 45.088 414.993 41.344L423.345 39.184C423.681 40.864 424.233 42.184 425.001 43.144C425.817 44.104 426.801 44.8 427.953 45.232C429.153 45.616 430.449 45.808 431.841 45.808C433.953 45.808 435.513 45.448 436.521 44.728C437.529 43.96 438.033 43.024 438.033 41.92C438.033 40.816 437.553 39.976 436.593 39.4C435.633 38.776 434.097 38.272 431.985 37.888L429.969 37.528C427.473 37.048 425.193 36.4 423.129 35.584C421.065 34.72 419.409 33.544 418.161 32.056C416.913 30.568 416.289 28.648 416.289 26.296C416.289 22.744 417.585 20.032 420.177 18.16C422.769 16.24 426.177 15.28 430.401 15.28C434.385 15.28 437.697 16.168 440.337 17.944C442.977 19.72 444.705 22.048 445.521 24.928L437.097 27.52C436.713 25.696 435.921 24.4 434.721 23.632C433.569 22.864 432.129 22.48 430.401 22.48C428.673 22.48 427.353 22.792 426.441 23.416C425.529 23.992 425.073 24.808 425.073 25.864C425.073 27.016 425.553 27.88 426.513 28.456C427.473 28.984 428.769 29.392 430.401 29.68L432.417 30.04C435.105 30.52 437.529 31.168 439.689 31.984C441.897 32.752 443.625 33.88 444.873 35.368C446.169 36.808 446.817 38.776 446.817 41.272C446.817 45.016 445.449 47.92 442.713 49.984C440.025 52 436.401 53.008 431.841 53.008Z" fill="#051118"/>
</svg>
