<svg width="409" height="165" viewBox="0 0 409 165" fill="none" xmlns="http://www.w3.org/2000/svg">
<path d="M105.643 65V23.24H90.9546V14.6H129.835V23.24H115.147V65H105.643ZM146.117 66.008C142.565 66.008 139.421 65.264 136.685 63.776C133.997 62.24 131.885 60.104 130.349 57.368C128.861 54.584 128.117 51.32 128.117 47.576V46.712C128.117 42.968 128.861 39.728 130.349 36.992C131.837 34.208 133.925 32.072 136.613 30.584C139.301 29.048 142.421 28.28 145.973 28.28C149.477 28.28 152.525 29.072 155.117 30.656C157.709 32.192 159.725 34.352 161.165 37.136C162.605 39.872 163.325 43.064 163.325 46.712V49.808H137.333C137.429 52.256 138.341 54.248 140.069 55.784C141.797 57.32 143.909 58.088 146.405 58.088C148.949 58.088 150.821 57.536 152.021 56.432C153.221 55.328 154.133 54.104 154.757 52.76L162.173 56.648C161.501 57.896 160.517 59.264 159.221 60.752C157.973 62.192 156.293 63.44 154.181 64.496C152.069 65.504 149.381 66.008 146.117 66.008ZM137.405 43.04H154.109C153.917 40.976 153.077 39.32 151.589 38.072C150.149 36.824 148.253 36.2 145.901 36.2C143.453 36.2 141.509 36.824 140.069 38.072C138.629 39.32 137.741 40.976 137.405 43.04ZM171.399 65V29.288H180.327V33.176H181.623C182.247 31.976 183.279 30.944 184.719 30.08C186.159 29.168 188.055 28.712 190.407 28.712C192.951 28.712 194.991 29.216 196.527 30.224C198.063 31.184 199.239 32.456 200.055 34.04H201.351C202.167 32.504 203.319 31.232 204.807 30.224C206.295 29.216 208.407 28.712 211.143 28.712C213.351 28.712 215.343 29.192 217.119 30.152C218.943 31.064 220.383 32.48 221.439 34.4C222.543 36.272 223.095 38.648 223.095 41.528V65H214.023V42.176C214.023 40.208 213.519 38.744 212.511 37.784C211.503 36.776 210.087 36.272 208.263 36.272C206.199 36.272 204.591 36.944 203.439 38.288C202.335 39.584 201.783 41.456 201.783 43.904V65H192.711V42.176C192.711 40.208 192.207 38.744 191.199 37.784C190.191 36.776 188.775 36.272 186.951 36.272C184.887 36.272 183.279 36.944 182.127 38.288C181.023 39.584 180.471 41.456 180.471 43.904V65H171.399ZM243.941 66.008C241.397 66.008 239.117 65.576 237.101 64.712C235.085 63.8 233.477 62.504 232.277 60.824C231.125 59.096 230.549 57.008 230.549 54.56C230.549 52.112 231.125 50.072 232.277 48.44C233.477 46.76 235.109 45.512 237.173 44.696C239.285 43.832 241.685 43.4 244.373 43.4H254.165V41.384C254.165 39.704 253.637 38.336 252.581 37.28C251.525 36.176 249.845 35.624 247.541 35.624C245.285 35.624 243.605 36.152 242.501 37.208C241.397 38.216 240.677 39.536 240.341 41.168L231.989 38.36C232.565 36.536 233.477 34.88 234.725 33.392C236.021 31.856 237.725 30.632 239.837 29.72C241.997 28.76 244.613 28.28 247.685 28.28C252.389 28.28 256.109 29.456 258.845 31.808C261.581 34.16 262.949 37.568 262.949 42.032V55.352C262.949 56.792 263.621 57.512 264.965 57.512H267.845V65H261.797C260.021 65 258.557 64.568 257.405 63.704C256.253 62.84 255.677 61.688 255.677 60.248V60.176H254.309C254.117 60.752 253.685 61.52 253.013 62.48C252.341 63.392 251.285 64.208 249.845 64.928C248.405 65.648 246.437 66.008 243.941 66.008ZM245.525 58.664C248.069 58.664 250.133 57.968 251.717 56.576C253.349 55.136 254.165 53.24 254.165 50.888V50.168H245.021C243.341 50.168 242.021 50.528 241.061 51.248C240.101 51.968 239.621 52.976 239.621 54.272C239.621 55.568 240.125 56.624 241.133 57.44C242.141 58.256 243.605 58.664 245.525 58.664ZM289.028 66.008C284.372 66.008 280.556 65 277.58 62.984C274.604 60.968 272.804 58.088 272.18 54.344L280.532 52.184C280.868 53.864 281.42 55.184 282.188 56.144C283.004 57.104 283.988 57.8 285.14 58.232C286.34 58.616 287.636 58.808 289.028 58.808C291.14 58.808 292.7 58.448 293.708 57.728C294.716 56.96 295.22 56.024 295.22 54.92C295.22 53.816 294.74 52.976 293.78 52.4C292.82 51.776 291.284 51.272 289.172 50.888L287.156 50.528C284.66 50.048 282.38 49.4 280.316 48.584C278.252 47.72 276.596 46.544 275.348 45.056C274.1 43.568 273.476 41.648 273.476 39.296C273.476 35.744 274.772 33.032 277.364 31.16C279.956 29.24 283.364 28.28 287.588 28.28C291.572 28.28 294.884 29.168 297.524 30.944C300.164 32.72 301.892 35.048 302.708 37.928L294.284 40.52C293.9 38.696 293.108 37.4 291.908 36.632C290.756 35.864 289.316 35.48 287.588 35.48C285.86 35.48 284.54 35.792 283.628 36.416C282.716 36.992 282.26 37.808 282.26 38.864C282.26 40.016 282.74 40.88 283.7 41.456C284.66 41.984 285.956 42.392 287.588 42.68L289.604 43.04C292.292 43.52 294.716 44.168 296.876 44.984C299.084 45.752 300.812 46.88 302.06 48.368C303.356 49.808 304.004 51.776 304.004 54.272C304.004 58.016 302.636 60.92 299.9 62.984C297.212 65 293.588 66.008 289.028 66.008ZM23.0332 145V94.6H43.7693C46.9373 94.6 49.7213 95.248 52.1213 96.544C54.5693 97.792 56.4653 99.568 57.8093 101.872C59.2013 104.176 59.8973 106.912 59.8973 110.08V111.088C59.8973 114.208 59.1773 116.944 57.7373 119.296C56.3453 121.6 54.4253 123.4 51.9773 124.696C49.5773 125.944 46.8413 126.568 43.7693 126.568H32.5373V145H23.0332ZM32.5373 117.928H42.8333C45.0893 117.928 46.9133 117.304 48.3053 116.056C49.6973 114.808 50.3933 113.104 50.3933 110.944V110.224C50.3933 108.064 49.6973 106.36 48.3053 105.112C46.9133 103.864 45.0893 103.24 42.8333 103.24H32.5373V117.928ZM66.7744 145V109.288H75.7024V113.32H76.9984C77.5264 111.88 78.3904 110.824 79.5904 110.152C80.8384 109.48 82.2784 109.144 83.9104 109.144H88.2304V117.208H83.7664C81.4624 117.208 79.5664 117.832 78.0784 119.08C76.5904 120.28 75.8464 122.152 75.8464 124.696V145H66.7744ZM95.3213 145V109.288H104.393V145H95.3213ZM99.8573 105.112C98.2253 105.112 96.8333 104.584 95.6813 103.528C94.5773 102.472 94.0253 101.08 94.0253 99.352C94.0253 97.624 94.5773 96.232 95.6813 95.176C96.8333 94.12 98.2253 93.592 99.8573 93.592C101.537 93.592 102.929 94.12 104.033 95.176C105.137 96.232 105.689 97.624 105.689 99.352C105.689 101.08 105.137 102.472 104.033 103.528C102.929 104.584 101.537 105.112 99.8573 105.112ZM114.446 145V109.288H123.374V113.968H124.67C125.246 112.72 126.326 111.544 127.91 110.44C129.494 109.288 131.894 108.712 135.11 108.712C137.894 108.712 140.318 109.36 142.382 110.656C144.494 111.904 146.126 113.656 147.278 115.912C148.43 118.12 149.006 120.712 149.006 123.688V145H139.934V124.408C139.934 121.72 139.262 119.704 137.918 118.36C136.622 117.016 134.75 116.344 132.302 116.344C129.518 116.344 127.358 117.28 125.822 119.152C124.286 120.976 123.518 123.544 123.518 126.856V145H114.446ZM175.589 146.008C172.133 146.008 168.989 145.288 166.157 143.848C163.373 142.408 161.165 140.32 159.533 137.584C157.901 134.848 157.085 131.536 157.085 127.648V126.64C157.085 122.752 157.901 119.44 159.533 116.704C161.165 113.968 163.373 111.88 166.157 110.44C168.989 109 172.133 108.28 175.589 108.28C178.997 108.28 181.925 108.88 184.373 110.08C186.821 111.28 188.789 112.936 190.277 115.048C191.813 117.112 192.821 119.464 193.301 122.104L184.517 123.976C184.325 122.536 183.893 121.24 183.221 120.088C182.549 118.936 181.589 118.024 180.341 117.352C179.141 116.68 177.629 116.344 175.805 116.344C173.981 116.344 172.325 116.752 170.837 117.568C169.397 118.336 168.245 119.512 167.381 121.096C166.565 122.632 166.157 124.528 166.157 126.784V127.504C166.157 129.76 166.565 131.68 167.381 133.264C168.245 134.8 169.397 135.976 170.837 136.792C172.325 137.56 173.981 137.944 175.805 137.944C178.541 137.944 180.605 137.248 181.997 135.856C183.437 134.416 184.349 132.544 184.733 130.24L193.517 132.328C192.893 134.872 191.813 137.2 190.277 139.312C188.789 141.376 186.821 143.008 184.373 144.208C181.925 145.408 178.997 146.008 175.589 146.008ZM201.001 145V109.288H210.073V145H201.001ZM205.537 105.112C203.905 105.112 202.513 104.584 201.361 103.528C200.257 102.472 199.705 101.08 199.705 99.352C199.705 97.624 200.257 96.232 201.361 95.176C202.513 94.12 203.905 93.592 205.537 93.592C207.217 93.592 208.609 94.12 209.713 95.176C210.817 96.232 211.369 97.624 211.369 99.352C211.369 101.08 210.817 102.472 209.713 103.528C208.609 104.584 207.217 105.112 205.537 105.112ZM220.126 159.4V109.288H229.054V113.608H230.35C231.166 112.216 232.438 110.992 234.166 109.936C235.894 108.832 238.366 108.28 241.582 108.28C244.462 108.28 247.126 109 249.574 110.44C252.022 111.832 253.99 113.896 255.478 116.632C256.966 119.368 257.71 122.68 257.71 126.568V127.72C257.71 131.608 256.966 134.92 255.478 137.656C253.99 140.392 252.022 142.48 249.574 143.92C247.126 145.312 244.462 146.008 241.582 146.008C239.422 146.008 237.598 145.744 236.11 145.216C234.67 144.736 233.494 144.112 232.582 143.344C231.718 142.528 231.022 141.712 230.494 140.896H229.198V159.4H220.126ZM238.846 138.088C241.678 138.088 244.006 137.2 245.83 135.424C247.702 133.6 248.638 130.96 248.638 127.504V126.784C248.638 123.328 247.702 120.712 245.83 118.936C243.958 117.112 241.63 116.2 238.846 116.2C236.062 116.2 233.734 117.112 231.862 118.936C229.99 120.712 229.054 123.328 229.054 126.784V127.504C229.054 130.96 229.99 133.6 231.862 135.424C233.734 137.2 236.062 138.088 238.846 138.088ZM277.128 146.008C274.584 146.008 272.304 145.576 270.288 144.712C268.272 143.8 266.664 142.504 265.464 140.824C264.312 139.096 263.736 137.008 263.736 134.56C263.736 132.112 264.312 130.072 265.464 128.44C266.664 126.76 268.296 125.512 270.36 124.696C272.472 123.832 274.872 123.4 277.56 123.4H287.352V121.384C287.352 119.704 286.824 118.336 285.768 117.28C284.712 116.176 283.032 115.624 280.728 115.624C278.472 115.624 276.792 116.152 275.688 117.208C274.584 118.216 273.864 119.536 273.528 121.168L265.176 118.36C265.752 116.536 266.664 114.88 267.912 113.392C269.208 111.856 270.912 110.632 273.024 109.72C275.184 108.76 277.8 108.28 280.872 108.28C285.576 108.28 289.296 109.456 292.032 111.808C294.768 114.16 296.136 117.568 296.136 122.032V135.352C296.136 136.792 296.808 137.512 298.152 137.512H301.032V145H294.984C293.208 145 291.744 144.568 290.592 143.704C289.44 142.84 288.864 141.688 288.864 140.248V140.176H287.496C287.304 140.752 286.872 141.52 286.2 142.48C285.528 143.392 284.472 144.208 283.032 144.928C281.592 145.648 279.624 146.008 277.128 146.008ZM278.712 138.664C281.256 138.664 283.32 137.968 284.904 136.576C286.536 135.136 287.352 133.24 287.352 130.888V130.168H278.208C276.528 130.168 275.208 130.528 274.248 131.248C273.288 131.968 272.808 132.976 272.808 134.272C272.808 135.568 273.312 136.624 274.32 137.44C275.328 138.256 276.792 138.664 278.712 138.664ZM307.665 145V94.6H316.737V145H307.665ZM343.062 146.008C339.51 146.008 336.366 145.264 333.63 143.776C330.942 142.24 328.83 140.104 327.294 137.368C325.806 134.584 325.062 131.32 325.062 127.576V126.712C325.062 122.968 325.806 119.728 327.294 116.992C328.782 114.208 330.87 112.072 333.558 110.584C336.246 109.048 339.366 108.28 342.918 108.28C346.422 108.28 349.47 109.072 352.062 110.656C354.654 112.192 356.67 114.352 358.11 117.136C359.55 119.872 360.27 123.064 360.27 126.712V129.808H334.278C334.374 132.256 335.286 134.248 337.014 135.784C338.742 137.32 340.854 138.088 343.35 138.088C345.894 138.088 347.766 137.536 348.966 136.432C350.166 135.328 351.078 134.104 351.702 132.76L359.118 136.648C358.446 137.896 357.462 139.264 356.166 140.752C354.918 142.192 353.238 143.44 351.126 144.496C349.014 145.504 346.326 146.008 343.062 146.008ZM334.35 123.04H351.054C350.862 120.976 350.022 119.32 348.534 118.072C347.094 116.824 345.198 116.2 342.846 116.2C340.398 116.2 338.454 116.824 337.014 118.072C335.574 119.32 334.686 120.976 334.35 123.04ZM383.177 146.008C378.521 146.008 374.705 145 371.729 142.984C368.753 140.968 366.953 138.088 366.329 134.344L374.681 132.184C375.017 133.864 375.569 135.184 376.337 136.144C377.153 137.104 378.137 137.8 379.289 138.232C380.489 138.616 381.785 138.808 383.177 138.808C385.289 138.808 386.849 138.448 387.857 137.728C388.865 136.96 389.369 136.024 389.369 134.92C389.369 133.816 388.889 132.976 387.929 132.4C386.969 131.776 385.433 131.272 383.321 130.888L381.305 130.528C378.809 130.048 376.529 129.4 374.465 128.584C372.401 127.72 370.745 126.544 369.497 125.056C368.249 123.568 367.625 121.648 367.625 119.296C367.625 115.744 368.921 113.032 371.513 111.16C374.105 109.24 377.513 108.28 381.737 108.28C385.721 108.28 389.033 109.168 391.673 110.944C394.313 112.72 396.041 115.048 396.857 117.928L388.433 120.52C388.049 118.696 387.257 117.4 386.057 116.632C384.905 115.864 383.465 115.48 381.737 115.48C380.009 115.48 378.689 115.792 377.777 116.416C376.865 116.992 376.409 117.808 376.409 118.864C376.409 120.016 376.889 120.88 377.849 121.456C378.809 121.984 380.105 122.392 381.737 122.68L383.753 123.04C386.441 123.52 388.865 124.168 391.025 124.984C393.233 125.752 394.961 126.88 396.209 128.368C397.505 129.808 398.153 131.776 398.153 134.272C398.153 138.016 396.785 140.92 394.049 142.984C391.361 145 387.737 146.008 383.177 146.008Z" fill="#051118"/>
</svg>
