<svg width="400" height="260" viewBox="0 0 400 260" fill="none" xmlns="http://www.w3.org/2000/svg">
<mask id="mask0_360_12" style="mask-type:alpha" maskUnits="userSpaceOnUse" x="0" y="0" width="400" height="260">
<rect width="400" height="260" fill="#D9D9D9"/>
</mask>
<g mask="url(#mask0_360_12)">
<path d="M49.09 188V201.077L95.9711 209.795V213.896L86.7379 210.82H6V225.185H86.7379L95.9711 222.104V226.21L49.09 234.928V248L100.078 238.52V197.486L49.09 188Z" fill="#051118"/>
<path d="M16.416 65V23.24H1.728V14.6H40.608V23.24H25.92V65H16.416ZM56.8901 66.008C53.3381 66.008 50.1941 65.264 47.4581 63.776C44.7701 62.24 42.6581 60.104 41.1221 57.368C39.6341 54.584 38.8901 51.32 38.8901 47.576V46.712C38.8901 42.968 39.6341 39.728 41.1221 36.992C42.6101 34.208 44.6981 32.072 47.3861 30.584C50.0741 29.048 53.1941 28.28 56.7461 28.28C60.2501 28.28 63.2981 29.072 65.8901 30.656C68.4821 32.192 70.4981 34.352 71.9381 37.136C73.3781 39.872 74.0981 43.064 74.0981 46.712V49.808H48.1061C48.2021 52.256 49.1141 54.248 50.8421 55.784C52.5701 57.32 54.6821 58.088 57.1781 58.088C59.7221 58.088 61.5941 57.536 62.7941 56.432C63.9941 55.328 64.9061 54.104 65.5301 52.76L72.9461 56.648C72.2741 57.896 71.2901 59.264 69.9941 60.752C68.7461 62.192 67.0661 63.44 64.9541 64.496C62.8421 65.504 60.1541 66.008 56.8901 66.008ZM48.1781 43.04H64.8821C64.6901 40.976 63.8501 39.32 62.3621 38.072C60.9221 36.824 59.0261 36.2 56.6741 36.2C54.2261 36.2 52.2821 36.824 50.8421 38.072C49.4021 39.32 48.5141 40.976 48.1781 43.04ZM82.1728 65V29.288H91.1008V33.176H92.3968C93.0208 31.976 94.0528 30.944 95.4928 30.08C96.9328 29.168 98.8288 28.712 101.181 28.712C103.725 28.712 105.765 29.216 107.301 30.224C108.837 31.184 110.013 32.456 110.829 34.04H112.125C112.941 32.504 114.093 31.232 115.581 30.224C117.069 29.216 119.181 28.712 121.917 28.712C124.125 28.712 126.117 29.192 127.893 30.152C129.717 31.064 131.157 32.48 132.213 34.4C133.317 36.272 133.869 38.648 133.869 41.528V65H124.797V42.176C124.797 40.208 124.293 38.744 123.285 37.784C122.277 36.776 120.861 36.272 119.037 36.272C116.973 36.272 115.365 36.944 114.213 38.288C113.109 39.584 112.557 41.456 112.557 43.904V65H103.485V42.176C103.485 40.208 102.981 38.744 101.973 37.784C100.965 36.776 99.5488 36.272 97.7248 36.272C95.6608 36.272 94.0528 36.944 92.9008 38.288C91.7968 39.584 91.2448 41.456 91.2448 43.904V65H82.1728ZM154.714 66.008C152.17 66.008 149.89 65.576 147.874 64.712C145.858 63.8 144.25 62.504 143.05 60.824C141.898 59.096 141.322 57.008 141.322 54.56C141.322 52.112 141.898 50.072 143.05 48.44C144.25 46.76 145.882 45.512 147.946 44.696C150.058 43.832 152.458 43.4 155.146 43.4H164.938V41.384C164.938 39.704 164.41 38.336 163.354 37.28C162.298 36.176 160.618 35.624 158.314 35.624C156.058 35.624 154.378 36.152 153.274 37.208C152.17 38.216 151.45 39.536 151.114 41.168L142.762 38.36C143.338 36.536 144.25 34.88 145.498 33.392C146.794 31.856 148.498 30.632 150.61 29.72C152.77 28.76 155.386 28.28 158.458 28.28C163.162 28.28 166.882 29.456 169.618 31.808C172.354 34.16 173.722 37.568 173.722 42.032V55.352C173.722 56.792 174.394 57.512 175.738 57.512H178.618V65H172.57C170.794 65 169.33 64.568 168.178 63.704C167.026 62.84 166.45 61.688 166.45 60.248V60.176H165.082C164.89 60.752 164.458 61.52 163.786 62.48C163.114 63.392 162.058 64.208 160.618 64.928C159.178 65.648 157.21 66.008 154.714 66.008ZM156.298 58.664C158.842 58.664 160.906 57.968 162.49 56.576C164.122 55.136 164.938 53.24 164.938 50.888V50.168H155.794C154.114 50.168 152.794 50.528 151.834 51.248C150.874 51.968 150.394 52.976 150.394 54.272C150.394 55.568 150.898 56.624 151.906 57.44C152.914 58.256 154.378 58.664 156.298 58.664ZM199.802 66.008C195.146 66.008 191.33 65 188.354 62.984C185.378 60.968 183.578 58.088 182.954 54.344L191.306 52.184C191.642 53.864 192.194 55.184 192.962 56.144C193.778 57.104 194.762 57.8 195.914 58.232C197.114 58.616 198.41 58.808 199.802 58.808C201.914 58.808 203.474 58.448 204.482 57.728C205.49 56.96 205.994 56.024 205.994 54.92C205.994 53.816 205.514 52.976 204.554 52.4C203.594 51.776 202.058 51.272 199.946 50.888L197.93 50.528C195.434 50.048 193.154 49.4 191.09 48.584C189.026 47.72 187.37 46.544 186.122 45.056C184.874 43.568 184.25 41.648 184.25 39.296C184.25 35.744 185.546 33.032 188.138 31.16C190.73 29.24 194.138 28.28 198.362 28.28C202.346 28.28 205.658 29.168 208.298 30.944C210.938 32.72 212.666 35.048 213.482 37.928L205.058 40.52C204.674 38.696 203.882 37.4 202.682 36.632C201.53 35.864 200.09 35.48 198.362 35.48C196.634 35.48 195.314 35.792 194.402 36.416C193.49 36.992 193.034 37.808 193.034 38.864C193.034 40.016 193.514 40.88 194.474 41.456C195.434 41.984 196.73 42.392 198.362 42.68L200.378 43.04C203.066 43.52 205.49 44.168 207.65 44.984C209.858 45.752 211.586 46.88 212.834 48.368C214.13 49.808 214.778 51.776 214.778 54.272C214.778 58.016 213.41 60.92 210.674 62.984C207.986 65 204.362 66.008 199.802 66.008ZM4.752 145V94.6H25.488C28.656 94.6 31.44 95.248 33.84 96.544C36.288 97.792 38.184 99.568 39.528 101.872C40.92 104.176 41.616 106.912 41.616 110.08V111.088C41.616 114.208 40.896 116.944 39.456 119.296C38.064 121.6 36.144 123.4 33.696 124.696C31.296 125.944 28.56 126.568 25.488 126.568H14.256V145H4.752ZM14.256 117.928H24.552C26.808 117.928 28.632 117.304 30.024 116.056C31.416 114.808 32.112 113.104 32.112 110.944V110.224C32.112 108.064 31.416 106.36 30.024 105.112C28.632 103.864 26.808 103.24 24.552 103.24H14.256V117.928ZM48.4931 145V109.288H57.4211V113.32H58.7171C59.2451 111.88 60.1091 110.824 61.3091 110.152C62.5571 109.48 63.9971 109.144 65.6291 109.144H69.9491V117.208H65.4851C63.1811 117.208 61.2851 117.832 59.7971 119.08C58.3091 120.28 57.5651 122.152 57.5651 124.696V145H48.4931ZM77.04 145V109.288H86.112V145H77.04ZM81.576 105.112C79.944 105.112 78.552 104.584 77.4 103.528C76.296 102.472 75.744 101.08 75.744 99.352C75.744 97.624 76.296 96.232 77.4 95.176C78.552 94.12 79.944 93.592 81.576 93.592C83.256 93.592 84.648 94.12 85.752 95.176C86.856 96.232 87.408 97.624 87.408 99.352C87.408 101.08 86.856 102.472 85.752 103.528C84.648 104.584 83.256 105.112 81.576 105.112ZM96.165 145V109.288H105.093V113.968H106.389C106.965 112.72 108.045 111.544 109.629 110.44C111.213 109.288 113.613 108.712 116.829 108.712C119.613 108.712 122.037 109.36 124.101 110.656C126.213 111.904 127.845 113.656 128.997 115.912C130.149 118.12 130.725 120.712 130.725 123.688V145H121.653V124.408C121.653 121.72 120.981 119.704 119.637 118.36C118.341 117.016 116.469 116.344 114.021 116.344C111.237 116.344 109.077 117.28 107.541 119.152C106.005 120.976 105.237 123.544 105.237 126.856V145H96.165ZM157.308 146.008C153.852 146.008 150.708 145.288 147.876 143.848C145.092 142.408 142.884 140.32 141.252 137.584C139.62 134.848 138.804 131.536 138.804 127.648V126.64C138.804 122.752 139.62 119.44 141.252 116.704C142.884 113.968 145.092 111.88 147.876 110.44C150.708 109 153.852 108.28 157.308 108.28C160.716 108.28 163.644 108.88 166.092 110.08C168.54 111.28 170.508 112.936 171.996 115.048C173.532 117.112 174.54 119.464 175.02 122.104L166.236 123.976C166.044 122.536 165.612 121.24 164.94 120.088C164.268 118.936 163.308 118.024 162.06 117.352C160.86 116.68 159.348 116.344 157.524 116.344C155.7 116.344 154.044 116.752 152.556 117.568C151.116 118.336 149.964 119.512 149.1 121.096C148.284 122.632 147.876 124.528 147.876 126.784V127.504C147.876 129.76 148.284 131.68 149.1 133.264C149.964 134.8 151.116 135.976 152.556 136.792C154.044 137.56 155.7 137.944 157.524 137.944C160.26 137.944 162.324 137.248 163.716 135.856C165.156 134.416 166.068 132.544 166.452 130.24L175.236 132.328C174.612 134.872 173.532 137.2 171.996 139.312C170.508 141.376 168.54 143.008 166.092 144.208C163.644 145.408 160.716 146.008 157.308 146.008ZM182.72 145V109.288H191.792V145H182.72ZM187.256 105.112C185.624 105.112 184.232 104.584 183.08 103.528C181.976 102.472 181.424 101.08 181.424 99.352C181.424 97.624 181.976 96.232 183.08 95.176C184.232 94.12 185.624 93.592 187.256 93.592C188.936 93.592 190.328 94.12 191.432 95.176C192.536 96.232 193.088 97.624 193.088 99.352C193.088 101.08 192.536 102.472 191.432 103.528C190.328 104.584 188.936 105.112 187.256 105.112ZM201.845 159.4V109.288H210.773V113.608H212.069C212.885 112.216 214.157 110.992 215.885 109.936C217.613 108.832 220.085 108.28 223.301 108.28C226.181 108.28 228.845 109 231.293 110.44C233.741 111.832 235.709 113.896 237.197 116.632C238.685 119.368 239.429 122.68 239.429 126.568V127.72C239.429 131.608 238.685 134.92 237.197 137.656C235.709 140.392 233.741 142.48 231.293 143.92C228.845 145.312 226.181 146.008 223.301 146.008C221.141 146.008 219.317 145.744 217.829 145.216C216.389 144.736 215.213 144.112 214.301 143.344C213.437 142.528 212.741 141.712 212.213 140.896H210.917V159.4H201.845ZM220.565 138.088C223.397 138.088 225.725 137.2 227.549 135.424C229.421 133.6 230.357 130.96 230.357 127.504V126.784C230.357 123.328 229.421 120.712 227.549 118.936C225.677 117.112 223.349 116.2 220.565 116.2C217.781 116.2 215.453 117.112 213.581 118.936C211.709 120.712 210.773 123.328 210.773 126.784V127.504C210.773 130.96 211.709 133.6 213.581 135.424C215.453 137.2 217.781 138.088 220.565 138.088ZM258.847 146.008C256.303 146.008 254.023 145.576 252.007 144.712C249.991 143.8 248.383 142.504 247.183 140.824C246.031 139.096 245.455 137.008 245.455 134.56C245.455 132.112 246.031 130.072 247.183 128.44C248.383 126.76 250.015 125.512 252.079 124.696C254.191 123.832 256.591 123.4 259.279 123.4H269.071V121.384C269.071 119.704 268.543 118.336 267.487 117.28C266.431 116.176 264.751 115.624 262.447 115.624C260.191 115.624 258.511 116.152 257.407 117.208C256.303 118.216 255.583 119.536 255.247 121.168L246.895 118.36C247.471 116.536 248.383 114.88 249.631 113.392C250.927 111.856 252.631 110.632 254.743 109.72C256.903 108.76 259.519 108.28 262.591 108.28C267.295 108.28 271.015 109.456 273.751 111.808C276.487 114.16 277.855 117.568 277.855 122.032V135.352C277.855 136.792 278.527 137.512 279.871 137.512H282.751V145H276.703C274.927 145 273.463 144.568 272.311 143.704C271.159 142.84 270.583 141.688 270.583 140.248V140.176H269.215C269.023 140.752 268.591 141.52 267.919 142.48C267.247 143.392 266.191 144.208 264.751 144.928C263.311 145.648 261.343 146.008 258.847 146.008ZM260.431 138.664C262.975 138.664 265.039 137.968 266.623 136.576C268.255 135.136 269.071 133.24 269.071 130.888V130.168H259.927C258.247 130.168 256.927 130.528 255.967 131.248C255.007 131.968 254.527 132.976 254.527 134.272C254.527 135.568 255.031 136.624 256.039 137.44C257.047 138.256 258.511 138.664 260.431 138.664ZM289.384 145V94.6H298.456V145H289.384ZM324.781 146.008C321.229 146.008 318.085 145.264 315.349 143.776C312.661 142.24 310.549 140.104 309.013 137.368C307.525 134.584 306.781 131.32 306.781 127.576V126.712C306.781 122.968 307.525 119.728 309.013 116.992C310.501 114.208 312.589 112.072 315.277 110.584C317.965 109.048 321.085 108.28 324.637 108.28C328.141 108.28 331.189 109.072 333.781 110.656C336.373 112.192 338.389 114.352 339.829 117.136C341.269 119.872 341.989 123.064 341.989 126.712V129.808H315.997C316.093 132.256 317.005 134.248 318.733 135.784C320.461 137.32 322.573 138.088 325.069 138.088C327.613 138.088 329.485 137.536 330.685 136.432C331.885 135.328 332.797 134.104 333.421 132.76L340.837 136.648C340.165 137.896 339.181 139.264 337.885 140.752C336.637 142.192 334.957 143.44 332.845 144.496C330.733 145.504 328.045 146.008 324.781 146.008ZM316.069 123.04H332.773C332.581 120.976 331.741 119.32 330.253 118.072C328.813 116.824 326.917 116.2 324.565 116.2C322.117 116.2 320.173 116.824 318.733 118.072C317.293 119.32 316.405 120.976 316.069 123.04ZM364.895 146.008C360.239 146.008 356.423 145 353.447 142.984C350.471 140.968 348.671 138.088 348.047 134.344L356.399 132.184C356.735 133.864 357.287 135.184 358.055 136.144C358.871 137.104 359.855 137.8 361.007 138.232C362.207 138.616 363.503 138.808 364.895 138.808C367.007 138.808 368.567 138.448 369.575 137.728C370.583 136.96 371.087 136.024 371.087 134.92C371.087 133.816 370.607 132.976 369.647 132.4C368.687 131.776 367.151 131.272 365.039 130.888L363.023 130.528C360.527 130.048 358.247 129.4 356.183 128.584C354.119 127.72 352.463 126.544 351.215 125.056C349.967 123.568 349.343 121.648 349.343 119.296C349.343 115.744 350.639 113.032 353.231 111.16C355.823 109.24 359.231 108.28 363.455 108.28C367.439 108.28 370.751 109.168 373.391 110.944C376.031 112.72 377.759 115.048 378.575 117.928L370.151 120.52C369.767 118.696 368.975 117.4 367.775 116.632C366.623 115.864 365.183 115.48 363.455 115.48C361.727 115.48 360.407 115.792 359.495 116.416C358.583 116.992 358.127 117.808 358.127 118.864C358.127 120.016 358.607 120.88 359.567 121.456C360.527 121.984 361.823 122.392 363.455 122.68L365.471 123.04C368.159 123.52 370.583 124.168 372.743 124.984C374.951 125.752 376.679 126.88 377.927 128.368C379.223 129.808 379.871 131.776 379.871 134.272C379.871 138.016 378.503 140.92 375.767 142.984C373.079 145 369.455 146.008 364.895 146.008Z" fill="#051118"/>
</g>
</svg>
