<svg width="283" height="52" viewBox="0 0 283 52" fill="none" xmlns="http://www.w3.org/2000/svg">
<path d="M0.752 51V0.599997H18.392L27.104 44.52H28.4L37.112 0.599997H54.752V51H45.536V7.584H44.24L35.6 51H19.904L11.264 7.584H9.968V51H0.752ZM80.8042 52.008C77.2522 52.008 74.1082 51.264 71.3722 49.776C68.6842 48.24 66.5722 46.104 65.0362 43.368C63.5482 40.584 62.8042 37.32 62.8042 33.576V32.712C62.8042 28.968 63.5482 25.728 65.0362 22.992C66.5242 20.208 68.6122 18.072 71.3002 16.584C73.9882 15.048 77.1082 14.28 80.6602 14.28C84.1642 14.28 87.2122 15.072 89.8042 16.656C92.3962 18.192 94.4122 20.352 95.8522 23.136C97.2922 25.872 98.0122 29.064 98.0122 32.712V35.808H72.0202C72.1162 38.256 73.0282 40.248 74.7562 41.784C76.4842 43.32 78.5962 44.088 81.0922 44.088C83.6362 44.088 85.5082 43.536 86.7082 42.432C87.9082 41.328 88.8202 40.104 89.4442 38.76L96.8602 42.648C96.1882 43.896 95.2042 45.264 93.9082 46.752C92.6602 48.192 90.9802 49.44 88.8682 50.496C86.7562 51.504 84.0682 52.008 80.8042 52.008ZM72.0922 29.04H88.7962C88.6042 26.976 87.7642 25.32 86.2762 24.072C84.8362 22.824 82.9402 22.2 80.5882 22.2C78.1402 22.2 76.1962 22.824 74.7562 24.072C73.3162 25.32 72.4282 26.976 72.0922 29.04ZM106.087 51V15.288H115.015V19.968H116.311C116.887 18.72 117.967 17.544 119.551 16.44C121.135 15.288 123.535 14.712 126.751 14.712C129.535 14.712 131.959 15.36 134.023 16.656C136.135 17.904 137.767 19.656 138.919 21.912C140.071 24.12 140.647 26.712 140.647 29.688V51H131.575V30.408C131.575 27.72 130.903 25.704 129.559 24.36C128.263 23.016 126.391 22.344 123.943 22.344C121.159 22.344 118.999 23.28 117.463 25.152C115.927 26.976 115.159 29.544 115.159 32.856V51H106.087ZM163.15 51C160.798 51 158.878 50.28 157.39 48.84C155.95 47.352 155.23 45.384 155.23 42.936V22.776H146.302V15.288H155.23V4.2H164.302V15.288H174.094V22.776H164.302V41.352C164.302 42.792 164.974 43.512 166.318 43.512H173.23V51H163.15ZM198.032 52.008C194.48 52.008 191.288 51.288 188.456 49.848C185.624 48.408 183.392 46.32 181.76 43.584C180.128 40.848 179.312 37.56 179.312 33.72V32.568C179.312 28.728 180.128 25.44 181.76 22.704C183.392 19.968 185.624 17.88 188.456 16.44C191.288 15 194.48 14.28 198.032 14.28C201.584 14.28 204.776 15 207.608 16.44C210.44 17.88 212.672 19.968 214.304 22.704C215.936 25.44 216.752 28.728 216.752 32.568V33.72C216.752 37.56 215.936 40.848 214.304 43.584C212.672 46.32 210.44 48.408 207.608 49.848C204.776 51.288 201.584 52.008 198.032 52.008ZM198.032 43.944C200.816 43.944 203.12 43.056 204.944 41.28C206.768 39.456 207.68 36.864 207.68 33.504V32.784C207.68 29.424 206.768 26.856 204.944 25.08C203.168 23.256 200.864 22.344 198.032 22.344C195.248 22.344 192.944 23.256 191.12 25.08C189.296 26.856 188.384 29.424 188.384 32.784V33.504C188.384 36.864 189.296 39.456 191.12 41.28C192.944 43.056 195.248 43.944 198.032 43.944ZM225.126 51V15.288H234.054V19.32H235.35C235.878 17.88 236.742 16.824 237.942 16.152C239.19 15.48 240.63 15.144 242.262 15.144H246.582V23.208H242.118C239.814 23.208 237.918 23.832 236.43 25.08C234.942 26.28 234.198 28.152 234.198 30.696V51H225.126ZM267.661 52.008C263.005 52.008 259.189 51 256.213 48.984C253.237 46.968 251.437 44.088 250.813 40.344L259.165 38.184C259.501 39.864 260.053 41.184 260.821 42.144C261.637 43.104 262.621 43.8 263.773 44.232C264.973 44.616 266.269 44.808 267.661 44.808C269.773 44.808 271.333 44.448 272.341 43.728C273.349 42.96 273.853 42.024 273.853 40.92C273.853 39.816 273.373 38.976 272.413 38.4C271.453 37.776 269.917 37.272 267.805 36.888L265.789 36.528C263.293 36.048 261.013 35.4 258.949 34.584C256.885 33.72 255.229 32.544 253.981 31.056C252.733 29.568 252.109 27.648 252.109 25.296C252.109 21.744 253.405 19.032 255.997 17.16C258.589 15.24 261.997 14.28 266.221 14.28C270.205 14.28 273.517 15.168 276.157 16.944C278.797 18.72 280.525 21.048 281.341 23.928L272.917 26.52C272.533 24.696 271.741 23.4 270.541 22.632C269.389 21.864 267.949 21.48 266.221 21.48C264.493 21.48 263.173 21.792 262.261 22.416C261.349 22.992 260.893 23.808 260.893 24.864C260.893 26.016 261.373 26.88 262.333 27.456C263.293 27.984 264.589 28.392 266.221 28.68L268.237 29.04C270.925 29.52 273.349 30.168 275.509 30.984C277.717 31.752 279.445 32.88 280.693 34.368C281.989 35.808 282.637 37.776 282.637 40.272C282.637 44.016 281.269 46.92 278.533 48.984C275.845 51 272.221 52.008 267.661 52.008Z" fill="#051118"/>
</svg>
