<svg width="338" height="241" viewBox="0 0 338 241" fill="none" xmlns="http://www.w3.org/2000/svg">
<path d="M48.09 181V194.077L94.9711 202.795V206.896L85.7379 203.82H5V218.185H85.7379L94.9711 215.104V219.21L48.09 227.928V241L99.0776 231.52V190.486L48.09 181Z" fill="#051118"/>
<path d="M4.752 65V14.6H22.392L31.104 58.52H32.4L41.112 14.6H58.752V65H49.536V21.584H48.24L39.6 65H23.904L15.264 21.584H13.968V65H4.752ZM84.8042 66.008C81.2522 66.008 78.1082 65.264 75.3722 63.776C72.6842 62.24 70.5722 60.104 69.0362 57.368C67.5482 54.584 66.8042 51.32 66.8042 47.576V46.712C66.8042 42.968 67.5482 39.728 69.0362 36.992C70.5242 34.208 72.6122 32.072 75.3002 30.584C77.9882 29.048 81.1082 28.28 84.6602 28.28C88.1642 28.28 91.2122 29.072 93.8042 30.656C96.3962 32.192 98.4122 34.352 99.8522 37.136C101.292 39.872 102.012 43.064 102.012 46.712V49.808H76.0202C76.1162 52.256 77.0282 54.248 78.7562 55.784C80.4842 57.32 82.5962 58.088 85.0922 58.088C87.6362 58.088 89.5082 57.536 90.7082 56.432C91.9082 55.328 92.8202 54.104 93.4442 52.76L100.86 56.648C100.188 57.896 99.2042 59.264 97.9082 60.752C96.6602 62.192 94.9802 63.44 92.8682 64.496C90.7562 65.504 88.0682 66.008 84.8042 66.008ZM76.0922 43.04H92.7962C92.6042 40.976 91.7642 39.32 90.2762 38.072C88.8362 36.824 86.9402 36.2 84.5882 36.2C82.1402 36.2 80.1962 36.824 78.7562 38.072C77.3162 39.32 76.4282 40.976 76.0922 43.04ZM110.087 65V29.288H119.015V33.968H120.311C120.887 32.72 121.967 31.544 123.551 30.44C125.135 29.288 127.535 28.712 130.751 28.712C133.535 28.712 135.959 29.36 138.023 30.656C140.135 31.904 141.767 33.656 142.919 35.912C144.071 38.12 144.647 40.712 144.647 43.688V65H135.575V44.408C135.575 41.72 134.903 39.704 133.559 38.36C132.263 37.016 130.391 36.344 127.943 36.344C125.159 36.344 122.999 37.28 121.463 39.152C119.927 40.976 119.159 43.544 119.159 46.856V65H110.087ZM167.15 65C164.798 65 162.878 64.28 161.39 62.84C159.95 61.352 159.23 59.384 159.23 56.936V36.776H150.302V29.288H159.23V18.2H168.302V29.288H178.094V36.776H168.302V55.352C168.302 56.792 168.974 57.512 170.318 57.512H177.23V65H167.15ZM202.032 66.008C198.48 66.008 195.288 65.288 192.456 63.848C189.624 62.408 187.392 60.32 185.76 57.584C184.128 54.848 183.312 51.56 183.312 47.72V46.568C183.312 42.728 184.128 39.44 185.76 36.704C187.392 33.968 189.624 31.88 192.456 30.44C195.288 29 198.48 28.28 202.032 28.28C205.584 28.28 208.776 29 211.608 30.44C214.44 31.88 216.672 33.968 218.304 36.704C219.936 39.44 220.752 42.728 220.752 46.568V47.72C220.752 51.56 219.936 54.848 218.304 57.584C216.672 60.32 214.44 62.408 211.608 63.848C208.776 65.288 205.584 66.008 202.032 66.008ZM202.032 57.944C204.816 57.944 207.12 57.056 208.944 55.28C210.768 53.456 211.68 50.864 211.68 47.504V46.784C211.68 43.424 210.768 40.856 208.944 39.08C207.168 37.256 204.864 36.344 202.032 36.344C199.248 36.344 196.944 37.256 195.12 39.08C193.296 40.856 192.384 43.424 192.384 46.784V47.504C192.384 50.864 193.296 53.456 195.12 55.28C196.944 57.056 199.248 57.944 202.032 57.944ZM229.126 65V29.288H238.054V33.32H239.35C239.878 31.88 240.742 30.824 241.942 30.152C243.19 29.48 244.63 29.144 246.262 29.144H250.582V37.208H246.118C243.814 37.208 241.918 37.832 240.43 39.08C238.942 40.28 238.198 42.152 238.198 44.696V65H229.126ZM272.679 66.008C269.127 66.008 265.983 65.264 263.247 63.776C260.559 62.24 258.447 60.104 256.911 57.368C255.423 54.584 254.679 51.32 254.679 47.576V46.712C254.679 42.968 255.423 39.728 256.911 36.992C258.399 34.208 260.487 32.072 263.175 30.584C265.863 29.048 268.983 28.28 272.535 28.28C276.039 28.28 279.087 29.072 281.679 30.656C284.271 32.192 286.287 34.352 287.727 37.136C289.167 39.872 289.887 43.064 289.887 46.712V49.808H263.895C263.991 52.256 264.903 54.248 266.631 55.784C268.359 57.32 270.471 58.088 272.967 58.088C275.511 58.088 277.383 57.536 278.583 56.432C279.783 55.328 280.695 54.104 281.319 52.76L288.735 56.648C288.063 57.896 287.079 59.264 285.783 60.752C284.535 62.192 282.855 63.44 280.743 64.496C278.631 65.504 275.943 66.008 272.679 66.008ZM263.967 43.04H280.671C280.479 40.976 279.639 39.32 278.151 38.072C276.711 36.824 274.815 36.2 272.463 36.2C270.015 36.2 268.071 36.824 266.631 38.072C265.191 39.32 264.303 40.976 263.967 43.04ZM312.794 66.008C308.138 66.008 304.322 65 301.346 62.984C298.37 60.968 296.57 58.088 295.946 54.344L304.298 52.184C304.634 53.864 305.186 55.184 305.954 56.144C306.77 57.104 307.754 57.8 308.906 58.232C310.106 58.616 311.402 58.808 312.794 58.808C314.906 58.808 316.466 58.448 317.474 57.728C318.482 56.96 318.986 56.024 318.986 54.92C318.986 53.816 318.506 52.976 317.546 52.4C316.586 51.776 315.05 51.272 312.938 50.888L310.922 50.528C308.426 50.048 306.146 49.4 304.082 48.584C302.018 47.72 300.362 46.544 299.114 45.056C297.866 43.568 297.242 41.648 297.242 39.296C297.242 35.744 298.538 33.032 301.13 31.16C303.722 29.24 307.13 28.28 311.354 28.28C315.338 28.28 318.65 29.168 321.29 30.944C323.93 32.72 325.658 35.048 326.474 37.928L318.05 40.52C317.666 38.696 316.874 37.4 315.674 36.632C314.522 35.864 313.082 35.48 311.354 35.48C309.626 35.48 308.306 35.792 307.394 36.416C306.482 36.992 306.026 37.808 306.026 38.864C306.026 40.016 306.506 40.88 307.466 41.456C308.426 41.984 309.722 42.392 311.354 42.68L313.37 43.04C316.058 43.52 318.482 44.168 320.642 44.984C322.85 45.752 324.578 46.88 325.826 48.368C327.122 49.808 327.77 51.776 327.77 54.272C327.77 58.016 326.402 60.92 323.666 62.984C320.978 65 317.354 66.008 312.794 66.008ZM24.336 146.008C18 146.008 12.96 144.28 9.216 140.824C5.472 137.32 3.6 132.328 3.6 125.848V113.752C3.6 107.272 5.472 102.304 9.216 98.848C12.96 95.344 18 93.592 24.336 93.592C30.672 93.592 35.712 95.344 39.456 98.848C43.2 102.304 45.072 107.272 45.072 113.752V125.848C45.072 132.328 43.2 137.32 39.456 140.824C35.712 144.28 30.672 146.008 24.336 146.008ZM24.336 137.512C27.888 137.512 30.648 136.48 32.616 134.416C34.584 132.352 35.568 129.592 35.568 126.136V113.464C35.568 110.008 34.584 107.248 32.616 105.184C30.648 103.12 27.888 102.088 24.336 102.088C20.832 102.088 18.072 103.12 16.056 105.184C14.088 107.248 13.104 110.008 13.104 113.464V126.136C13.104 129.592 14.088 132.352 16.056 134.416C18.072 136.48 20.832 137.512 24.336 137.512ZM53.6963 145V109.288H62.6243V113.968H63.9203C64.4963 112.72 65.5763 111.544 67.1602 110.44C68.7443 109.288 71.1443 108.712 74.3603 108.712C77.1443 108.712 79.5683 109.36 81.6323 110.656C83.7443 111.904 85.3763 113.656 86.5283 115.912C87.6803 118.12 88.2563 120.712 88.2563 123.688V145H79.1843V124.408C79.1843 121.72 78.5123 119.704 77.1683 118.36C75.8723 117.016 74.0003 116.344 71.5523 116.344C68.7683 116.344 66.6083 117.28 65.0723 119.152C63.5363 120.976 62.7683 123.544 62.7683 126.856V145H53.6963ZM98.0634 145V94.6H107.135V145H98.0634ZM117.188 145V109.288H126.26V145H117.188ZM121.724 105.112C120.092 105.112 118.7 104.584 117.548 103.528C116.444 102.472 115.892 101.08 115.892 99.352C115.892 97.624 116.444 96.232 117.548 95.176C118.7 94.12 120.092 93.592 121.724 93.592C123.404 93.592 124.796 94.12 125.9 95.176C127.004 96.232 127.556 97.624 127.556 99.352C127.556 101.08 127.004 102.472 125.9 103.528C124.796 104.584 123.404 105.112 121.724 105.112ZM136.313 145V109.288H145.241V113.968H146.537C147.113 112.72 148.193 111.544 149.777 110.44C151.361 109.288 153.761 108.712 156.977 108.712C159.761 108.712 162.185 109.36 164.249 110.656C166.361 111.904 167.993 113.656 169.145 115.912C170.297 118.12 170.873 120.712 170.873 123.688V145H161.801V124.408C161.801 121.72 161.129 119.704 159.785 118.36C158.489 117.016 156.617 116.344 154.169 116.344C151.385 116.344 149.225 117.28 147.689 119.152C146.153 120.976 145.385 123.544 145.385 126.856V145H136.313ZM196.953 146.008C193.401 146.008 190.257 145.264 187.521 143.776C184.833 142.24 182.721 140.104 181.185 137.368C179.697 134.584 178.953 131.32 178.953 127.576V126.712C178.953 122.968 179.697 119.728 181.185 116.992C182.673 114.208 184.761 112.072 187.449 110.584C190.137 109.048 193.257 108.28 196.809 108.28C200.313 108.28 203.361 109.072 205.953 110.656C208.545 112.192 210.561 114.352 212.001 117.136C213.441 119.872 214.161 123.064 214.161 126.712V129.808H188.169C188.265 132.256 189.177 134.248 190.905 135.784C192.633 137.32 194.745 138.088 197.241 138.088C199.785 138.088 201.657 137.536 202.857 136.432C204.057 135.328 204.969 134.104 205.593 132.76L213.009 136.648C212.337 137.896 211.353 139.264 210.057 140.752C208.809 142.192 207.129 143.44 205.017 144.496C202.905 145.504 200.217 146.008 196.953 146.008ZM188.241 123.04H204.945C204.753 120.976 203.913 119.32 202.425 118.072C200.985 116.824 199.089 116.2 196.737 116.2C194.289 116.2 192.345 116.824 190.905 118.072C189.465 119.32 188.577 120.976 188.241 123.04Z" fill="#051118"/>
</svg>
