<svg width="560" height="53" viewBox="0 0 560 53" fill="none" xmlns="http://www.w3.org/2000/svg">
<path d="M0.752 52V1.6H18.392L27.104 45.52H28.4L37.112 1.6H54.752V52H45.536V8.584H44.24L35.6 52H19.904L11.264 8.584H9.968V52H0.752ZM80.8042 53.008C77.2522 53.008 74.1082 52.264 71.3722 50.776C68.6842 49.24 66.5722 47.104 65.0362 44.368C63.5482 41.584 62.8042 38.32 62.8042 34.576V33.712C62.8042 29.968 63.5482 26.728 65.0362 23.992C66.5242 21.208 68.6122 19.072 71.3002 17.584C73.9882 16.048 77.1082 15.28 80.6602 15.28C84.1642 15.28 87.2122 16.072 89.8042 17.656C92.3962 19.192 94.4122 21.352 95.8522 24.136C97.2922 26.872 98.0122 30.064 98.0122 33.712V36.808H72.0202C72.1162 39.256 73.0282 41.248 74.7562 42.784C76.4842 44.32 78.5962 45.088 81.0922 45.088C83.6362 45.088 85.5082 44.536 86.7082 43.432C87.9082 42.328 88.8202 41.104 89.4442 39.76L96.8602 43.648C96.1882 44.896 95.2042 46.264 93.9082 47.752C92.6602 49.192 90.9802 50.44 88.8682 51.496C86.7562 52.504 84.0682 53.008 80.8042 53.008ZM72.0922 30.04H88.7962C88.6042 27.976 87.7642 26.32 86.2762 25.072C84.8362 23.824 82.9402 23.2 80.5882 23.2C78.1402 23.2 76.1962 23.824 74.7562 25.072C73.3162 26.32 72.4282 27.976 72.0922 30.04ZM106.087 52V16.288H115.015V20.968H116.311C116.887 19.72 117.967 18.544 119.551 17.44C121.135 16.288 123.535 15.712 126.751 15.712C129.535 15.712 131.959 16.36 134.023 17.656C136.135 18.904 137.767 20.656 138.919 22.912C140.071 25.12 140.647 27.712 140.647 30.688V52H131.575V31.408C131.575 28.72 130.903 26.704 129.559 25.36C128.263 24.016 126.391 23.344 123.943 23.344C121.159 23.344 118.999 24.28 117.463 26.152C115.927 27.976 115.159 30.544 115.159 33.856V52H106.087ZM163.15 52C160.798 52 158.878 51.28 157.39 49.84C155.95 48.352 155.23 46.384 155.23 43.936V23.776H146.302V16.288H155.23V5.2H164.302V16.288H174.094V23.776H164.302V42.352C164.302 43.792 164.974 44.512 166.318 44.512H173.23V52H163.15ZM198.032 53.008C194.48 53.008 191.288 52.288 188.456 50.848C185.624 49.408 183.392 47.32 181.76 44.584C180.128 41.848 179.312 38.56 179.312 34.72V33.568C179.312 29.728 180.128 26.44 181.76 23.704C183.392 20.968 185.624 18.88 188.456 17.44C191.288 16 194.48 15.28 198.032 15.28C201.584 15.28 204.776 16 207.608 17.44C210.44 18.88 212.672 20.968 214.304 23.704C215.936 26.44 216.752 29.728 216.752 33.568V34.72C216.752 38.56 215.936 41.848 214.304 44.584C212.672 47.32 210.44 49.408 207.608 50.848C204.776 52.288 201.584 53.008 198.032 53.008ZM198.032 44.944C200.816 44.944 203.12 44.056 204.944 42.28C206.768 40.456 207.68 37.864 207.68 34.504V33.784C207.68 30.424 206.768 27.856 204.944 26.08C203.168 24.256 200.864 23.344 198.032 23.344C195.248 23.344 192.944 24.256 191.12 26.08C189.296 27.856 188.384 30.424 188.384 33.784V34.504C188.384 37.864 189.296 40.456 191.12 42.28C192.944 44.056 195.248 44.944 198.032 44.944ZM225.126 52V16.288H234.054V20.32H235.35C235.878 18.88 236.742 17.824 237.942 17.152C239.19 16.48 240.63 16.144 242.262 16.144H246.582V24.208H242.118C239.814 24.208 237.918 24.832 236.43 26.08C234.942 27.28 234.198 29.152 234.198 31.696V52H225.126ZM268.679 53.008C265.127 53.008 261.983 52.264 259.247 50.776C256.559 49.24 254.447 47.104 252.911 44.368C251.423 41.584 250.679 38.32 250.679 34.576V33.712C250.679 29.968 251.423 26.728 252.911 23.992C254.399 21.208 256.487 19.072 259.175 17.584C261.863 16.048 264.983 15.28 268.535 15.28C272.039 15.28 275.087 16.072 277.679 17.656C280.271 19.192 282.287 21.352 283.727 24.136C285.167 26.872 285.887 30.064 285.887 33.712V36.808H259.895C259.991 39.256 260.903 41.248 262.631 42.784C264.359 44.32 266.471 45.088 268.967 45.088C271.511 45.088 273.383 44.536 274.583 43.432C275.783 42.328 276.695 41.104 277.319 39.76L284.735 43.648C284.063 44.896 283.079 46.264 281.783 47.752C280.535 49.192 278.855 50.44 276.743 51.496C274.631 52.504 271.943 53.008 268.679 53.008ZM259.967 30.04H276.671C276.479 27.976 275.639 26.32 274.151 25.072C272.711 23.824 270.815 23.2 268.463 23.2C266.015 23.2 264.071 23.824 262.631 25.072C261.191 26.32 260.303 27.976 259.967 30.04ZM308.794 53.008C304.138 53.008 300.322 52 297.346 49.984C294.37 47.968 292.57 45.088 291.946 41.344L300.298 39.184C300.634 40.864 301.186 42.184 301.954 43.144C302.77 44.104 303.754 44.8 304.906 45.232C306.106 45.616 307.402 45.808 308.794 45.808C310.906 45.808 312.466 45.448 313.474 44.728C314.482 43.96 314.986 43.024 314.986 41.92C314.986 40.816 314.506 39.976 313.546 39.4C312.586 38.776 311.05 38.272 308.938 37.888L306.922 37.528C304.426 37.048 302.146 36.4 300.082 35.584C298.018 34.72 296.362 33.544 295.114 32.056C293.866 30.568 293.242 28.648 293.242 26.296C293.242 22.744 294.538 20.032 297.13 18.16C299.722 16.24 303.13 15.28 307.354 15.28C311.338 15.28 314.65 16.168 317.29 17.944C319.93 19.72 321.658 22.048 322.474 24.928L314.05 27.52C313.666 25.696 312.874 24.4 311.674 23.632C310.522 22.864 309.082 22.48 307.354 22.48C305.626 22.48 304.306 22.792 303.394 23.416C302.482 23.992 302.026 24.808 302.026 25.864C302.026 27.016 302.506 27.88 303.466 28.456C304.426 28.984 305.722 29.392 307.354 29.68L309.37 30.04C312.058 30.52 314.482 31.168 316.642 31.984C318.85 32.752 320.578 33.88 321.826 35.368C323.122 36.808 323.77 38.776 323.77 41.272C323.77 45.016 322.402 47.92 319.666 49.984C316.978 52 313.354 53.008 308.794 53.008ZM369.297 53.008C362.961 53.008 357.921 51.28 354.177 47.824C350.433 44.32 348.561 39.328 348.561 32.848V20.752C348.561 14.272 350.433 9.304 354.177 5.848C357.921 2.344 362.961 0.591997 369.297 0.591997C375.633 0.591997 380.673 2.344 384.417 5.848C388.161 9.304 390.033 14.272 390.033 20.752V32.848C390.033 39.328 388.161 44.32 384.417 47.824C380.673 51.28 375.633 53.008 369.297 53.008ZM369.297 44.512C372.849 44.512 375.609 43.48 377.577 41.416C379.545 39.352 380.529 36.592 380.529 33.136V20.464C380.529 17.008 379.545 14.248 377.577 12.184C375.609 10.12 372.849 9.088 369.297 9.088C365.793 9.088 363.033 10.12 361.017 12.184C359.049 14.248 358.065 17.008 358.065 20.464V33.136C358.065 36.592 359.049 39.352 361.017 41.416C363.033 43.48 365.793 44.512 369.297 44.512ZM398.657 52V16.288H407.585V20.968H408.881C409.457 19.72 410.537 18.544 412.121 17.44C413.705 16.288 416.105 15.712 419.321 15.712C422.105 15.712 424.529 16.36 426.593 17.656C428.705 18.904 430.337 20.656 431.489 22.912C432.641 25.12 433.217 27.712 433.217 30.688V52H424.145V31.408C424.145 28.72 423.473 26.704 422.129 25.36C420.833 24.016 418.961 23.344 416.513 23.344C413.729 23.344 411.569 24.28 410.033 26.152C408.497 27.976 407.729 30.544 407.729 33.856V52H398.657ZM443.024 52V1.6H452.096V52H443.024ZM462.149 52V16.288H471.221V52H462.149ZM466.685 12.112C465.053 12.112 463.661 11.584 462.509 10.528C461.405 9.472 460.853 8.08 460.853 6.352C460.853 4.624 461.405 3.232 462.509 2.176C463.661 1.12 465.053 0.591997 466.685 0.591997C468.365 0.591997 469.757 1.12 470.861 2.176C471.965 3.232 472.517 4.624 472.517 6.352C472.517 8.08 471.965 9.472 470.861 10.528C469.757 11.584 468.365 12.112 466.685 12.112ZM481.274 52V16.288H490.202V20.968H491.498C492.074 19.72 493.154 18.544 494.738 17.44C496.322 16.288 498.722 15.712 501.938 15.712C504.722 15.712 507.146 16.36 509.21 17.656C511.322 18.904 512.954 20.656 514.106 22.912C515.258 25.12 515.834 27.712 515.834 30.688V52H506.762V31.408C506.762 28.72 506.09 26.704 504.746 25.36C503.45 24.016 501.578 23.344 499.13 23.344C496.346 23.344 494.186 24.28 492.65 26.152C491.114 27.976 490.346 30.544 490.346 33.856V52H481.274ZM541.914 53.008C538.362 53.008 535.218 52.264 532.482 50.776C529.794 49.24 527.682 47.104 526.146 44.368C524.658 41.584 523.914 38.32 523.914 34.576V33.712C523.914 29.968 524.658 26.728 526.146 23.992C527.634 21.208 529.722 19.072 532.41 17.584C535.098 16.048 538.218 15.28 541.77 15.28C545.274 15.28 548.322 16.072 550.914 17.656C553.506 19.192 555.522 21.352 556.962 24.136C558.402 26.872 559.122 30.064 559.122 33.712V36.808H533.13C533.226 39.256 534.138 41.248 535.866 42.784C537.594 44.32 539.706 45.088 542.202 45.088C544.746 45.088 546.618 44.536 547.818 43.432C549.018 42.328 549.93 41.104 550.554 39.76L557.97 43.648C557.298 44.896 556.314 46.264 555.018 47.752C553.77 49.192 552.09 50.44 549.978 51.496C547.866 52.504 545.178 53.008 541.914 53.008ZM533.202 30.04H549.906C549.714 27.976 548.874 26.32 547.386 25.072C545.946 23.824 544.05 23.2 541.698 23.2C539.25 23.2 537.306 23.824 535.866 25.072C534.426 26.32 533.538 27.976 533.202 30.04Z" fill="#051118"/>
</svg>
