<svg width="341" height="88" viewBox="0 0 341 88" fill="none" xmlns="http://www.w3.org/2000/svg">
<mask id="mask0_367_6" style="mask-type:alpha" maskUnits="userSpaceOnUse" x="0" y="0" width="341" height="88">
<rect width="341" height="88" fill="#D9D9D9"/>
</mask>
<g mask="url(#mask0_367_6)">
<path d="M7.752 75V24.6H25.392L34.104 68.52H35.4L44.112 24.6H61.752V75H52.536V31.584H51.24L42.6 75H26.904L18.264 31.584H16.968V75H7.752ZM87.8042 76.008C84.2522 76.008 81.1082 75.264 78.3722 73.776C75.6842 72.24 73.5722 70.104 72.0362 67.368C70.5482 64.584 69.8042 61.32 69.8042 57.576V56.712C69.8042 52.968 70.5482 49.728 72.0362 46.992C73.5242 44.208 75.6122 42.072 78.3002 40.584C80.9882 39.048 84.1082 38.28 87.6602 38.28C91.1642 38.28 94.2122 39.072 96.8042 40.656C99.3962 42.192 101.412 44.352 102.852 47.136C104.292 49.872 105.012 53.064 105.012 56.712V59.808H79.0202C79.1162 62.256 80.0282 64.248 81.7562 65.784C83.4842 67.32 85.5962 68.088 88.0922 68.088C90.6362 68.088 92.5082 67.536 93.7082 66.432C94.9082 65.328 95.8202 64.104 96.4442 62.76L103.86 66.648C103.188 67.896 102.204 69.264 100.908 70.752C99.6602 72.192 97.9802 73.44 95.8682 74.496C93.7562 75.504 91.0682 76.008 87.8042 76.008ZM79.0922 53.04H95.7962C95.6042 50.976 94.7642 49.32 93.2762 48.072C91.8362 46.824 89.9402 46.2 87.5882 46.2C85.1402 46.2 83.1962 46.824 81.7562 48.072C80.3162 49.32 79.4282 50.976 79.0922 53.04ZM113.087 75V39.288H122.015V43.968H123.311C123.887 42.72 124.967 41.544 126.551 40.44C128.135 39.288 130.535 38.712 133.751 38.712C136.535 38.712 138.959 39.36 141.023 40.656C143.135 41.904 144.767 43.656 145.919 45.912C147.071 48.12 147.647 50.712 147.647 53.688V75H138.575V54.408C138.575 51.72 137.903 49.704 136.559 48.36C135.263 47.016 133.391 46.344 130.943 46.344C128.159 46.344 125.999 47.28 124.463 49.152C122.927 50.976 122.159 53.544 122.159 56.856V75H113.087ZM170.15 75C167.798 75 165.878 74.28 164.39 72.84C162.95 71.352 162.23 69.384 162.23 66.936V46.776H153.302V39.288H162.23V28.2H171.302V39.288H181.094V46.776H171.302V65.352C171.302 66.792 171.974 67.512 173.318 67.512H180.23V75H170.15ZM205.032 76.008C201.48 76.008 198.288 75.288 195.456 73.848C192.624 72.408 190.392 70.32 188.76 67.584C187.128 64.848 186.312 61.56 186.312 57.72V56.568C186.312 52.728 187.128 49.44 188.76 46.704C190.392 43.968 192.624 41.88 195.456 40.44C198.288 39 201.48 38.28 205.032 38.28C208.584 38.28 211.776 39 214.608 40.44C217.44 41.88 219.672 43.968 221.304 46.704C222.936 49.44 223.752 52.728 223.752 56.568V57.72C223.752 61.56 222.936 64.848 221.304 67.584C219.672 70.32 217.44 72.408 214.608 73.848C211.776 75.288 208.584 76.008 205.032 76.008ZM205.032 67.944C207.816 67.944 210.12 67.056 211.944 65.28C213.768 63.456 214.68 60.864 214.68 57.504V56.784C214.68 53.424 213.768 50.856 211.944 49.08C210.168 47.256 207.864 46.344 205.032 46.344C202.248 46.344 199.944 47.256 198.12 49.08C196.296 50.856 195.384 53.424 195.384 56.784V57.504C195.384 60.864 196.296 63.456 198.12 65.28C199.944 67.056 202.248 67.944 205.032 67.944ZM232.126 75V39.288H241.054V43.32H242.35C242.878 41.88 243.742 40.824 244.942 40.152C246.19 39.48 247.63 39.144 249.262 39.144H253.582V47.208H249.118C246.814 47.208 244.918 47.832 243.43 49.08C241.942 50.28 241.198 52.152 241.198 54.696V75H232.126ZM275.679 76.008C272.127 76.008 268.983 75.264 266.247 73.776C263.559 72.24 261.447 70.104 259.911 67.368C258.423 64.584 257.679 61.32 257.679 57.576V56.712C257.679 52.968 258.423 49.728 259.911 46.992C261.399 44.208 263.487 42.072 266.175 40.584C268.863 39.048 271.983 38.28 275.535 38.28C279.039 38.28 282.087 39.072 284.679 40.656C287.271 42.192 289.287 44.352 290.727 47.136C292.167 49.872 292.887 53.064 292.887 56.712V59.808H266.895C266.991 62.256 267.903 64.248 269.631 65.784C271.359 67.32 273.471 68.088 275.967 68.088C278.511 68.088 280.383 67.536 281.583 66.432C282.783 65.328 283.695 64.104 284.319 62.76L291.735 66.648C291.063 67.896 290.079 69.264 288.783 70.752C287.535 72.192 285.855 73.44 283.743 74.496C281.631 75.504 278.943 76.008 275.679 76.008ZM266.967 53.04H283.671C283.479 50.976 282.639 49.32 281.151 48.072C279.711 46.824 277.815 46.2 275.463 46.2C273.015 46.2 271.071 46.824 269.631 48.072C268.191 49.32 267.303 50.976 266.967 53.04ZM315.794 76.008C311.138 76.008 307.322 75 304.346 72.984C301.37 70.968 299.57 68.088 298.946 64.344L307.298 62.184C307.634 63.864 308.186 65.184 308.954 66.144C309.77 67.104 310.754 67.8 311.906 68.232C313.106 68.616 314.402 68.808 315.794 68.808C317.906 68.808 319.466 68.448 320.474 67.728C321.482 66.96 321.986 66.024 321.986 64.92C321.986 63.816 321.506 62.976 320.546 62.4C319.586 61.776 318.05 61.272 315.938 60.888L313.922 60.528C311.426 60.048 309.146 59.4 307.082 58.584C305.018 57.72 303.362 56.544 302.114 55.056C300.866 53.568 300.242 51.648 300.242 49.296C300.242 45.744 301.538 43.032 304.13 41.16C306.722 39.24 310.13 38.28 314.354 38.28C318.338 38.28 321.65 39.168 324.29 40.944C326.93 42.72 328.658 45.048 329.474 47.928L321.05 50.52C320.666 48.696 319.874 47.4 318.674 46.632C317.522 45.864 316.082 45.48 314.354 45.48C312.626 45.48 311.306 45.792 310.394 46.416C309.482 46.992 309.026 47.808 309.026 48.864C309.026 50.016 309.506 50.88 310.466 51.456C311.426 51.984 312.722 52.392 314.354 52.68L316.37 53.04C319.058 53.52 321.482 54.168 323.642 54.984C325.85 55.752 327.578 56.88 328.826 58.368C330.122 59.808 330.77 61.776 330.77 64.272C330.77 68.016 329.402 70.92 326.666 72.984C323.978 75 320.354 76.008 315.794 76.008Z" fill="#051118"/>
</g>
</svg>
