<svg width="338" height="252" viewBox="0 0 338 252" fill="none" xmlns="http://www.w3.org/2000/svg">
<path d="M48.09 192V204.955L94.9711 213.591V217.654L85.7379 214.607H5V228.838H85.7379L94.9711 225.785V229.853L48.09 238.49V251.439L99.0776 242.048V201.397L48.09 192Z" fill="#051118"/>
<path d="M24.336 66.008C18 66.008 12.96 64.28 9.216 60.824C5.472 57.32 3.6 52.328 3.6 45.848V33.752C3.6 27.272 5.472 22.304 9.216 18.848C12.96 15.344 18 13.592 24.336 13.592C30.672 13.592 35.712 15.344 39.456 18.848C43.2 22.304 45.072 27.272 45.072 33.752V45.848C45.072 52.328 43.2 57.32 39.456 60.824C35.712 64.28 30.672 66.008 24.336 66.008ZM24.336 57.512C27.888 57.512 30.648 56.48 32.616 54.416C34.584 52.352 35.568 49.592 35.568 46.136V33.464C35.568 30.008 34.584 27.248 32.616 25.184C30.648 23.12 27.888 22.088 24.336 22.088C20.832 22.088 18.072 23.12 16.056 25.184C14.088 27.248 13.104 30.008 13.104 33.464V46.136C13.104 49.592 14.088 52.352 16.056 54.416C18.072 56.48 20.832 57.512 24.336 57.512ZM53.6963 65V29.288H62.6243V33.968H63.9203C64.4963 32.72 65.5763 31.544 67.1602 30.44C68.7443 29.288 71.1443 28.712 74.3603 28.712C77.1443 28.712 79.5683 29.36 81.6323 30.656C83.7443 31.904 85.3763 33.656 86.5283 35.912C87.6803 38.12 88.2563 40.712 88.2563 43.688V65H79.1843V44.408C79.1843 41.72 78.5123 39.704 77.1683 38.36C75.8723 37.016 74.0003 36.344 71.5523 36.344C68.7683 36.344 66.6083 37.28 65.0723 39.152C63.5363 40.976 62.7683 43.544 62.7683 46.856V65H53.6963ZM98.0634 65V14.6H107.135V65H98.0634ZM117.188 65V29.288H126.26V65H117.188ZM121.724 25.112C120.092 25.112 118.7 24.584 117.548 23.528C116.444 22.472 115.892 21.08 115.892 19.352C115.892 17.624 116.444 16.232 117.548 15.176C118.7 14.12 120.092 13.592 121.724 13.592C123.404 13.592 124.796 14.12 125.9 15.176C127.004 16.232 127.556 17.624 127.556 19.352C127.556 21.08 127.004 22.472 125.9 23.528C124.796 24.584 123.404 25.112 121.724 25.112ZM136.313 65V29.288H145.241V33.968H146.537C147.113 32.72 148.193 31.544 149.777 30.44C151.361 29.288 153.761 28.712 156.977 28.712C159.761 28.712 162.185 29.36 164.249 30.656C166.361 31.904 167.993 33.656 169.145 35.912C170.297 38.12 170.873 40.712 170.873 43.688V65H161.801V44.408C161.801 41.72 161.129 39.704 159.785 38.36C158.489 37.016 156.617 36.344 154.169 36.344C151.385 36.344 149.225 37.28 147.689 39.152C146.153 40.976 145.385 43.544 145.385 46.856V65H136.313ZM196.953 66.008C193.401 66.008 190.257 65.264 187.521 63.776C184.833 62.24 182.721 60.104 181.185 57.368C179.697 54.584 178.953 51.32 178.953 47.576V46.712C178.953 42.968 179.697 39.728 181.185 36.992C182.673 34.208 184.761 32.072 187.449 30.584C190.137 29.048 193.257 28.28 196.809 28.28C200.313 28.28 203.361 29.072 205.953 30.656C208.545 32.192 210.561 34.352 212.001 37.136C213.441 39.872 214.161 43.064 214.161 46.712V49.808H188.169C188.265 52.256 189.177 54.248 190.905 55.784C192.633 57.32 194.745 58.088 197.241 58.088C199.785 58.088 201.657 57.536 202.857 56.432C204.057 55.328 204.969 54.104 205.593 52.76L213.009 56.648C212.337 57.896 211.353 59.264 210.057 60.752C208.809 62.192 207.129 63.44 205.017 64.496C202.905 65.504 200.217 66.008 196.953 66.008ZM188.241 43.04H204.945C204.753 40.976 203.913 39.32 202.425 38.072C200.985 36.824 199.089 36.2 196.737 36.2C194.289 36.2 192.345 36.824 190.905 38.072C189.465 39.32 188.577 40.976 188.241 43.04ZM4.752 145V94.6H22.392L31.104 138.52H32.4L41.112 94.6H58.752V145H49.536V101.584H48.24L39.6 145H23.904L15.264 101.584H13.968V145H4.752ZM84.8042 146.008C81.2522 146.008 78.1082 145.264 75.3722 143.776C72.6842 142.24 70.5722 140.104 69.0362 137.368C67.5482 134.584 66.8042 131.32 66.8042 127.576V126.712C66.8042 122.968 67.5482 119.728 69.0362 116.992C70.5242 114.208 72.6122 112.072 75.3002 110.584C77.9882 109.048 81.1082 108.28 84.6602 108.28C88.1642 108.28 91.2122 109.072 93.8042 110.656C96.3962 112.192 98.4122 114.352 99.8522 117.136C101.292 119.872 102.012 123.064 102.012 126.712V129.808H76.0202C76.1162 132.256 77.0282 134.248 78.7562 135.784C80.4842 137.32 82.5962 138.088 85.0922 138.088C87.6362 138.088 89.5082 137.536 90.7082 136.432C91.9082 135.328 92.8202 134.104 93.4442 132.76L100.86 136.648C100.188 137.896 99.2042 139.264 97.9082 140.752C96.6602 142.192 94.9802 143.44 92.8682 144.496C90.7562 145.504 88.0682 146.008 84.8042 146.008ZM76.0922 123.04H92.7962C92.6042 120.976 91.7642 119.32 90.2762 118.072C88.8362 116.824 86.9402 116.2 84.5882 116.2C82.1402 116.2 80.1962 116.824 78.7562 118.072C77.3162 119.32 76.4282 120.976 76.0922 123.04ZM110.087 145V109.288H119.015V113.968H120.311C120.887 112.72 121.967 111.544 123.551 110.44C125.135 109.288 127.535 108.712 130.751 108.712C133.535 108.712 135.959 109.36 138.023 110.656C140.135 111.904 141.767 113.656 142.919 115.912C144.071 118.12 144.647 120.712 144.647 123.688V145H135.575V124.408C135.575 121.72 134.903 119.704 133.559 118.36C132.263 117.016 130.391 116.344 127.943 116.344C125.159 116.344 122.999 117.28 121.463 119.152C119.927 120.976 119.159 123.544 119.159 126.856V145H110.087ZM167.15 145C164.798 145 162.878 144.28 161.39 142.84C159.95 141.352 159.23 139.384 159.23 136.936V116.776H150.302V109.288H159.23V98.2H168.302V109.288H178.094V116.776H168.302V135.352C168.302 136.792 168.974 137.512 170.318 137.512H177.23V145H167.15ZM202.032 146.008C198.48 146.008 195.288 145.288 192.456 143.848C189.624 142.408 187.392 140.32 185.76 137.584C184.128 134.848 183.312 131.56 183.312 127.72V126.568C183.312 122.728 184.128 119.44 185.76 116.704C187.392 113.968 189.624 111.88 192.456 110.44C195.288 109 198.48 108.28 202.032 108.28C205.584 108.28 208.776 109 211.608 110.44C214.44 111.88 216.672 113.968 218.304 116.704C219.936 119.44 220.752 122.728 220.752 126.568V127.72C220.752 131.56 219.936 134.848 218.304 137.584C216.672 140.32 214.44 142.408 211.608 143.848C208.776 145.288 205.584 146.008 202.032 146.008ZM202.032 137.944C204.816 137.944 207.12 137.056 208.944 135.28C210.768 133.456 211.68 130.864 211.68 127.504V126.784C211.68 123.424 210.768 120.856 208.944 119.08C207.168 117.256 204.864 116.344 202.032 116.344C199.248 116.344 196.944 117.256 195.12 119.08C193.296 120.856 192.384 123.424 192.384 126.784V127.504C192.384 130.864 193.296 133.456 195.12 135.28C196.944 137.056 199.248 137.944 202.032 137.944ZM229.126 145V109.288H238.054V113.32H239.35C239.878 111.88 240.742 110.824 241.942 110.152C243.19 109.48 244.63 109.144 246.262 109.144H250.582V117.208H246.118C243.814 117.208 241.918 117.832 240.43 119.08C238.942 120.28 238.198 122.152 238.198 124.696V145H229.126ZM271.661 146.008C267.005 146.008 263.189 145 260.213 142.984C257.237 140.968 255.437 138.088 254.813 134.344L263.165 132.184C263.501 133.864 264.053 135.184 264.821 136.144C265.637 137.104 266.621 137.8 267.773 138.232C268.973 138.616 270.269 138.808 271.661 138.808C273.773 138.808 275.333 138.448 276.341 137.728C277.349 136.96 277.853 136.024 277.853 134.92C277.853 133.816 277.373 132.976 276.413 132.4C275.453 131.776 273.917 131.272 271.805 130.888L269.789 130.528C267.293 130.048 265.013 129.4 262.949 128.584C260.885 127.72 259.229 126.544 257.981 125.056C256.733 123.568 256.109 121.648 256.109 119.296C256.109 115.744 257.405 113.032 259.997 111.16C262.589 109.24 265.997 108.28 270.221 108.28C274.205 108.28 277.517 109.168 280.157 110.944C282.797 112.72 284.525 115.048 285.341 117.928L276.917 120.52C276.533 118.696 275.741 117.4 274.541 116.632C273.389 115.864 271.949 115.48 270.221 115.48C268.493 115.48 267.173 115.792 266.261 116.416C265.349 116.992 264.893 117.808 264.893 118.864C264.893 120.016 265.373 120.88 266.333 121.456C267.293 121.984 268.589 122.392 270.221 122.68L272.237 123.04C274.925 123.52 277.349 124.168 279.509 124.984C281.717 125.752 283.445 126.88 284.693 128.368C285.989 129.808 286.637 131.776 286.637 134.272C286.637 138.016 285.269 140.92 282.533 142.984C279.845 145 276.221 146.008 271.661 146.008Z" fill="#051118"/>
</svg>
