<svg width="520" height="53" viewBox="0 0 520 53" fill="none" xmlns="http://www.w3.org/2000/svg">
<path d="M21.336 53.008C15 53.008 9.96 51.28 6.216 47.824C2.472 44.32 0.6 39.328 0.6 32.848V20.752C0.6 14.272 2.472 9.304 6.216 5.848C9.96 2.344 15 0.591997 21.336 0.591997C27.672 0.591997 32.712 2.344 36.456 5.848C40.2 9.304 42.072 14.272 42.072 20.752V32.848C42.072 39.328 40.2 44.32 36.456 47.824C32.712 51.28 27.672 53.008 21.336 53.008ZM21.336 44.512C24.888 44.512 27.648 43.48 29.616 41.416C31.584 39.352 32.568 36.592 32.568 33.136V20.464C32.568 17.008 31.584 14.248 29.616 12.184C27.648 10.12 24.888 9.088 21.336 9.088C17.832 9.088 15.072 10.12 13.056 12.184C11.088 14.248 10.104 17.008 10.104 20.464V33.136C10.104 36.592 11.088 39.352 13.056 41.416C15.072 43.48 17.832 44.512 21.336 44.512ZM50.6963 52V16.288H59.6243V20.968H60.9203C61.4963 19.72 62.5763 18.544 64.1602 17.44C65.7443 16.288 68.1443 15.712 71.3603 15.712C74.1443 15.712 76.5683 16.36 78.6323 17.656C80.7443 18.904 82.3763 20.656 83.5283 22.912C84.6803 25.12 85.2563 27.712 85.2563 30.688V52H76.1843V31.408C76.1843 28.72 75.5123 26.704 74.1683 25.36C72.8723 24.016 71.0003 23.344 68.5523 23.344C65.7683 23.344 63.6083 24.28 62.0723 26.152C60.5363 27.976 59.7683 30.544 59.7683 33.856V52H50.6963ZM95.0634 52V1.6H104.135V52H95.0634ZM114.188 52V16.288H123.26V52H114.188ZM118.724 12.112C117.092 12.112 115.7 11.584 114.548 10.528C113.444 9.472 112.892 8.08 112.892 6.352C112.892 4.624 113.444 3.232 114.548 2.176C115.7 1.12 117.092 0.591997 118.724 0.591997C120.404 0.591997 121.796 1.12 122.9 2.176C124.004 3.232 124.556 4.624 124.556 6.352C124.556 8.08 124.004 9.472 122.9 10.528C121.796 11.584 120.404 12.112 118.724 12.112ZM133.313 52V16.288H142.241V20.968H143.537C144.113 19.72 145.193 18.544 146.777 17.44C148.361 16.288 150.761 15.712 153.977 15.712C156.761 15.712 159.185 16.36 161.249 17.656C163.361 18.904 164.993 20.656 166.145 22.912C167.297 25.12 167.873 27.712 167.873 30.688V52H158.801V31.408C158.801 28.72 158.129 26.704 156.785 25.36C155.489 24.016 153.617 23.344 151.169 23.344C148.385 23.344 146.225 24.28 144.689 26.152C143.153 27.976 142.385 30.544 142.385 33.856V52H133.313ZM193.953 53.008C190.401 53.008 187.257 52.264 184.521 50.776C181.833 49.24 179.721 47.104 178.185 44.368C176.697 41.584 175.953 38.32 175.953 34.576V33.712C175.953 29.968 176.697 26.728 178.185 23.992C179.673 21.208 181.761 19.072 184.449 17.584C187.137 16.048 190.257 15.28 193.809 15.28C197.313 15.28 200.361 16.072 202.953 17.656C205.545 19.192 207.561 21.352 209.001 24.136C210.441 26.872 211.161 30.064 211.161 33.712V36.808H185.169C185.265 39.256 186.177 41.248 187.905 42.784C189.633 44.32 191.745 45.088 194.241 45.088C196.785 45.088 198.657 44.536 199.857 43.432C201.057 42.328 201.969 41.104 202.593 39.76L210.009 43.648C209.337 44.896 208.353 46.264 207.057 47.752C205.809 49.192 204.129 50.44 202.017 51.496C199.905 52.504 197.217 53.008 193.953 53.008ZM185.241 30.04H201.945C201.753 27.976 200.913 26.32 199.425 25.072C197.985 23.824 196.089 23.2 193.737 23.2C191.289 23.2 189.345 23.824 187.905 25.072C186.465 26.32 185.577 27.976 185.241 30.04ZM237.229 52V1.6H254.869L263.581 45.52H264.877L273.589 1.6H291.229V52H282.013V8.584H280.717L272.077 52H256.381L247.741 8.584H246.445V52H237.229ZM317.281 53.008C313.729 53.008 310.585 52.264 307.849 50.776C305.161 49.24 303.049 47.104 301.513 44.368C300.025 41.584 299.281 38.32 299.281 34.576V33.712C299.281 29.968 300.025 26.728 301.513 23.992C303.001 21.208 305.089 19.072 307.777 17.584C310.465 16.048 313.585 15.28 317.137 15.28C320.641 15.28 323.689 16.072 326.281 17.656C328.873 19.192 330.889 21.352 332.329 24.136C333.769 26.872 334.489 30.064 334.489 33.712V36.808H308.497C308.593 39.256 309.505 41.248 311.233 42.784C312.961 44.32 315.073 45.088 317.569 45.088C320.113 45.088 321.985 44.536 323.185 43.432C324.385 42.328 325.297 41.104 325.921 39.76L333.337 43.648C332.665 44.896 331.681 46.264 330.385 47.752C329.137 49.192 327.457 50.44 325.345 51.496C323.233 52.504 320.545 53.008 317.281 53.008ZM308.569 30.04H325.273C325.081 27.976 324.241 26.32 322.753 25.072C321.313 23.824 319.417 23.2 317.065 23.2C314.617 23.2 312.673 23.824 311.233 25.072C309.793 26.32 308.905 27.976 308.569 30.04ZM342.563 52V16.288H351.491V20.968H352.787C353.363 19.72 354.443 18.544 356.027 17.44C357.611 16.288 360.011 15.712 363.227 15.712C366.011 15.712 368.435 16.36 370.499 17.656C372.611 18.904 374.243 20.656 375.395 22.912C376.547 25.12 377.123 27.712 377.123 30.688V52H368.051V31.408C368.051 28.72 367.379 26.704 366.035 25.36C364.739 24.016 362.867 23.344 360.419 23.344C357.635 23.344 355.475 24.28 353.939 26.152C352.403 27.976 351.635 30.544 351.635 33.856V52H342.563ZM399.626 52C397.274 52 395.354 51.28 393.866 49.84C392.426 48.352 391.706 46.384 391.706 43.936V23.776H382.778V16.288H391.706V5.2H400.778V16.288H410.57V23.776H400.778V42.352C400.778 43.792 401.45 44.512 402.794 44.512H409.706V52H399.626ZM434.509 53.008C430.957 53.008 427.765 52.288 424.933 50.848C422.101 49.408 419.869 47.32 418.237 44.584C416.605 41.848 415.789 38.56 415.789 34.72V33.568C415.789 29.728 416.605 26.44 418.237 23.704C419.869 20.968 422.101 18.88 424.933 17.44C427.765 16 430.957 15.28 434.509 15.28C438.061 15.28 441.253 16 444.085 17.44C446.917 18.88 449.149 20.968 450.781 23.704C452.413 26.44 453.229 29.728 453.229 33.568V34.72C453.229 38.56 452.413 41.848 450.781 44.584C449.149 47.32 446.917 49.408 444.085 50.848C441.253 52.288 438.061 53.008 434.509 53.008ZM434.509 44.944C437.293 44.944 439.597 44.056 441.421 42.28C443.245 40.456 444.157 37.864 444.157 34.504V33.784C444.157 30.424 443.245 27.856 441.421 26.08C439.645 24.256 437.341 23.344 434.509 23.344C431.725 23.344 429.421 24.256 427.597 26.08C425.773 27.856 424.861 30.424 424.861 33.784V34.504C424.861 37.864 425.773 40.456 427.597 42.28C429.421 44.056 431.725 44.944 434.509 44.944ZM461.603 52V16.288H470.531V20.32H471.827C472.355 18.88 473.219 17.824 474.419 17.152C475.667 16.48 477.107 16.144 478.739 16.144H483.059V24.208H478.595C476.291 24.208 474.395 24.832 472.907 26.08C471.419 27.28 470.675 29.152 470.675 31.696V52H461.603ZM504.138 53.008C499.482 53.008 495.666 52 492.69 49.984C489.714 47.968 487.914 45.088 487.29 41.344L495.642 39.184C495.978 40.864 496.53 42.184 497.298 43.144C498.114 44.104 499.098 44.8 500.25 45.232C501.45 45.616 502.746 45.808 504.138 45.808C506.25 45.808 507.81 45.448 508.818 44.728C509.826 43.96 510.33 43.024 510.33 41.92C510.33 40.816 509.85 39.976 508.89 39.4C507.93 38.776 506.394 38.272 504.282 37.888L502.266 37.528C499.77 37.048 497.49 36.4 495.426 35.584C493.362 34.72 491.706 33.544 490.458 32.056C489.21 30.568 488.586 28.648 488.586 26.296C488.586 22.744 489.882 20.032 492.474 18.16C495.066 16.24 498.474 15.28 502.698 15.28C506.682 15.28 509.994 16.168 512.634 17.944C515.274 19.72 517.002 22.048 517.818 24.928L509.394 27.52C509.01 25.696 508.218 24.4 507.018 23.632C505.866 22.864 504.426 22.48 502.698 22.48C500.97 22.48 499.65 22.792 498.738 23.416C497.826 23.992 497.37 24.808 497.37 25.864C497.37 27.016 497.85 27.88 498.81 28.456C499.77 28.984 501.066 29.392 502.698 29.68L504.714 30.04C507.402 30.52 509.826 31.168 511.986 31.984C514.194 32.752 515.922 33.88 517.17 35.368C518.466 36.808 519.114 38.776 519.114 41.272C519.114 45.016 517.746 47.92 515.01 49.984C512.322 52 508.698 53.008 504.138 53.008Z" fill="#051118"/>
</svg>
