<svg width="393" height="234" viewBox="0 0 393 234" fill="none" xmlns="http://www.w3.org/2000/svg">
<path d="M43.09 174V187.077L89.9711 195.795V199.896L80.7379 196.82H0V211.185H80.7379L89.9711 208.104V212.21L43.09 220.928V234L94.0776 224.52V183.486L43.09 174Z" fill="#051118"/>
<path d="M4.752 65V14.6H25.488C28.656 14.6 31.44 15.248 33.84 16.544C36.288 17.792 38.184 19.568 39.528 21.872C40.92 24.176 41.616 26.912 41.616 30.08V31.088C41.616 34.208 40.896 36.944 39.456 39.296C38.064 41.6 36.144 43.4 33.696 44.696C31.296 45.944 28.56 46.568 25.488 46.568H14.256V65H4.752ZM14.256 37.928H24.552C26.808 37.928 28.632 37.304 30.024 36.056C31.416 34.808 32.112 33.104 32.112 30.944V30.224C32.112 28.064 31.416 26.36 30.024 25.112C28.632 23.864 26.808 23.24 24.552 23.24H14.256V37.928ZM48.4931 65V29.288H57.4211V33.32H58.7171C59.2451 31.88 60.1091 30.824 61.3091 30.152C62.5571 29.48 63.9971 29.144 65.6291 29.144H69.9491V37.208H65.4851C63.1811 37.208 61.2851 37.832 59.7971 39.08C58.3091 40.28 57.5651 42.152 57.5651 44.696V65H48.4931ZM92.0464 66.008C88.4944 66.008 85.3504 65.264 82.6144 63.776C79.9264 62.24 77.8144 60.104 76.2784 57.368C74.7904 54.584 74.0464 51.32 74.0464 47.576V46.712C74.0464 42.968 74.7904 39.728 76.2784 36.992C77.7664 34.208 79.8544 32.072 82.5424 30.584C85.2304 29.048 88.3504 28.28 91.9024 28.28C95.4064 28.28 98.4544 29.072 101.046 30.656C103.638 32.192 105.654 34.352 107.094 37.136C108.534 39.872 109.254 43.064 109.254 46.712V49.808H83.2624C83.3584 52.256 84.2704 54.248 85.9984 55.784C87.7264 57.32 89.8384 58.088 92.3344 58.088C94.8784 58.088 96.7504 57.536 97.9504 56.432C99.1504 55.328 100.062 54.104 100.686 52.76L108.102 56.648C107.43 57.896 106.446 59.264 105.15 60.752C103.902 62.192 102.222 63.44 100.11 64.496C97.9984 65.504 95.3104 66.008 92.0464 66.008ZM83.3344 43.04H100.038C99.8464 40.976 99.0064 39.32 97.5184 38.072C96.0784 36.824 94.1824 36.2 91.8304 36.2C89.3824 36.2 87.4384 36.824 85.9984 38.072C84.5584 39.32 83.6704 40.976 83.3344 43.04ZM115.601 47.288V46.136C115.601 42.392 116.345 39.2 117.833 36.56C119.321 33.872 121.289 31.832 123.737 30.44C126.233 29 128.945 28.28 131.873 28.28C135.137 28.28 137.609 28.856 139.289 30.008C140.969 31.16 142.193 32.36 142.961 33.608H144.257V29.288H153.185V71.336C153.185 73.784 152.465 75.728 151.025 77.168C149.585 78.656 147.665 79.4 145.265 79.4H121.361V71.48H142.097C143.441 71.48 144.113 70.76 144.113 69.32V60.032H142.817C142.337 60.8 141.665 61.592 140.801 62.408C139.937 63.176 138.785 63.824 137.345 64.352C135.905 64.88 134.081 65.144 131.873 65.144C128.945 65.144 126.233 64.448 123.737 63.056C121.289 61.616 119.321 59.576 117.833 56.936C116.345 54.248 115.601 51.032 115.601 47.288ZM134.465 57.224C137.249 57.224 139.577 56.336 141.449 54.56C143.321 52.784 144.257 50.288 144.257 47.072V46.352C144.257 43.088 143.321 40.592 141.449 38.864C139.625 37.088 137.297 36.2 134.465 36.2C131.681 36.2 129.353 37.088 127.481 38.864C125.609 40.592 124.673 43.088 124.673 46.352V47.072C124.673 50.288 125.609 52.784 127.481 54.56C129.353 56.336 131.681 57.224 134.465 57.224ZM176.851 65.576C174.067 65.576 171.619 64.952 169.507 63.704C167.443 62.408 165.835 60.632 164.683 58.376C163.531 56.12 162.955 53.528 162.955 50.6V29.288H172.027V49.88C172.027 52.568 172.675 54.584 173.971 55.928C175.315 57.272 177.211 57.944 179.659 57.944C182.443 57.944 184.603 57.032 186.139 55.208C187.675 53.336 188.443 50.744 188.443 47.432V29.288H197.515V65H188.587V60.32H187.291C186.715 61.52 185.635 62.696 184.051 63.848C182.467 65 180.067 65.576 176.851 65.576ZM207.61 65V29.288H216.538V33.968H217.834C218.41 32.72 219.49 31.544 221.074 30.44C222.658 29.288 225.058 28.712 228.274 28.712C231.058 28.712 233.482 29.36 235.546 30.656C237.658 31.904 239.29 33.656 240.442 35.912C241.594 38.12 242.17 40.712 242.17 43.688V65H233.098V44.408C233.098 41.72 232.426 39.704 231.082 38.36C229.786 37.016 227.914 36.344 225.466 36.344C222.682 36.344 220.522 37.28 218.986 39.152C217.45 40.976 216.682 43.544 216.682 46.856V65H207.61ZM264.673 65C262.321 65 260.401 64.28 258.913 62.84C257.473 61.352 256.753 59.384 256.753 56.936V36.776H247.825V29.288H256.753V18.2H265.825V29.288H275.617V36.776H265.825V55.352C265.825 56.792 266.497 57.512 267.841 57.512H274.753V65H264.673ZM294.917 66.008C292.373 66.008 290.093 65.576 288.077 64.712C286.061 63.8 284.453 62.504 283.253 60.824C282.101 59.096 281.525 57.008 281.525 54.56C281.525 52.112 282.101 50.072 283.253 48.44C284.453 46.76 286.085 45.512 288.149 44.696C290.261 43.832 292.661 43.4 295.349 43.4H305.141V41.384C305.141 39.704 304.613 38.336 303.557 37.28C302.501 36.176 300.821 35.624 298.517 35.624C296.261 35.624 294.581 36.152 293.477 37.208C292.373 38.216 291.653 39.536 291.317 41.168L282.965 38.36C283.541 36.536 284.453 34.88 285.701 33.392C286.997 31.856 288.701 30.632 290.813 29.72C292.973 28.76 295.589 28.28 298.661 28.28C303.365 28.28 307.085 29.456 309.821 31.808C312.557 34.16 313.925 37.568 313.925 42.032V55.352C313.925 56.792 314.597 57.512 315.941 57.512H318.821V65H312.773C310.997 65 309.533 64.568 308.381 63.704C307.229 62.84 306.653 61.688 306.653 60.248V60.176H305.285C305.093 60.752 304.661 61.52 303.989 62.48C303.317 63.392 302.261 64.208 300.821 64.928C299.381 65.648 297.413 66.008 294.917 66.008ZM296.501 58.664C299.045 58.664 301.109 57.968 302.693 56.576C304.325 55.136 305.141 53.24 305.141 50.888V50.168H295.997C294.317 50.168 292.997 50.528 292.037 51.248C291.077 51.968 290.597 52.976 290.597 54.272C290.597 55.568 291.101 56.624 292.109 57.44C293.117 58.256 294.581 58.664 296.501 58.664ZM340.005 66.008C335.349 66.008 331.533 65 328.557 62.984C325.581 60.968 323.781 58.088 323.157 54.344L331.509 52.184C331.845 53.864 332.397 55.184 333.165 56.144C333.981 57.104 334.965 57.8 336.117 58.232C337.317 58.616 338.613 58.808 340.005 58.808C342.117 58.808 343.677 58.448 344.685 57.728C345.693 56.96 346.197 56.024 346.197 54.92C346.197 53.816 345.717 52.976 344.757 52.4C343.797 51.776 342.261 51.272 340.149 50.888L338.133 50.528C335.637 50.048 333.357 49.4 331.293 48.584C329.229 47.72 327.573 46.544 326.325 45.056C325.077 43.568 324.453 41.648 324.453 39.296C324.453 35.744 325.749 33.032 328.341 31.16C330.933 29.24 334.341 28.28 338.565 28.28C342.549 28.28 345.861 29.168 348.501 30.944C351.141 32.72 352.869 35.048 353.685 37.928L345.261 40.52C344.877 38.696 344.085 37.4 342.885 36.632C341.733 35.864 340.293 35.48 338.565 35.48C336.837 35.48 335.517 35.792 334.605 36.416C333.693 36.992 333.237 37.808 333.237 38.864C333.237 40.016 333.717 40.88 334.677 41.456C335.637 41.984 336.933 42.392 338.565 42.68L340.581 43.04C343.269 43.52 345.693 44.168 347.853 44.984C350.061 45.752 351.789 46.88 353.037 48.368C354.333 49.808 354.981 51.776 354.981 54.272C354.981 58.016 353.613 60.92 350.877 62.984C348.189 65 344.565 66.008 340.005 66.008ZM4.752 145V94.6H36.432V103.24H14.256V115.408H34.704V124.048H14.256V145H4.752ZM43.5009 145V109.288H52.4289V113.32H53.7249C54.2529 111.88 55.1169 110.824 56.3169 110.152C57.5649 109.48 59.0049 109.144 60.6369 109.144H64.9569V117.208H60.4929C58.1889 117.208 56.2929 117.832 54.8049 119.08C53.3169 120.28 52.5729 122.152 52.5729 124.696V145H43.5009ZM87.0542 146.008C83.5022 146.008 80.3582 145.264 77.6222 143.776C74.9342 142.24 72.8222 140.104 71.2862 137.368C69.7982 134.584 69.0542 131.32 69.0542 127.576V126.712C69.0542 122.968 69.7982 119.728 71.2862 116.992C72.7742 114.208 74.8622 112.072 77.5502 110.584C80.2382 109.048 83.3582 108.28 86.9102 108.28C90.4142 108.28 93.4622 109.072 96.0542 110.656C98.6462 112.192 100.662 114.352 102.102 117.136C103.542 119.872 104.262 123.064 104.262 126.712V129.808H78.2702C78.3662 132.256 79.2782 134.248 81.0062 135.784C82.7342 137.32 84.8462 138.088 87.3422 138.088C89.8862 138.088 91.7582 137.536 92.9582 136.432C94.1582 135.328 95.0702 134.104 95.6942 132.76L103.11 136.648C102.438 137.896 101.454 139.264 100.158 140.752C98.9102 142.192 97.2302 143.44 95.1182 144.496C93.0062 145.504 90.3182 146.008 87.0542 146.008ZM78.3422 123.04H95.0462C94.8542 120.976 94.0142 119.32 92.5262 118.072C91.0862 116.824 89.1902 116.2 86.8382 116.2C84.3902 116.2 82.4462 116.824 81.0062 118.072C79.5662 119.32 78.6782 120.976 78.3422 123.04ZM129.113 146.008C125.657 146.008 122.513 145.288 119.681 143.848C116.897 142.408 114.689 140.32 113.057 137.584C111.425 134.848 110.609 131.536 110.609 127.648V126.64C110.609 122.752 111.425 119.44 113.057 116.704C114.689 113.968 116.897 111.88 119.681 110.44C122.513 109 125.657 108.28 129.113 108.28C132.521 108.28 135.449 108.88 137.897 110.08C140.345 111.28 142.313 112.936 143.801 115.048C145.337 117.112 146.345 119.464 146.825 122.104L138.041 123.976C137.849 122.536 137.417 121.24 136.745 120.088C136.073 118.936 135.113 118.024 133.865 117.352C132.665 116.68 131.153 116.344 129.329 116.344C127.505 116.344 125.849 116.752 124.361 117.568C122.921 118.336 121.769 119.512 120.905 121.096C120.089 122.632 119.681 124.528 119.681 126.784V127.504C119.681 129.76 120.089 131.68 120.905 133.264C121.769 134.8 122.921 135.976 124.361 136.792C125.849 137.56 127.505 137.944 129.329 137.944C132.065 137.944 134.129 137.248 135.521 135.856C136.961 134.416 137.873 132.544 138.257 130.24L147.041 132.328C146.417 134.872 145.337 137.2 143.801 139.312C142.313 141.376 140.345 143.008 137.897 144.208C135.449 145.408 132.521 146.008 129.113 146.008ZM168.132 145.576C165.348 145.576 162.9 144.952 160.788 143.704C158.724 142.408 157.116 140.632 155.964 138.376C154.812 136.12 154.236 133.528 154.236 130.6V109.288H163.308V129.88C163.308 132.568 163.956 134.584 165.252 135.928C166.596 137.272 168.492 137.944 170.94 137.944C173.724 137.944 175.884 137.032 177.42 135.208C178.956 133.336 179.724 130.744 179.724 127.432V109.288H188.796V145H179.868V140.32H178.572C177.996 141.52 176.916 142.696 175.332 143.848C173.748 145 171.348 145.576 168.132 145.576ZM215.164 146.008C211.612 146.008 208.468 145.264 205.732 143.776C203.044 142.24 200.932 140.104 199.396 137.368C197.908 134.584 197.164 131.32 197.164 127.576V126.712C197.164 122.968 197.908 119.728 199.396 116.992C200.884 114.208 202.972 112.072 205.66 110.584C208.348 109.048 211.468 108.28 215.02 108.28C218.524 108.28 221.572 109.072 224.164 110.656C226.756 112.192 228.772 114.352 230.212 117.136C231.652 119.872 232.372 123.064 232.372 126.712V129.808H206.38C206.476 132.256 207.388 134.248 209.116 135.784C210.844 137.32 212.956 138.088 215.452 138.088C217.996 138.088 219.868 137.536 221.068 136.432C222.268 135.328 223.18 134.104 223.804 132.76L231.22 136.648C230.548 137.896 229.564 139.264 228.268 140.752C227.02 142.192 225.34 143.44 223.228 144.496C221.116 145.504 218.428 146.008 215.164 146.008ZM206.452 123.04H223.156C222.964 120.976 222.124 119.32 220.636 118.072C219.196 116.824 217.3 116.2 214.948 116.2C212.5 116.2 210.556 116.824 209.116 118.072C207.676 119.32 206.788 120.976 206.452 123.04ZM240.446 145V109.288H249.374V113.968H250.67C251.246 112.72 252.326 111.544 253.91 110.44C255.494 109.288 257.894 108.712 261.11 108.712C263.894 108.712 266.318 109.36 268.382 110.656C270.494 111.904 272.126 113.656 273.278 115.912C274.43 118.12 275.006 120.712 275.006 123.688V145H265.934V124.408C265.934 121.72 265.262 119.704 263.918 118.36C262.622 117.016 260.75 116.344 258.302 116.344C255.518 116.344 253.358 117.28 251.822 119.152C250.286 120.976 249.518 123.544 249.518 126.856V145H240.446ZM297.509 145C295.157 145 293.237 144.28 291.749 142.84C290.309 141.352 289.589 139.384 289.589 136.936V116.776H280.661V109.288H289.589V98.2H298.661V109.288H308.453V116.776H298.661V135.352C298.661 136.792 299.333 137.512 300.677 137.512H307.589V145H297.509ZM331.671 146.008C328.119 146.008 324.975 145.264 322.239 143.776C319.551 142.24 317.439 140.104 315.903 137.368C314.415 134.584 313.671 131.32 313.671 127.576V126.712C313.671 122.968 314.415 119.728 315.903 116.992C317.391 114.208 319.479 112.072 322.167 110.584C324.855 109.048 327.975 108.28 331.527 108.28C335.031 108.28 338.079 109.072 340.671 110.656C343.263 112.192 345.279 114.352 346.719 117.136C348.159 119.872 348.879 123.064 348.879 126.712V129.808H322.887C322.983 132.256 323.895 134.248 325.623 135.784C327.351 137.32 329.463 138.088 331.959 138.088C334.503 138.088 336.375 137.536 337.575 136.432C338.775 135.328 339.687 134.104 340.311 132.76L347.727 136.648C347.055 137.896 346.071 139.264 344.775 140.752C343.527 142.192 341.847 143.44 339.735 144.496C337.623 145.504 334.935 146.008 331.671 146.008ZM322.959 123.04H339.663C339.471 120.976 338.631 119.32 337.143 118.072C335.703 116.824 333.807 116.2 331.455 116.2C329.007 116.2 327.063 116.824 325.623 118.072C324.183 119.32 323.295 120.976 322.959 123.04ZM371.786 146.008C367.13 146.008 363.314 145 360.338 142.984C357.362 140.968 355.562 138.088 354.938 134.344L363.29 132.184C363.626 133.864 364.178 135.184 364.946 136.144C365.762 137.104 366.746 137.8 367.898 138.232C369.098 138.616 370.394 138.808 371.786 138.808C373.898 138.808 375.458 138.448 376.466 137.728C377.474 136.96 377.978 136.024 377.978 134.92C377.978 133.816 377.498 132.976 376.538 132.4C375.578 131.776 374.042 131.272 371.93 130.888L369.914 130.528C367.418 130.048 365.138 129.4 363.074 128.584C361.01 127.72 359.354 126.544 358.106 125.056C356.858 123.568 356.234 121.648 356.234 119.296C356.234 115.744 357.53 113.032 360.122 111.16C362.714 109.24 366.122 108.28 370.346 108.28C374.33 108.28 377.642 109.168 380.282 110.944C382.922 112.72 384.65 115.048 385.466 117.928L377.042 120.52C376.658 118.696 375.866 117.4 374.666 116.632C373.514 115.864 372.074 115.48 370.346 115.48C368.618 115.48 367.298 115.792 366.386 116.416C365.474 116.992 365.018 117.808 365.018 118.864C365.018 120.016 365.498 120.88 366.458 121.456C367.418 121.984 368.714 122.392 370.346 122.68L372.362 123.04C375.05 123.52 377.474 124.168 379.634 124.984C381.842 125.752 383.57 126.88 384.818 128.368C386.114 129.808 386.762 131.776 386.762 134.272C386.762 138.016 385.394 140.92 382.658 142.984C379.97 145 376.346 146.008 371.786 146.008Z" fill="#051118"/>
</svg>
