<svg width="230" height="263" viewBox="0 0 230 263" fill="none" xmlns="http://www.w3.org/2000/svg">
<path d="M46.7769 194V207.077L91.0237 215.795V219.896L82.3093 216.82H6.10822V231.185H82.3093L91.0237 228.104V232.21L46.7769 240.928V254L94.8995 244.52V203.486L46.7769 194Z" fill="#051118"/>
<mask id="mask0_342_8" style="mask-type:alpha" maskUnits="userSpaceOnUse" x="0" y="0" width="230" height="263">
<rect width="230" height="263" fill="#D9D9D9"/>
</mask>
<g mask="url(#mask0_342_8)">
<path d="M22.248 66.008C18.36 66.008 14.928 65.312 11.952 63.92C8.976 62.528 6.648 60.536 4.968 57.944C3.288 55.352 2.448 52.232 2.448 48.584V46.568H11.808V48.584C11.808 51.608 12.744 53.888 14.616 55.424C16.488 56.912 19.032 57.656 22.248 57.656C25.512 57.656 27.936 57.008 29.52 55.712C31.152 54.416 31.968 52.76 31.968 50.744C31.968 49.352 31.56 48.224 30.744 47.36C29.976 46.496 28.824 45.8 27.288 45.272C25.8 44.696 23.976 44.168 21.816 43.688L20.16 43.328C16.704 42.56 13.728 41.6 11.232 40.448C8.784 39.248 6.888 37.688 5.544 35.768C4.248 33.848 3.6 31.352 3.6 28.28C3.6 25.208 4.32 22.592 5.76 20.432C7.248 18.224 9.312 16.544 11.952 15.392C14.64 14.192 17.784 13.592 21.384 13.592C24.984 13.592 28.176 14.216 30.96 15.464C33.792 16.664 36 18.488 37.584 20.936C39.216 23.336 40.032 26.36 40.032 30.008V32.168H30.672V30.008C30.672 28.088 30.288 26.552 29.52 25.4C28.8 24.2 27.744 23.336 26.352 22.808C24.96 22.232 23.304 21.944 21.384 21.944C18.504 21.944 16.368 22.496 14.976 23.6C13.632 24.656 12.96 26.12 12.96 27.992C12.96 29.24 13.272 30.296 13.896 31.16C14.568 32.024 15.552 32.744 16.848 33.32C18.144 33.896 19.8 34.4 21.816 34.832L23.472 35.192C27.072 35.96 30.192 36.944 32.832 38.144C35.52 39.344 37.608 40.928 39.096 42.896C40.584 44.864 41.328 47.384 41.328 50.456C41.328 53.528 40.536 56.24 38.952 58.592C37.416 60.896 35.208 62.72 32.328 64.064C29.496 65.36 26.136 66.008 22.248 66.008ZM65.6961 66.008C62.1441 66.008 58.9521 65.288 56.1201 63.848C53.2881 62.408 51.0561 60.32 49.4241 57.584C47.7921 54.848 46.9761 51.56 46.9761 47.72V46.568C46.9761 42.728 47.7921 39.44 49.4241 36.704C51.0561 33.968 53.2881 31.88 56.1201 30.44C58.9521 29 62.1441 28.28 65.6961 28.28C69.2481 28.28 72.4401 29 75.2721 30.44C78.1041 31.88 80.3361 33.968 81.9681 36.704C83.6001 39.44 84.4161 42.728 84.4161 46.568V47.72C84.4161 51.56 83.6001 54.848 81.9681 57.584C80.3361 60.32 78.1041 62.408 75.2721 63.848C72.4401 65.288 69.2481 66.008 65.6961 66.008ZM65.6961 57.944C68.4801 57.944 70.7841 57.056 72.6081 55.28C74.4321 53.456 75.3441 50.864 75.3441 47.504V46.784C75.3441 43.424 74.4321 40.856 72.6081 39.08C70.8321 37.256 68.5281 36.344 65.6961 36.344C62.9121 36.344 60.6081 37.256 58.7841 39.08C56.9601 40.856 56.0481 43.424 56.0481 46.784V47.504C56.0481 50.864 56.9601 53.456 58.7841 55.28C60.6081 57.056 62.9121 57.944 65.6961 57.944ZM114.246 66.008C111.03 66.008 108.558 65.456 106.83 64.352C105.102 63.248 103.83 62.024 103.014 60.68H101.718V65H92.79V14.6H101.862V33.392H103.158C103.686 32.528 104.382 31.712 105.246 30.944C106.158 30.176 107.334 29.552 108.774 29.072C110.262 28.544 112.086 28.28 114.246 28.28C117.126 28.28 119.79 29 122.238 30.44C124.686 31.832 126.654 33.896 128.142 36.632C129.63 39.368 130.374 42.68 130.374 46.568V47.72C130.374 51.608 129.63 54.92 128.142 57.656C126.654 60.392 124.686 62.48 122.238 63.92C119.79 65.312 117.126 66.008 114.246 66.008ZM111.51 58.088C114.294 58.088 116.622 57.2 118.494 55.424C120.366 53.6 121.302 50.96 121.302 47.504V46.784C121.302 43.328 120.366 40.712 118.494 38.936C116.67 37.112 114.342 36.2 111.51 36.2C108.726 36.2 106.398 37.112 104.526 38.936C102.654 40.712 101.718 43.328 101.718 46.784V47.504C101.718 50.96 102.654 53.6 104.526 55.424C106.398 57.2 108.726 58.088 111.51 58.088ZM138.704 65V29.288H147.632V33.32H148.928C149.456 31.88 150.32 30.824 151.52 30.152C152.768 29.48 154.208 29.144 155.84 29.144H160.16V37.208H155.696C153.392 37.208 151.496 37.832 150.008 39.08C148.52 40.28 147.776 42.152 147.776 44.696V65H138.704ZM182.257 66.008C178.705 66.008 175.561 65.264 172.825 63.776C170.137 62.24 168.025 60.104 166.489 57.368C165.001 54.584 164.257 51.32 164.257 47.576V46.712C164.257 42.968 165.001 39.728 166.489 36.992C167.977 34.208 170.065 32.072 172.753 30.584C175.441 29.048 178.561 28.28 182.113 28.28C185.617 28.28 188.665 29.072 191.257 30.656C193.849 32.192 195.865 34.352 197.305 37.136C198.745 39.872 199.465 43.064 199.465 46.712V49.808H173.473C173.569 52.256 174.481 54.248 176.209 55.784C177.937 57.32 180.049 58.088 182.545 58.088C185.089 58.088 186.961 57.536 188.161 56.432C189.361 55.328 190.273 54.104 190.897 52.76L198.313 56.648C197.641 57.896 196.657 59.264 195.361 60.752C194.113 62.192 192.433 63.44 190.321 64.496C188.209 65.504 185.521 66.008 182.257 66.008ZM173.545 43.04H190.249C190.057 40.976 189.217 39.32 187.729 38.072C186.289 36.824 184.393 36.2 182.041 36.2C179.593 36.2 177.649 36.824 176.209 38.072C174.769 39.32 173.881 40.976 173.545 43.04ZM3.744 145V134.2L23.328 117.928V116.776H4.464V109.288H33.264V120.088L13.68 136.36V137.512H33.84V145H3.744ZM42.3056 145V94.6H51.3776V122.464H52.6736L64.4816 109.288H76.2896L59.8016 126.568L76.8656 145H65.2016L52.6736 130.816H51.3776V145H42.3056ZM101.81 146.008C95.5703 146.008 90.6263 144.28 86.9783 140.824C83.3303 137.32 81.5063 132.328 81.5063 125.848V113.752C81.5063 107.272 83.3303 102.304 86.9783 98.848C90.6263 95.344 95.5703 93.592 101.81 93.592C108.002 93.592 112.778 95.296 116.138 98.704C119.546 102.064 121.25 106.696 121.25 112.6V113.032H111.89V112.312C111.89 109.336 111.05 106.888 109.37 104.968C107.738 103.048 105.218 102.088 101.81 102.088C98.4503 102.088 95.8103 103.12 93.8903 105.184C91.9703 107.248 91.0103 110.056 91.0103 113.608V125.992C91.0103 129.496 91.9703 132.304 93.8903 134.416C95.8103 136.48 98.4503 137.512 101.81 137.512C105.218 137.512 107.738 136.552 109.37 134.632C111.05 132.664 111.89 130.216 111.89 127.288V125.992H121.25V127C121.25 132.904 119.546 137.56 116.138 140.968C112.778 144.328 108.002 146.008 101.81 146.008ZM129.282 145V109.288H138.354V145H129.282ZM133.818 105.112C132.186 105.112 130.794 104.584 129.642 103.528C128.538 102.472 127.986 101.08 127.986 99.352C127.986 97.624 128.538 96.232 129.642 95.176C130.794 94.12 132.186 93.592 133.818 93.592C135.498 93.592 136.89 94.12 137.994 95.176C139.098 96.232 139.65 97.624 139.65 99.352C139.65 101.08 139.098 102.472 137.994 103.528C136.89 104.584 135.498 105.112 133.818 105.112ZM162.087 145C159.735 145 157.815 144.28 156.327 142.84C154.887 141.352 154.167 139.384 154.167 136.936V116.776H145.239V109.288H154.167V98.2H163.239V109.288H173.031V116.776H163.239V135.352C163.239 136.792 163.911 137.512 165.255 137.512H172.167V145H162.087ZM185.131 159.4V151.48H204.571C205.915 151.48 206.587 150.76 206.587 149.32V140.32H205.291C204.907 141.136 204.307 141.952 203.491 142.768C202.675 143.584 201.571 144.256 200.179 144.784C198.787 145.312 197.011 145.576 194.851 145.576C192.067 145.576 189.619 144.952 187.507 143.704C185.443 142.408 183.835 140.632 182.683 138.376C181.531 136.12 180.955 133.528 180.955 130.6V109.288H190.027V129.88C190.027 132.568 190.675 134.584 191.971 135.928C193.315 137.272 195.211 137.944 197.659 137.944C200.443 137.944 202.603 137.032 204.139 135.208C205.675 133.336 206.443 130.744 206.443 127.432V109.288H215.515V151.336C215.515 153.784 214.795 155.728 213.355 157.168C211.915 158.656 209.995 159.4 207.595 159.4H185.131Z" fill="#051118"/>
</g>
</svg>
