<svg width="387" height="67" viewBox="0 0 387 67" fill="none" xmlns="http://www.w3.org/2000/svg">
<path d="M20.248 53.008C16.36 53.008 12.928 52.312 9.952 50.92C6.976 49.528 4.648 47.536 2.968 44.944C1.288 42.352 0.448 39.232 0.448 35.584V33.568H9.808V35.584C9.808 38.608 10.744 40.888 12.616 42.424C14.488 43.912 17.032 44.656 20.248 44.656C23.512 44.656 25.936 44.008 27.52 42.712C29.152 41.416 29.968 39.76 29.968 37.744C29.968 36.352 29.56 35.224 28.744 34.36C27.976 33.496 26.824 32.8 25.288 32.272C23.8 31.696 21.976 31.168 19.816 30.688L18.16 30.328C14.704 29.56 11.728 28.6 9.232 27.448C6.784 26.248 4.888 24.688 3.544 22.768C2.248 20.848 1.6 18.352 1.6 15.28C1.6 12.208 2.32 9.592 3.76 7.432C5.248 5.224 7.312 3.544 9.952 2.392C12.64 1.192 15.784 0.591997 19.384 0.591997C22.984 0.591997 26.176 1.216 28.96 2.464C31.792 3.664 34 5.488 35.584 7.936C37.216 10.336 38.032 13.36 38.032 17.008V19.168H28.672V17.008C28.672 15.088 28.288 13.552 27.52 12.4C26.8 11.2 25.744 10.336 24.352 9.808C22.96 9.232 21.304 8.944 19.384 8.944C16.504 8.944 14.368 9.496 12.976 10.6C11.632 11.656 10.96 13.12 10.96 14.992C10.96 16.24 11.272 17.296 11.896 18.16C12.568 19.024 13.552 19.744 14.848 20.32C16.144 20.896 17.8 21.4 19.816 21.832L21.472 22.192C25.072 22.96 28.192 23.944 30.832 25.144C33.52 26.344 35.608 27.928 37.096 29.896C38.584 31.864 39.328 34.384 39.328 37.456C39.328 40.528 38.536 43.24 36.952 45.592C35.416 47.896 33.208 49.72 30.328 51.064C27.496 52.36 24.136 53.008 20.248 53.008ZM60.3121 52.576C57.5281 52.576 55.0801 51.952 52.9681 50.704C50.9041 49.408 49.2961 47.632 48.1441 45.376C46.9921 43.12 46.4161 40.528 46.4161 37.6V16.288H55.4881V36.88C55.4881 39.568 56.1361 41.584 57.4321 42.928C58.7761 44.272 60.6721 44.944 63.1201 44.944C65.9041 44.944 68.0641 44.032 69.6001 42.208C71.1361 40.336 71.9041 37.744 71.9041 34.432V16.288H80.9761V52H72.0481V47.32H70.7521C70.1761 48.52 69.0961 49.696 67.5121 50.848C65.9281 52 63.5281 52.576 60.3121 52.576ZM91.0713 66.4V16.288H99.9993V20.608H101.295C102.111 19.216 103.383 17.992 105.111 16.936C106.839 15.832 109.311 15.28 112.527 15.28C115.407 15.28 118.071 16 120.519 17.44C122.967 18.832 124.935 20.896 126.423 23.632C127.911 26.368 128.655 29.68 128.655 33.568V34.72C128.655 38.608 127.911 41.92 126.423 44.656C124.935 47.392 122.967 49.48 120.519 50.92C118.071 52.312 115.407 53.008 112.527 53.008C110.367 53.008 108.543 52.744 107.055 52.216C105.615 51.736 104.439 51.112 103.527 50.344C102.663 49.528 101.967 48.712 101.439 47.896H100.143V66.4H91.0713ZM109.791 45.088C112.623 45.088 114.951 44.2 116.775 42.424C118.647 40.6 119.583 37.96 119.583 34.504V33.784C119.583 30.328 118.647 27.712 116.775 25.936C114.903 24.112 112.575 23.2 109.791 23.2C107.007 23.2 104.679 24.112 102.807 25.936C100.935 27.712 99.9993 30.328 99.9993 33.784V34.504C99.9993 37.96 100.935 40.6 102.807 42.424C104.679 44.2 107.007 45.088 109.791 45.088ZM136.985 66.4V16.288H145.913V20.608H147.209C148.025 19.216 149.297 17.992 151.025 16.936C152.753 15.832 155.225 15.28 158.441 15.28C161.321 15.28 163.985 16 166.433 17.44C168.881 18.832 170.849 20.896 172.337 23.632C173.825 26.368 174.569 29.68 174.569 33.568V34.72C174.569 38.608 173.825 41.92 172.337 44.656C170.849 47.392 168.881 49.48 166.433 50.92C163.985 52.312 161.321 53.008 158.441 53.008C156.281 53.008 154.457 52.744 152.969 52.216C151.529 51.736 150.353 51.112 149.441 50.344C148.577 49.528 147.881 48.712 147.353 47.896H146.057V66.4H136.985ZM155.705 45.088C158.537 45.088 160.865 44.2 162.689 42.424C164.561 40.6 165.497 37.96 165.497 34.504V33.784C165.497 30.328 164.561 27.712 162.689 25.936C160.817 24.112 158.489 23.2 155.705 23.2C152.921 23.2 150.593 24.112 148.721 25.936C146.849 27.712 145.913 30.328 145.913 33.784V34.504C145.913 37.96 146.849 40.6 148.721 42.424C150.593 44.2 152.921 45.088 155.705 45.088ZM199.891 53.008C196.339 53.008 193.147 52.288 190.315 50.848C187.483 49.408 185.251 47.32 183.619 44.584C181.987 41.848 181.171 38.56 181.171 34.72V33.568C181.171 29.728 181.987 26.44 183.619 23.704C185.251 20.968 187.483 18.88 190.315 17.44C193.147 16 196.339 15.28 199.891 15.28C203.443 15.28 206.635 16 209.467 17.44C212.299 18.88 214.531 20.968 216.163 23.704C217.795 26.44 218.611 29.728 218.611 33.568V34.72C218.611 38.56 217.795 41.848 216.163 44.584C214.531 47.32 212.299 49.408 209.467 50.848C206.635 52.288 203.443 53.008 199.891 53.008ZM199.891 44.944C202.675 44.944 204.979 44.056 206.803 42.28C208.627 40.456 209.539 37.864 209.539 34.504V33.784C209.539 30.424 208.627 27.856 206.803 26.08C205.027 24.256 202.723 23.344 199.891 23.344C197.107 23.344 194.803 24.256 192.979 26.08C191.155 27.856 190.243 30.424 190.243 33.784V34.504C190.243 37.864 191.155 40.456 192.979 42.28C194.803 44.056 197.107 44.944 199.891 44.944ZM226.985 52V16.288H235.913V20.32H237.209C237.737 18.88 238.601 17.824 239.801 17.152C241.049 16.48 242.489 16.144 244.121 16.144H248.441V24.208H243.977C241.673 24.208 239.777 24.832 238.289 26.08C236.801 27.28 236.057 29.152 236.057 31.696V52H226.985ZM269.212 52C266.86 52 264.94 51.28 263.452 49.84C262.012 48.352 261.292 46.384 261.292 43.936V23.776H252.364V16.288H261.292V5.2H270.364V16.288H280.156V23.776H270.364V42.352C270.364 43.792 271.036 44.512 272.38 44.512H279.292V52H269.212ZM303.375 53.008C299.823 53.008 296.679 52.264 293.943 50.776C291.255 49.24 289.143 47.104 287.607 44.368C286.119 41.584 285.375 38.32 285.375 34.576V33.712C285.375 29.968 286.119 26.728 287.607 23.992C289.095 21.208 291.183 19.072 293.871 17.584C296.559 16.048 299.679 15.28 303.23 15.28C306.735 15.28 309.783 16.072 312.375 17.656C314.967 19.192 316.983 21.352 318.422 24.136C319.863 26.872 320.583 30.064 320.583 33.712V36.808H294.591C294.687 39.256 295.599 41.248 297.327 42.784C299.055 44.32 301.167 45.088 303.663 45.088C306.207 45.088 308.079 44.536 309.279 43.432C310.479 42.328 311.391 41.104 312.015 39.76L319.431 43.648C318.759 44.896 317.775 46.264 316.479 47.752C315.231 49.192 313.551 50.44 311.439 51.496C309.327 52.504 306.639 53.008 303.375 53.008ZM294.663 30.04H311.367C311.175 27.976 310.335 26.32 308.847 25.072C307.407 23.824 305.511 23.2 303.159 23.2C300.711 23.2 298.767 23.824 297.327 25.072C295.887 26.32 294.999 27.976 294.663 30.04ZM328.657 52V16.288H337.585V20.32H338.881C339.409 18.88 340.273 17.824 341.473 17.152C342.721 16.48 344.161 16.144 345.793 16.144H350.113V24.208H345.649C343.345 24.208 341.449 24.832 339.961 26.08C338.473 27.28 337.729 29.152 337.729 31.696V52H328.657ZM371.192 53.008C366.536 53.008 362.72 52 359.744 49.984C356.768 47.968 354.968 45.088 354.344 41.344L362.696 39.184C363.032 40.864 363.584 42.184 364.352 43.144C365.168 44.104 366.152 44.8 367.304 45.232C368.504 45.616 369.8 45.808 371.192 45.808C373.304 45.808 374.864 45.448 375.872 44.728C376.88 43.96 377.384 43.024 377.384 41.92C377.384 40.816 376.904 39.976 375.944 39.4C374.984 38.776 373.448 38.272 371.336 37.888L369.32 37.528C366.824 37.048 364.544 36.4 362.48 35.584C360.416 34.72 358.76 33.544 357.512 32.056C356.264 30.568 355.64 28.648 355.64 26.296C355.64 22.744 356.936 20.032 359.528 18.16C362.12 16.24 365.528 15.28 369.752 15.28C373.736 15.28 377.048 16.168 379.688 17.944C382.328 19.72 384.056 22.048 384.872 24.928L376.448 27.52C376.064 25.696 375.272 24.4 374.072 23.632C372.92 22.864 371.48 22.48 369.752 22.48C368.024 22.48 366.704 22.792 365.792 23.416C364.88 23.992 364.424 24.808 364.424 25.864C364.424 27.016 364.904 27.88 365.864 28.456C366.824 28.984 368.12 29.392 369.752 29.68L371.768 30.04C374.456 30.52 376.88 31.168 379.04 31.984C381.248 32.752 382.976 33.88 384.224 35.368C385.52 36.808 386.168 38.776 386.168 41.272C386.168 45.016 384.8 47.92 382.064 49.984C379.376 52 375.752 53.008 371.192 53.008Z" fill="#051118"/>
</svg>
