<svg width="74" height="74" viewBox="0 0 74 74" fill="none" xmlns="http://www.w3.org/2000/svg">
<path d="M71 37C71 55.7777 55.7777 71 37 71C18.2223 71 3 55.7777 3 37C3 18.2223 18.2223 3 37 3C55.7777 3 71 18.2223 71 37Z" stroke="#051118" stroke-width="6"/>
<path fill-rule="evenodd" clip-rule="evenodd" d="M43.9151 52.6467C44.4303 53.0115 45.0943 53.1027 45.6863 52.8787C46.2783 52.6531 46.7135 52.1475 46.8447 51.5347C48.2351 45.0003 51.6079 28.461 52.8735 22.517C52.9695 22.069 52.8095 21.6034 52.4575 21.3042C52.1055 21.005 51.6175 20.9186 51.1823 21.0802C44.4735 23.5634 23.8126 31.3154 15.3678 34.4403C14.8318 34.6387 14.483 35.1539 14.5006 35.7187C14.5198 36.2851 14.9006 36.7763 15.4494 36.9411C19.2366 38.0739 24.2078 39.6499 24.2078 39.6499C24.2078 39.6499 26.531 46.6659 27.7423 50.2339C27.8943 50.6819 28.2447 51.0339 28.7071 51.1555C29.1679 51.2755 29.6607 51.1491 30.0047 50.8243C31.9503 48.9875 34.9583 46.1475 34.9583 46.1475C34.9583 46.1475 40.6735 50.3379 43.9151 52.6467ZM26.299 38.7635L28.9855 47.6243L29.5823 42.0131C29.5823 42.0131 39.9615 32.6515 45.8783 27.3154C46.0511 27.1586 46.0751 26.8962 45.9311 26.7122C45.7887 26.5282 45.5263 26.485 45.3295 26.6098C38.4719 30.989 26.299 38.7635 26.299 38.7635Z" fill="#051118"/>
</svg>
