<svg width="214" height="146" viewBox="0 0 214 146" fill="none" xmlns="http://www.w3.org/2000/svg">
<path d="M6.784 51L0.16 0.599997H9.592L14.488 44.376H15.784L22.12 0.599997H38.536L44.872 44.376H46.168L51.064 0.599997H60.496L53.872 51H37.456L30.976 6.216H29.68L23.2 51H6.784ZM67.7275 51V0.599997H76.7995V19.68H78.0955C78.4795 18.912 79.0795 18.144 79.8955 17.376C80.7115 16.608 81.7915 15.984 83.1355 15.504C84.5275 14.976 86.2795 14.712 88.3915 14.712C91.1755 14.712 93.5995 15.36 95.6635 16.656C97.7755 17.904 99.4075 19.656 100.56 21.912C101.712 24.12 102.288 26.712 102.288 29.688V51H93.2155V30.408C93.2155 27.72 92.5435 25.704 91.1995 24.36C89.9035 23.016 88.0315 22.344 85.5835 22.344C82.7995 22.344 80.6395 23.28 79.1035 25.152C77.5675 26.976 76.7995 29.544 76.7995 32.856V51H67.7275ZM115.42 65.4V57.48H134.86C136.204 57.48 136.876 56.76 136.876 55.32V46.32H135.58C135.196 47.136 134.596 47.952 133.78 48.768C132.964 49.584 131.86 50.256 130.468 50.784C129.076 51.312 127.3 51.576 125.14 51.576C122.356 51.576 119.908 50.952 117.796 49.704C115.732 48.408 114.124 46.632 112.972 44.376C111.82 42.12 111.244 39.528 111.244 36.6V15.288H120.316V35.88C120.316 38.568 120.964 40.584 122.26 41.928C123.604 43.272 125.5 43.944 127.948 43.944C130.732 43.944 132.892 43.032 134.428 41.208C135.964 39.336 136.732 36.744 136.732 33.432V15.288H145.804V57.336C145.804 59.784 145.084 61.728 143.644 63.168C142.204 64.656 140.284 65.4 137.884 65.4H115.42ZM1.744 131V120.2L21.328 103.928V102.776H2.464V95.288H31.264V106.088L11.68 122.36V123.512H31.84V131H1.744ZM40.3056 131V80.6H49.3776V108.464H50.6736L62.4816 95.288H74.2896L57.8016 112.568L74.8656 131H63.2016L50.6736 116.816H49.3776V131H40.3056ZM99.8103 132.008C93.5703 132.008 88.6263 130.28 84.9783 126.824C81.3303 123.32 79.5063 118.328 79.5063 111.848V99.752C79.5063 93.272 81.3303 88.304 84.9783 84.848C88.6263 81.344 93.5703 79.592 99.8103 79.592C106.002 79.592 110.778 81.296 114.138 84.704C117.546 88.064 119.25 92.696 119.25 98.6V99.032H109.89V98.312C109.89 95.336 109.05 92.888 107.37 90.968C105.738 89.048 103.218 88.088 99.8103 88.088C96.4503 88.088 93.8103 89.12 91.8903 91.184C89.9703 93.248 89.0103 96.056 89.0103 99.608V111.992C89.0103 115.496 89.9703 118.304 91.8903 120.416C93.8103 122.48 96.4503 123.512 99.8103 123.512C103.218 123.512 105.738 122.552 107.37 120.632C109.05 118.664 109.89 116.216 109.89 113.288V111.992H119.25V113C119.25 118.904 117.546 123.56 114.138 126.968C110.778 130.328 106.002 132.008 99.8103 132.008ZM127.282 131V95.288H136.354V131H127.282ZM131.818 91.112C130.186 91.112 128.794 90.584 127.642 89.528C126.538 88.472 125.986 87.08 125.986 85.352C125.986 83.624 126.538 82.232 127.642 81.176C128.794 80.12 130.186 79.592 131.818 79.592C133.498 79.592 134.89 80.12 135.994 81.176C137.098 82.232 137.65 83.624 137.65 85.352C137.65 87.08 137.098 88.472 135.994 89.528C134.89 90.584 133.498 91.112 131.818 91.112ZM160.087 131C157.735 131 155.815 130.28 154.327 128.84C152.887 127.352 152.167 125.384 152.167 122.936V102.776H143.239V95.288H152.167V84.2H161.239V95.288H171.031V102.776H161.239V121.352C161.239 122.792 161.911 123.512 163.255 123.512H170.167V131H160.087ZM183.131 145.4V137.48H202.571C203.915 137.48 204.587 136.76 204.587 135.32V126.32H203.291C202.907 127.136 202.307 127.952 201.491 128.768C200.675 129.584 199.571 130.256 198.179 130.784C196.787 131.312 195.011 131.576 192.851 131.576C190.067 131.576 187.619 130.952 185.507 129.704C183.443 128.408 181.835 126.632 180.683 124.376C179.531 122.12 178.955 119.528 178.955 116.6V95.288H188.027V115.88C188.027 118.568 188.675 120.584 189.971 121.928C191.315 123.272 193.211 123.944 195.659 123.944C198.443 123.944 200.603 123.032 202.139 121.208C203.675 119.336 204.443 116.744 204.443 113.432V95.288H213.515V137.336C213.515 139.784 212.795 141.728 211.355 143.168C209.915 144.656 207.995 145.4 205.595 145.4H183.131Z" fill="#051118"/>
</svg>
