<svg width="385" height="67" viewBox="0 0 385 67" fill="none" xmlns="http://www.w3.org/2000/svg">
<path d="M6.784 52L0.16 1.6H9.592L14.488 45.376H15.784L22.12 1.6H38.536L44.872 45.376H46.168L51.064 1.6H60.496L53.872 52H37.456L30.976 7.216H29.68L23.2 52H6.784ZM67.7275 52V1.6H76.7995V20.68H78.0955C78.4795 19.912 79.0795 19.144 79.8955 18.376C80.7115 17.608 81.7915 16.984 83.1355 16.504C84.5275 15.976 86.2795 15.712 88.3915 15.712C91.1755 15.712 93.5995 16.36 95.6635 17.656C97.7755 18.904 99.4075 20.656 100.56 22.912C101.712 25.12 102.288 27.712 102.288 30.688V52H93.2155V31.408C93.2155 28.72 92.5435 26.704 91.1995 25.36C89.9035 24.016 88.0315 23.344 85.5835 23.344C82.7995 23.344 80.6395 24.28 79.1035 26.152C77.5675 27.976 76.7995 30.544 76.7995 33.856V52H67.7275ZM115.42 66.4V58.48H134.86C136.204 58.48 136.876 57.76 136.876 56.32V47.32H135.58C135.196 48.136 134.596 48.952 133.78 49.768C132.964 50.584 131.86 51.256 130.468 51.784C129.076 52.312 127.3 52.576 125.14 52.576C122.356 52.576 119.908 51.952 117.796 50.704C115.732 49.408 114.124 47.632 112.972 45.376C111.82 43.12 111.244 40.528 111.244 37.6V16.288H120.316V36.88C120.316 39.568 120.964 41.584 122.26 42.928C123.604 44.272 125.5 44.944 127.948 44.944C130.732 44.944 132.892 44.032 134.428 42.208C135.964 40.336 136.732 37.744 136.732 34.432V16.288H145.804V58.336C145.804 60.784 145.084 62.728 143.644 64.168C142.204 65.656 140.284 66.4 137.884 66.4H115.42ZM172.885 52V41.2L192.469 24.928V23.776H173.605V16.288H202.405V27.088L182.821 43.36V44.512H202.981V52H172.885ZM211.446 52V1.6H220.518V29.464H221.814L233.622 16.288H245.43L228.942 33.568L246.006 52H234.342L221.814 37.816H220.518V52H211.446ZM270.951 53.008C264.711 53.008 259.767 51.28 256.119 47.824C252.471 44.32 250.647 39.328 250.647 32.848V20.752C250.647 14.272 252.471 9.304 256.119 5.848C259.767 2.344 264.711 0.591997 270.951 0.591997C277.143 0.591997 281.919 2.296 285.279 5.704C288.687 9.064 290.391 13.696 290.391 19.6V20.032H281.031V19.312C281.031 16.336 280.191 13.888 278.511 11.968C276.879 10.048 274.359 9.088 270.951 9.088C267.591 9.088 264.951 10.12 263.031 12.184C261.111 14.248 260.151 17.056 260.151 20.608V32.992C260.151 36.496 261.111 39.304 263.031 41.416C264.951 43.48 267.591 44.512 270.951 44.512C274.359 44.512 276.879 43.552 278.511 41.632C280.191 39.664 281.031 37.216 281.031 34.288V32.992H290.391V34C290.391 39.904 288.687 44.56 285.279 47.968C281.919 51.328 277.143 53.008 270.951 53.008ZM298.423 52V16.288H307.495V52H298.423ZM302.959 12.112C301.327 12.112 299.935 11.584 298.783 10.528C297.679 9.472 297.127 8.08 297.127 6.352C297.127 4.624 297.679 3.232 298.783 2.176C299.935 1.12 301.327 0.591997 302.959 0.591997C304.639 0.591997 306.031 1.12 307.135 2.176C308.239 3.232 308.791 4.624 308.791 6.352C308.791 8.08 308.239 9.472 307.135 10.528C306.031 11.584 304.639 12.112 302.959 12.112ZM331.228 52C328.876 52 326.956 51.28 325.468 49.84C324.028 48.352 323.308 46.384 323.308 43.936V23.776H314.38V16.288H323.308V5.2H332.38V16.288H342.172V23.776H332.38V42.352C332.38 43.792 333.052 44.512 334.396 44.512H341.308V52H331.228ZM354.272 66.4V58.48H373.712C375.056 58.48 375.728 57.76 375.728 56.32V47.32H374.432C374.048 48.136 373.448 48.952 372.632 49.768C371.816 50.584 370.712 51.256 369.32 51.784C367.928 52.312 366.152 52.576 363.992 52.576C361.208 52.576 358.76 51.952 356.648 50.704C354.584 49.408 352.976 47.632 351.824 45.376C350.672 43.12 350.096 40.528 350.096 37.6V16.288H359.168V36.88C359.168 39.568 359.816 41.584 361.112 42.928C362.456 44.272 364.352 44.944 366.8 44.944C369.584 44.944 371.744 44.032 373.28 42.208C374.816 40.336 375.584 37.744 375.584 34.432V16.288H384.656V58.336C384.656 60.784 383.936 62.728 382.496 64.168C381.056 65.656 379.136 66.4 376.736 66.4H354.272Z" fill="#051118"/>
</svg>
